<svg width="87" height="93" viewBox="0 0 87 93" fill="none" xmlns="http://www.w3.org/2000/svg">
<path d="M11.6661 87.1438C11.6661 84.1928 25.6421 81.7997 42.8831 81.7997C60.1241 81.7997 74.1001 84.1928 74.1001 87.1438C74.1001 90.0948 60.1241 92.4878 42.8831 92.4878C25.6421 92.4878 11.6661 90.0958 11.6661 87.1438Z" fill="#F2F2F2"/>
<path d="M12.7361 74.2267C29.7161 91.2077 57.2471 91.2077 74.2281 74.2267C91.2091 57.2477 91.2091 29.7157 74.2281 12.7358C57.2471 -4.24525 29.7171 -4.24525 12.7361 12.7358C-4.24487 29.7168 -4.24587 57.2477 12.7361 74.2267Z" fill="#F5C19C"/>
<path opacity="0.5" d="M7.38108 51.7337C15.7521 60.1057 32.4671 56.9607 44.7151 44.7147C56.9631 32.4677 60.1061 15.7507 51.7341 7.38073C43.3631 -0.990271 26.6481 2.15373 14.4011 14.4007C2.15208 26.6487 -0.989919 43.3637 7.38108 51.7337Z" fill="url(#paint0_linear_5_952)"/>
<path opacity="0.15" d="M22.6082 79.0197C38.4092 88.5397 59.2292 86.4898 72.8592 72.8598C86.4902 59.2288 88.5402 38.4098 79.0202 22.6088L22.6082 79.0197Z" fill="url(#paint1_linear_5_952)"/>
<path d="M30.1811 47.7357C30.1811 49.9267 28.4031 51.7048 26.2121 51.7048C24.0201 51.7048 22.2421 49.9277 22.2421 47.7357C22.2421 45.5427 24.0201 43.7657 26.2121 43.7657C28.4031 43.7667 30.1811 45.5427 30.1811 47.7357Z" fill="#1E2326"/>
<path d="M16.4641 43.7997H31.5021" stroke="#1E2326" stroke-width="4.9606" stroke-miterlimit="10" stroke-linecap="round"/>
<path d="M56.7842 47.7357C56.7842 49.9267 58.5622 51.7048 60.7542 51.7048C62.9452 51.7048 64.7242 49.9277 64.7242 47.7357C64.7242 45.5427 62.9452 43.7657 60.7542 43.7657C58.5612 43.7667 56.7842 45.5427 56.7842 47.7357Z" fill="#1E2326"/>
<path d="M70.4991 43.7997H55.4641" stroke="#1E2326" stroke-width="4.9606" stroke-miterlimit="10" stroke-linecap="round"/>
<path d="M32.4991 64.2177H54.4641" stroke="#9A173F" stroke-width="2.8651" stroke-miterlimit="10" stroke-linecap="round"/>
<defs>
<linearGradient id="paint0_linear_5_952" x1="12.2567" y1="12.2567" x2="44.1323" y2="44.1324" gradientUnits="userSpaceOnUse">
<stop stop-color="white"/>
<stop offset="1" stop-color="white" stop-opacity="0"/>
</linearGradient>
<linearGradient id="paint1_linear_5_952" x1="73.8531" y1="73.8529" x2="50.5354" y2="50.5352" gradientUnits="userSpaceOnUse">
<stop offset="0.1022"/>
<stop offset="1" stop-opacity="0"/>
</linearGradient>
</defs>
</svg>
