<svg width="87" height="93" viewBox="0 0 87 93" fill="none" xmlns="http://www.w3.org/2000/svg">
<path d="M12.5015 87.1438C12.5015 84.1928 26.4784 81.7997 43.7184 81.7997C60.9584 81.7997 74.9355 84.1928 74.9355 87.1438C74.9355 90.0948 60.9584 92.4878 43.7184 92.4878C26.4774 92.4878 12.5015 90.0958 12.5015 87.1438Z" fill="#F2F2F2"/>
<path d="M12.7365 74.2277C29.7155 91.2097 57.2475 91.2097 74.2265 74.2277C91.2065 57.2477 91.2065 29.7157 74.2265 12.7358C57.2475 -4.24525 29.7155 -4.24525 12.7365 12.7358C-4.2455 29.7168 -4.2455 57.2477 12.7365 74.2277Z" fill="#F5C19C"/>
<path opacity="0.5" d="M7.37945 51.7338C15.7504 60.1058 32.4665 56.9618 44.7135 44.7148C56.9605 32.4668 60.1044 15.7518 51.7334 7.38075C43.3634 -0.990248 26.6484 2.15276 14.4004 14.4008C2.15244 26.6488 -0.990554 43.3638 7.37945 51.7338Z" fill="url(#paint0_linear_5_709)"/>
<path opacity="0.15" d="M22.6085 79.0208C38.4095 88.5408 59.2295 86.4917 72.8585 72.8607C86.4915 59.2287 88.5405 38.4088 79.0195 22.6088L22.6085 79.0208Z" fill="url(#paint1_linear_5_709)"/>
<path d="M16.4645 19.9128L31.5025 16.0908" stroke="#1E2326" stroke-width="4.9606" stroke-miterlimit="10" stroke-linecap="round"/>
<path d="M70.4985 19.9128L55.4645 10.3568" stroke="#1E2326" stroke-width="4.9606" stroke-miterlimit="10" stroke-linecap="round"/>
<path d="M43.4815 31.7697C37.5265 31.7697 8.51855 31.7697 8.51855 31.7697V35.5907H10.6635C10.6635 35.5907 11.6745 41.8817 12.6855 44.6907C13.8095 47.7247 16.1786 50.7577 19.3246 51.8817C22.9206 53.0047 31.2276 52.5467 34.9416 49.0727C39.4806 44.8297 38.3155 36.9377 43.4815 36.9377C48.6465 36.9377 48.4275 45.6967 52.0205 49.0727C55.7285 52.5547 64.0425 53.0047 67.6365 51.8817C70.7845 50.7577 73.1525 47.7247 74.2766 44.6907C75.2886 41.8817 76.3005 35.5907 76.3005 35.5907H78.4435V31.7697C78.4435 31.7697 49.4355 31.7697 43.4815 31.7697Z" fill="#1E2326"/>
<path d="M53.0386 71.3737C59.1026 71.3737 64.0196 66.4578 64.0196 60.3898" stroke="#9A173F" stroke-width="2.8651" stroke-miterlimit="10" stroke-linecap="round"/>
<defs>
<linearGradient id="paint0_linear_5_709" x1="12.2559" y1="12.2567" x2="44.1315" y2="44.1323" gradientUnits="userSpaceOnUse">
<stop stop-color="white"/>
<stop offset="1" stop-color="white" stop-opacity="0"/>
</linearGradient>
<linearGradient id="paint1_linear_5_709" x1="73.8525" y1="73.8534" x2="50.5349" y2="50.5357" gradientUnits="userSpaceOnUse">
<stop offset="0.1022"/>
<stop offset="1" stop-opacity="0"/>
</linearGradient>
</defs>
</svg>
