<svg width="87" height="93" viewBox="0 0 87 93" fill="none" xmlns="http://www.w3.org/2000/svg">
<path d="M12.5015 87.1908C12.5015 84.2398 26.4784 81.8467 43.7184 81.8467C60.9584 81.8467 74.9355 84.2398 74.9355 87.1908C74.9355 90.1418 60.9584 92.5347 43.7184 92.5347C26.4774 92.5347 12.5015 90.1418 12.5015 87.1908Z" fill="#F2F2F2"/>
<path d="M12.7365 74.2278C29.7155 91.2088 57.2475 91.2088 74.2265 74.2278C91.2065 57.2478 91.2065 29.7168 74.2265 12.7358C57.2475 -4.24525 29.7155 -4.24525 12.7365 12.7358C-4.2455 29.7168 -4.2455 57.2478 12.7365 74.2278Z" fill="#F5C19C"/>
<path opacity="0.5" d="M7.37945 51.7347C15.7504 60.1067 32.4665 56.9637 44.7135 44.7157C56.9605 32.4677 60.1044 15.7527 51.7334 7.38173C43.3634 -0.989271 26.6484 2.15373 14.4004 14.4017C2.15244 26.6487 -0.990554 43.3637 7.37945 51.7347Z" fill="url(#paint0_linear_5_688)"/>
<path opacity="0.15" d="M22.6085 79.0208C38.4095 88.5408 59.2295 86.4908 72.8585 72.8598C86.4915 59.2298 88.5405 38.4088 79.0195 22.6088L22.6085 79.0208Z" fill="url(#paint1_linear_5_688)"/>
<path d="M30.0454 40.0207C30.3604 41.1967 28.8994 42.6097 26.7824 43.1767C24.6654 43.7437 22.6914 43.2507 22.3774 42.0747C22.0634 40.8987 23.5244 39.4857 25.6414 38.9187C27.7574 38.3507 29.7294 38.8437 30.0454 40.0207Z" fill="#1E2326"/>
<path d="M16.4645 24.6897L31.5025 16.4747" stroke="#1E2326" stroke-width="4.9606" stroke-miterlimit="10" stroke-linecap="round"/>
<path d="M56.9194 40.0207C56.6054 41.1967 58.0664 42.6097 60.1834 43.1777C62.3004 43.7447 64.2724 43.2517 64.5884 42.0747C64.9024 40.8987 63.4414 39.4857 61.3254 38.9187C59.2074 38.3507 57.2344 38.8437 56.9194 40.0207Z" fill="#1E2326"/>
<path d="M70.4985 24.6897L55.4645 16.4747" stroke="#1E2326" stroke-width="4.9606" stroke-miterlimit="10" stroke-linecap="round"/>
<path d="M30.8516 53.4008V63.8258C30.8516 70.8008 36.5065 76.4558 43.4815 76.4558C50.4585 76.4558 56.1105 70.8008 56.1105 63.8258V53.4008H30.8516Z" fill="#9A173F"/>
<path d="M56.1105 53.4008H30.8516V57.8038H56.1105V53.4008Z" fill="white"/>
<path d="M54.6085 69.8017C53.2845 68.7997 51.6405 68.1978 49.8525 68.1978C45.4935 68.1978 41.9575 71.7328 41.9575 76.0918C41.9575 76.1818 41.9695 76.2687 41.9715 76.3577C42.4685 76.4177 42.9695 76.4567 43.4815 76.4567C48.2945 76.4567 52.4765 73.7637 54.6085 69.8017Z" fill="#DB1D4B"/>
<path d="M74.7355 47.8208C76.4375 49.5238 76.4375 52.2837 74.7355 53.9877C73.0315 55.6897 70.2715 55.6897 68.5705 53.9877C66.8675 52.2837 66.5145 45.7657 66.5145 45.7657C66.5145 45.7657 73.0315 46.1198 74.7355 47.8208Z" fill="#309EBA"/>
<path d="M18.3935 53.9868C16.6915 55.6888 13.9315 55.6888 12.2285 53.9868C10.5265 52.2838 10.5265 49.5238 12.2285 47.8208C13.9315 46.1188 20.4505 45.7648 20.4505 45.7648C20.4505 45.7648 20.0965 52.2838 18.3935 53.9868Z" fill="#309EBA"/>
<defs>
<linearGradient id="paint0_linear_5_688" x1="12.256" y1="12.2571" x2="44.1314" y2="44.1325" gradientUnits="userSpaceOnUse">
<stop stop-color="white"/>
<stop offset="1" stop-color="white" stop-opacity="0"/>
</linearGradient>
<linearGradient id="paint1_linear_5_688" x1="73.852" y1="73.8526" x2="50.5349" y2="50.5354" gradientUnits="userSpaceOnUse">
<stop offset="0.1022"/>
<stop offset="1" stop-opacity="0"/>
</linearGradient>
</defs>
</svg>
