<svg width="87" height="93" viewBox="0 0 87 93" fill="none" xmlns="http://www.w3.org/2000/svg">
<path d="M11.6661 87.3138C11.6661 84.3628 25.6421 81.9697 42.8831 81.9697C60.1241 81.9697 74.1001 84.3628 74.1001 87.3138C74.1001 90.2648 60.1241 92.6577 42.8831 92.6577C25.6421 92.6577 11.6661 90.2658 11.6661 87.3138Z" fill="#F2F2F2"/>
<path d="M12.7361 74.2267C29.7161 91.2087 57.2471 91.2087 74.2281 74.2267C91.2091 57.2457 91.2091 29.7148 74.2281 12.7358C57.2471 -4.24525 29.7171 -4.24525 12.7361 12.7358C-4.24487 29.7157 -4.24587 57.2457 12.7361 74.2267Z" fill="#F5C19C"/>
<path opacity="0.5" d="M7.38108 51.7327C15.7521 60.1047 32.4671 56.9618 44.7151 44.7138C56.9631 32.4648 60.1061 15.7497 51.7341 7.37974C43.3631 -0.99226 26.6481 2.15075 14.4011 14.3988C2.15208 26.6468 -0.989919 43.3617 7.38108 51.7327Z" fill="url(#paint0_linear_5_634)"/>
<path opacity="0.15" d="M22.6082 79.0197C38.4092 88.5397 59.2292 86.4897 72.8592 72.8597C86.4902 59.2267 88.5402 38.4078 79.0202 22.6068L22.6082 79.0197Z" fill="url(#paint1_linear_5_634)"/>
<path d="M30.1811 44.8687C30.1811 47.0597 28.4031 48.8387 26.2121 48.8387C24.0201 48.8387 22.2421 47.0607 22.2421 44.8687C22.2421 42.6767 24.0201 40.8987 26.2121 40.8987C28.4031 40.8987 30.1811 42.6767 30.1811 44.8687Z" fill="#1E2326"/>
<path d="M16.4641 35.1997L31.5021 41.8887" stroke="#1E2326" stroke-width="4.9606" stroke-miterlimit="10" stroke-linecap="round"/>
<path d="M56.7842 44.8687C56.7842 47.0597 58.5622 48.8387 60.7542 48.8387C62.9452 48.8387 64.7242 47.0607 64.7242 44.8687C64.7242 42.6767 62.9452 40.8987 60.7542 40.8987C58.5612 40.8987 56.7842 42.6767 56.7842 44.8687Z" fill="#1E2326"/>
<path d="M70.4991 35.1997L55.4641 41.8887" stroke="#1E2326" stroke-width="4.9606" stroke-miterlimit="10" stroke-linecap="round"/>
<path d="M54.4641 71.3707C54.4641 65.3047 49.5461 60.3877 43.4821 60.3877C37.4171 60.3877 32.4991 65.3057 32.4991 71.3707" stroke="#9A173F" stroke-width="2.8651" stroke-miterlimit="10" stroke-linecap="round"/>
<defs>
<linearGradient id="paint0_linear_5_634" x1="12.256" y1="12.2555" x2="44.1322" y2="44.1316" gradientUnits="userSpaceOnUse">
<stop stop-color="white"/>
<stop offset="1" stop-color="white" stop-opacity="0"/>
</linearGradient>
<linearGradient id="paint1_linear_5_634" x1="73.8534" y1="73.8525" x2="50.5352" y2="50.5343" gradientUnits="userSpaceOnUse">
<stop offset="0.1022"/>
<stop offset="1" stop-opacity="0"/>
</linearGradient>
</defs>
</svg>
