<svg width="87" height="93" viewBox="0 0 87 93" fill="none" xmlns="http://www.w3.org/2000/svg">
<path d="M11.6661 87.1908C11.6661 84.2398 25.6421 81.8467 42.8831 81.8467C60.1241 81.8467 74.1001 84.2398 74.1001 87.1908C74.1001 90.1418 60.1241 92.5347 42.8831 92.5347C25.6421 92.5347 11.6661 90.1418 11.6661 87.1908Z" fill="#F2F2F2"/>
<path d="M12.7361 74.2278C29.7161 91.2088 57.2471 91.2088 74.2281 74.2278C91.2091 57.2478 91.2091 29.7168 74.2281 12.7358C57.2471 -4.24525 29.7171 -4.24525 12.7361 12.7358C-4.24487 29.7168 -4.24587 57.2478 12.7361 74.2278Z" fill="#F5C19C"/>
<path opacity="0.5" d="M7.38108 51.7347C15.7521 60.1067 32.4671 56.9637 44.7151 44.7157C56.9631 32.4677 60.1061 15.7527 51.7341 7.38173C43.3631 -0.989271 26.6481 2.15373 14.4011 14.4017C2.15208 26.6487 -0.989919 43.3637 7.38108 51.7347Z" fill="url(#paint0_linear_5_824)"/>
<path opacity="0.15" d="M22.6082 79.0208C38.4092 88.5408 59.2292 86.4908 72.8592 72.8598C86.4902 59.2298 88.5402 38.4088 79.0202 22.6088L22.6082 79.0208Z" fill="url(#paint1_linear_5_824)"/>
<path d="M30.1811 41.0477C30.1811 43.2397 28.4031 45.0167 26.2121 45.0167C24.0201 45.0167 22.2421 43.2397 22.2421 41.0477C22.2421 38.8557 24.0201 37.0787 26.2121 37.0787C28.4031 37.0787 30.1811 38.8557 30.1811 41.0477Z" fill="#1E2326"/>
<path d="M16.4641 28.5117H31.5021" stroke="#1E2326" stroke-width="4.9606" stroke-miterlimit="10" stroke-linecap="round"/>
<path d="M56.7842 41.0477C56.7842 43.2397 58.5622 45.0167 60.7542 45.0167C62.9452 45.0167 64.7242 43.2397 64.7242 41.0477C64.7242 38.8557 62.9452 37.0787 60.7542 37.0787C58.5612 37.0787 56.7842 38.8557 56.7842 41.0477Z" fill="#1E2326"/>
<path d="M70.4991 28.5117H55.4641" stroke="#1E2326" stroke-width="4.9606" stroke-miterlimit="10" stroke-linecap="round"/>
<path d="M32.4991 57.5217V63.2637C32.4991 69.3287 37.4161 74.2467 43.4821 74.2467C49.5471 74.2467 54.4641 69.3297 54.4641 63.2637V57.5217H32.4991Z" fill="#9A173F"/>
<path d="M54.4641 57.5217H32.4991V61.3507H54.4641V57.5217Z" fill="white"/>
<path d="M53.1581 68.4607C52.0071 67.5887 50.5771 67.0657 49.0221 67.0657C45.2311 67.0657 42.1571 70.1387 42.1571 73.9307C42.1571 74.0087 42.1671 74.0837 42.1691 74.1617C42.6011 74.2127 43.0371 74.2477 43.4821 74.2477C47.6661 74.2467 51.3031 71.9037 53.1581 68.4607Z" fill="#DB1D4B"/>
<defs>
<linearGradient id="paint0_linear_5_824" x1="12.2566" y1="12.257" x2="44.1322" y2="44.1326" gradientUnits="userSpaceOnUse">
<stop stop-color="white"/>
<stop offset="1" stop-color="white" stop-opacity="0"/>
</linearGradient>
<linearGradient id="paint1_linear_5_824" x1="73.8527" y1="73.8528" x2="50.5355" y2="50.5356" gradientUnits="userSpaceOnUse">
<stop offset="0.1022"/>
<stop offset="1" stop-opacity="0"/>
</linearGradient>
</defs>
</svg>
