<svg width="87" height="92" viewBox="0 0 87 92" fill="none" xmlns="http://www.w3.org/2000/svg">
<path d="M12.4661 86.4618C12.4661 83.5108 26.442 81.1177 43.683 81.1177C60.923 81.1177 74.9001 83.5108 74.9001 86.4618C74.9001 89.4128 60.923 91.8058 43.683 91.8058C26.442 91.8058 12.4661 89.4138 12.4661 86.4618Z" fill="#F2F2F2"/>
<path d="M12.7361 74.2288C29.7161 91.2108 57.2471 91.2108 74.2271 74.2288C91.2081 57.2478 91.2071 29.7168 74.2271 12.7358C57.2461 -4.24525 29.7161 -4.24525 12.7361 12.7358C-4.24487 29.7168 -4.24587 57.2478 12.7361 74.2288Z" fill="#F5C19C"/>
<path opacity="0.5" d="M7.38118 51.7357C15.7522 60.1057 32.4662 56.9637 44.7152 44.7157C56.9632 32.4677 60.1062 15.7527 51.7342 7.38173C43.3642 -0.989271 26.6492 2.15373 14.4012 14.4017C2.15319 26.6497 -0.989825 43.3647 7.38118 51.7357Z" fill="url(#paint0_linear_5_760)"/>
<path opacity="0.15" d="M22.6091 79.0208C38.4101 88.5418 59.2291 86.4918 72.8591 72.8618C86.4911 59.2298 88.5411 38.4098 79.0201 22.6088L22.6091 79.0208Z" fill="url(#paint1_linear_5_760)"/>
<path d="M26.3801 38.5658C26.3801 41.3048 30.158 43.5268 27.42 43.5268C24.68 43.5268 22.4561 41.3048 22.4561 38.5658C22.4561 35.8258 24.68 33.6047 27.42 33.6047C30.158 33.6047 26.3801 35.8258 26.3801 38.5658Z" fill="#1E2326"/>
<path d="M16.4651 26.6018L31.5031 22.7808" stroke="#1E2326" stroke-width="4.9606" stroke-miterlimit="10" stroke-linecap="round"/>
<path d="M60.5841 38.5658C60.5841 41.3048 56.8061 43.5268 59.5461 43.5268C62.2851 43.5268 64.5091 41.3048 64.5091 38.5658C64.5091 35.8258 62.2851 33.6047 59.5461 33.6047C56.8061 33.6047 60.5841 35.8258 60.5841 38.5658Z" fill="#1E2326"/>
<path d="M70.4991 26.6018L55.4641 22.7808" stroke="#1E2326" stroke-width="4.9606" stroke-miterlimit="10" stroke-linecap="round"/>
<path d="M70.0101 67.6598L63.4001 61.0508L56.7881 67.6598L50.1781 61.0508L43.5691 67.6598L36.9581 61.0508L30.3471 67.6598L23.7381 61.0508L16.9531 67.8347" stroke="#9A173F" stroke-width="2.8651" stroke-miterlimit="10" stroke-linecap="round" stroke-linejoin="round"/>
<defs>
<linearGradient id="paint0_linear_5_760" x1="12.2559" y1="12.2571" x2="44.1322" y2="44.1334" gradientUnits="userSpaceOnUse">
<stop stop-color="white"/>
<stop offset="1" stop-color="white" stop-opacity="0"/>
</linearGradient>
<linearGradient id="paint1_linear_5_760" x1="73.853" y1="73.8537" x2="50.535" y2="50.5358" gradientUnits="userSpaceOnUse">
<stop offset="0.1022"/>
<stop offset="1" stop-opacity="0"/>
</linearGradient>
</defs>
</svg>
