<svg width="186" height="26" viewBox="0 0 186 26" fill="none" xmlns="http://www.w3.org/2000/svg">
<path d="M17.058 5.96V8.7H13.338V20H9.91797V8.7H6.19797V5.96H17.058ZM29.0944 14.24C29.0944 14.56 29.0744 14.8933 29.0344 15.24H21.2944C21.3477 15.9333 21.5677 16.4667 21.9544 16.84C22.3544 17.2 22.841 17.38 23.4144 17.38C24.2677 17.38 24.861 17.02 25.1944 16.3H28.8344C28.6477 17.0333 28.3077 17.6933 27.8144 18.28C27.3344 18.8667 26.7277 19.3267 25.9944 19.66C25.261 19.9933 24.441 20.16 23.5344 20.16C22.441 20.16 21.4677 19.9267 20.6144 19.46C19.761 18.9933 19.0944 18.3267 18.6144 17.46C18.1344 16.5933 17.8944 15.58 17.8944 14.42C17.8944 13.26 18.1277 12.2467 18.5944 11.38C19.0744 10.5133 19.741 9.84667 20.5944 9.38C21.4477 8.91333 22.4277 8.68 23.5344 8.68C24.6144 8.68 25.5744 8.90667 26.4144 9.36C27.2544 9.81333 27.9077 10.46 28.3744 11.3C28.8544 12.14 29.0944 13.12 29.0944 14.24ZM25.5944 13.34C25.5944 12.7533 25.3944 12.2867 24.9944 11.94C24.5944 11.5933 24.0944 11.42 23.4944 11.42C22.921 11.42 22.4344 11.5867 22.0344 11.92C21.6477 12.2533 21.4077 12.7267 21.3144 13.34H25.5944ZM44.9386 8.72C46.3253 8.72 47.4253 9.14 48.2386 9.98C49.0653 10.82 49.4786 11.9867 49.4786 13.48V20H46.0786V13.94C46.0786 13.22 45.8853 12.6667 45.4986 12.28C45.1253 11.88 44.6053 11.68 43.9386 11.68C43.2719 11.68 42.7453 11.88 42.3586 12.28C41.9853 12.6667 41.7986 13.22 41.7986 13.94V20H38.3986V13.94C38.3986 13.22 38.2053 12.6667 37.8186 12.28C37.4453 11.88 36.9253 11.68 36.2586 11.68C35.5919 11.68 35.0653 11.88 34.6786 12.28C34.3053 12.6667 34.1186 13.22 34.1186 13.94V20H30.6986V8.84H34.1186V10.24C34.4653 9.77333 34.9186 9.40667 35.4786 9.14C36.0386 8.86 36.6719 8.72 37.3786 8.72C38.2186 8.72 38.9653 8.9 39.6186 9.26C40.2853 9.62 40.8053 10.1333 41.1786 10.8C41.5653 10.1867 42.0919 9.68667 42.7586 9.3C43.4253 8.91333 44.1519 8.72 44.9386 8.72ZM50.9905 14.4C50.9905 13.2533 51.2038 12.2467 51.6305 11.38C52.0705 10.5133 52.6638 9.84667 53.4105 9.38C54.1571 8.91333 54.9905 8.68 55.9105 8.68C56.6971 8.68 57.3838 8.84 57.9705 9.16C58.5705 9.48 59.0305 9.9 59.3505 10.42V8.84H62.7705V20H59.3505V18.42C59.0171 18.94 58.5505 19.36 57.9505 19.68C57.3638 20 56.6771 20.16 55.8905 20.16C54.9838 20.16 54.1571 19.9267 53.4105 19.46C52.6638 18.98 52.0705 18.3067 51.6305 17.44C51.2038 16.56 50.9905 15.5467 50.9905 14.4ZM59.3505 14.42C59.3505 13.5667 59.1105 12.8933 58.6305 12.4C58.1638 11.9067 57.5905 11.66 56.9105 11.66C56.2305 11.66 55.6505 11.9067 55.1705 12.4C54.7038 12.88 54.4705 13.5467 54.4705 14.4C54.4705 15.2533 54.7038 15.9333 55.1705 16.44C55.6505 16.9333 56.2305 17.18 56.9105 17.18C57.5905 17.18 58.1638 16.9333 58.6305 16.44C59.1105 15.9467 59.3505 15.2733 59.3505 14.42ZM71.8447 8.72C73.1514 8.72 74.1914 9.14667 74.9647 10C75.7514 10.84 76.1447 12 76.1447 13.48V20H72.7447V13.94C72.7447 13.1933 72.5514 12.6133 72.1647 12.2C71.778 11.7867 71.258 11.58 70.6047 11.58C69.9514 11.58 69.4314 11.7867 69.0447 12.2C68.658 12.6133 68.4647 13.1933 68.4647 13.94V20H65.0447V8.84H68.4647V10.32C68.8114 9.82667 69.278 9.44 69.8647 9.16C70.4514 8.86667 71.1114 8.72 71.8447 8.72ZM90.4995 20L85.7795 13.8V20H82.3595V5.96H85.7795V12.12L90.4595 5.96H94.4795L89.0395 12.84L94.6795 20H90.4995ZM101.185 20.16C100.092 20.16 99.1048 19.9267 98.2248 19.46C97.3582 18.9933 96.6715 18.3267 96.1648 17.46C95.6715 16.5933 95.4248 15.58 95.4248 14.42C95.4248 13.2733 95.6782 12.2667 96.1848 11.4C96.6915 10.52 97.3848 9.84667 98.2648 9.38C99.1448 8.91333 100.132 8.68 101.225 8.68C102.318 8.68 103.305 8.91333 104.185 9.38C105.065 9.84667 105.758 10.52 106.265 11.4C106.772 12.2667 107.025 13.2733 107.025 14.42C107.025 15.5667 106.765 16.58 106.245 17.46C105.738 18.3267 105.038 18.9933 104.145 19.46C103.265 19.9267 102.278 20.16 101.185 20.16ZM101.185 17.2C101.838 17.2 102.392 16.96 102.845 16.48C103.312 16 103.545 15.3133 103.545 14.42C103.545 13.5267 103.318 12.84 102.865 12.36C102.425 11.88 101.878 11.64 101.225 11.64C100.558 11.64 100.005 11.88 99.5648 12.36C99.1248 12.8267 98.9048 13.5133 98.9048 14.42C98.9048 15.3133 99.1182 16 99.5448 16.48C99.9848 16.96 100.532 17.2 101.185 17.2ZM115.439 8.72C116.746 8.72 117.786 9.14667 118.559 10C119.346 10.84 119.739 12 119.739 13.48V20H116.339V13.94C116.339 13.1933 116.146 12.6133 115.759 12.2C115.373 11.7867 114.853 11.58 114.199 11.58C113.546 11.58 113.026 11.7867 112.639 12.2C112.253 12.6133 112.059 13.1933 112.059 13.94V20H108.639V8.84H112.059V10.32C112.406 9.82667 112.873 9.44 113.459 9.16C114.046 8.86667 114.706 8.72 115.439 8.72ZM126.456 20.16C125.482 20.16 124.616 19.9933 123.856 19.66C123.096 19.3267 122.496 18.8733 122.056 18.3C121.616 17.7133 121.369 17.06 121.316 16.34H124.696C124.736 16.7267 124.916 17.04 125.236 17.28C125.556 17.52 125.949 17.64 126.416 17.64C126.842 17.64 127.169 17.56 127.396 17.4C127.636 17.2267 127.756 17.0067 127.756 16.74C127.756 16.42 127.589 16.1867 127.256 16.04C126.922 15.88 126.382 15.7067 125.636 15.52C124.836 15.3333 124.169 15.14 123.636 14.94C123.102 14.7267 122.642 14.4 122.256 13.96C121.869 13.5067 121.676 12.9 121.676 12.14C121.676 11.5 121.849 10.92 122.196 10.4C122.556 9.86667 123.076 9.44667 123.756 9.14C124.449 8.83333 125.269 8.68 126.216 8.68C127.616 8.68 128.716 9.02667 129.516 9.72C130.329 10.4133 130.796 11.3333 130.916 12.48H127.756C127.702 12.0933 127.529 11.7867 127.236 11.56C126.956 11.3333 126.582 11.22 126.116 11.22C125.716 11.22 125.409 11.3 125.196 11.46C124.982 11.6067 124.876 11.8133 124.876 12.08C124.876 12.4 125.042 12.64 125.376 12.8C125.722 12.96 126.256 13.12 126.976 13.28C127.802 13.4933 128.476 13.7067 128.996 13.92C129.516 14.12 129.969 14.4533 130.356 14.92C130.756 15.3733 130.962 15.9867 130.976 16.76C130.976 17.4133 130.789 18 130.416 18.52C130.056 19.0267 129.529 19.4267 128.836 19.72C128.156 20.0133 127.362 20.16 126.456 20.16ZM143.388 14.24C143.388 14.56 143.368 14.8933 143.328 15.24H135.588C135.641 15.9333 135.861 16.4667 136.248 16.84C136.648 17.2 137.135 17.38 137.708 17.38C138.561 17.38 139.155 17.02 139.488 16.3H143.128C142.941 17.0333 142.601 17.6933 142.108 18.28C141.628 18.8667 141.021 19.3267 140.288 19.66C139.555 19.9933 138.735 20.16 137.828 20.16C136.735 20.16 135.761 19.9267 134.908 19.46C134.055 18.9933 133.388 18.3267 132.908 17.46C132.428 16.5933 132.188 15.58 132.188 14.42C132.188 13.26 132.421 12.2467 132.888 11.38C133.368 10.5133 134.035 9.84667 134.888 9.38C135.741 8.91333 136.721 8.68 137.828 8.68C138.908 8.68 139.868 8.90667 140.708 9.36C141.548 9.81333 142.201 10.46 142.668 11.3C143.148 12.14 143.388 13.12 143.388 14.24ZM139.888 13.34C139.888 12.7533 139.688 12.2867 139.288 11.94C138.888 11.5933 138.388 11.42 137.788 11.42C137.215 11.42 136.728 11.5867 136.328 11.92C135.941 12.2533 135.701 12.7267 135.608 13.34H139.888ZM148.412 5.2V20H144.992V5.2H148.412ZM152.411 7.68C151.811 7.68 151.317 7.50667 150.931 7.16C150.557 6.8 150.371 6.36 150.371 5.84C150.371 5.30667 150.557 4.86667 150.931 4.52C151.317 4.16 151.811 3.98 152.411 3.98C152.997 3.98 153.477 4.16 153.851 4.52C154.237 4.86667 154.431 5.30667 154.431 5.84C154.431 6.36 154.237 6.8 153.851 7.16C153.477 7.50667 152.997 7.68 152.411 7.68ZM154.111 8.84V20H150.691V8.84H154.111ZM163.189 8.72C164.496 8.72 165.536 9.14667 166.309 10C167.096 10.84 167.489 12 167.489 13.48V20H164.089V13.94C164.089 13.1933 163.896 12.6133 163.509 12.2C163.123 11.7867 162.603 11.58 161.949 11.58C161.296 11.58 160.776 11.7867 160.389 12.2C160.003 12.6133 159.809 13.1933 159.809 13.94V20H156.389V8.84H159.809V10.32C160.156 9.82667 160.623 9.44 161.209 9.16C161.796 8.86667 162.456 8.72 163.189 8.72ZM173.906 8.68C174.692 8.68 175.379 8.84 175.966 9.16C176.566 9.48 177.026 9.9 177.346 10.42V8.84H180.766V19.98C180.766 21.0067 180.559 21.9333 180.146 22.76C179.746 23.6 179.126 24.2667 178.286 24.76C177.459 25.2533 176.426 25.5 175.186 25.5C173.532 25.5 172.192 25.1067 171.166 24.32C170.139 23.5467 169.552 22.4933 169.406 21.16H172.786C172.892 21.5867 173.146 21.92 173.546 22.16C173.946 22.4133 174.439 22.54 175.026 22.54C175.732 22.54 176.292 22.3333 176.706 21.92C177.132 21.52 177.346 20.8733 177.346 19.98V18.4C177.012 18.92 176.552 19.3467 175.966 19.68C175.379 20 174.692 20.16 173.906 20.16C172.986 20.16 172.152 19.9267 171.406 19.46C170.659 18.98 170.066 18.3067 169.626 17.44C169.199 16.56 168.986 15.5467 168.986 14.4C168.986 13.2533 169.199 12.2467 169.626 11.38C170.066 10.5133 170.659 9.84667 171.406 9.38C172.152 8.91333 172.986 8.68 173.906 8.68ZM177.346 14.42C177.346 13.5667 177.106 12.8933 176.626 12.4C176.159 11.9067 175.586 11.66 174.906 11.66C174.226 11.66 173.646 11.9067 173.166 12.4C172.699 12.88 172.466 13.5467 172.466 14.4C172.466 15.2533 172.699 15.9333 173.166 16.44C173.646 16.9333 174.226 17.18 174.906 17.18C175.586 17.18 176.159 16.9333 176.626 16.44C177.106 15.9467 177.346 15.2733 177.346 14.42Z" fill="black"/>
<path d="M182.5 2C182.906 3.73527 184.264 5.09738 186 5.5C184.264 5.90262 182.906 7.26473 182.5 9C182.094 7.26473 180.736 5.90262 179 5.5C180.736 5.09738 182.094 3.73527 182.5 2Z" fill="#3B82F6"/>
<path d="M142.5 19C142.906 20.7353 144.264 22.0974 146 22.5C144.264 22.9026 142.906 24.2647 142.5 26C142.094 24.2647 140.736 22.9026 139 22.5C140.736 22.0974 142.094 20.7353 142.5 19Z" fill="#3B82F6"/>
<path d="M3.5 6C3.9057 7.73527 5.26401 9.09738 7 9.5C5.26401 9.90262 3.9057 11.2647 3.5 13C3.0943 11.2647 1.73599 9.90262 0 9.5C1.73599 9.09738 3.0943 7.73527 3.5 6Z" fill="#3B82F6"/>
<path d="M51.5 19C51.9057 20.7353 53.264 22.0974 55 22.5C53.264 22.9026 51.9057 24.2647 51.5 26C51.0943 24.2647 49.736 22.9026 48 22.5C49.736 22.0974 51.0943 20.7353 51.5 19Z" fill="#3B82F6"/>
<path d="M76.5 1C76.9057 2.73527 78.264 4.09738 80 4.5C78.264 4.90262 76.9057 6.26473 76.5 8C76.0943 6.26473 74.736 4.90262 73 4.5C74.736 4.09738 76.0943 2.73527 76.5 1Z" fill="#3B82F6"/>
</svg>
