<svg width="320" height="339" viewBox="0 0 320 339" fill="none" xmlns="http://www.w3.org/2000/svg">
<path d="M151.427 297.338C222.197 297.338 279.567 240.013 279.567 169.3C279.567 98.5857 222.197 41.2609 151.427 41.2609C80.6569 41.2609 23.2866 98.5857 23.2866 169.3C23.2866 240.013 80.6569 297.338 151.427 297.338Z" fill="#F5F5F5"/>
<path d="M279.567 169.341C279.567 169.341 279.567 168.644 279.484 167.259C279.484 166.571 279.484 165.718 279.411 164.697C279.338 163.677 279.359 162.5 279.223 161.168C279.088 159.835 279.005 158.335 278.869 156.69C278.734 155.045 278.442 153.254 278.192 151.318C277.55 146.858 276.681 142.434 275.587 138.063C274.21 132.594 272.469 127.223 270.376 121.987C267.9 115.746 264.916 109.718 261.456 103.963C253.02 89.8996 241.987 77.5648 228.945 67.6141C213.101 55.5553 194.65 47.3747 175.071 43.7285C158.481 40.6658 141.453 40.8603 124.938 44.3012C113.149 46.7635 101.773 50.8973 91.155 56.5771C85.6811 59.5346 80.4169 62.8639 75.3993 66.5416C70.3005 70.3482 65.4681 74.4984 60.9357 78.9633C56.3834 83.5708 52.1631 88.4941 48.3061 93.6966C44.3988 99.007 40.9147 104.616 37.8856 110.471C37.1458 111.96 36.3226 113.407 35.6557 114.937L33.5716 119.508C32.3315 122.632 31.0602 125.756 30.039 128.952C27.88 135.403 26.2525 142.02 25.1727 148.735C24.1002 155.539 23.5394 162.413 23.495 169.299C23.5408 176.189 24.0981 183.066 25.1623 189.874C26.2412 196.591 27.8723 203.208 30.039 209.657C31.0811 212.874 32.3315 215.988 33.5612 219.101L35.6452 223.672C36.3122 225.203 37.1458 226.65 37.8752 228.139C40.9016 233.999 44.3859 239.611 48.2957 244.923C52.1575 250.115 56.3813 255.028 60.9357 259.625C65.4604 264.087 70.2822 268.237 75.368 272.047C80.3948 275.73 85.6697 279.063 91.155 282.022C96.5371 284.876 102.108 287.359 107.828 289.456C113.409 291.436 119.115 293.05 124.907 294.287C141.426 297.727 158.457 297.922 175.05 294.86C194.621 291.199 213.066 283.02 228.913 270.974C241.961 261.027 252.998 248.692 261.436 234.626C264.898 228.882 267.892 222.868 270.387 216.644C272.473 211.408 274.213 206.041 275.597 200.578C276.806 195.642 277.681 191.207 278.202 187.323C278.442 185.376 278.702 183.595 278.869 181.95C279.036 180.305 279.119 178.827 279.223 177.473C279.328 176.119 279.38 174.964 279.411 173.943C279.442 172.923 279.411 172.08 279.484 171.382C279.484 170.018 279.567 169.299 279.567 169.299C279.567 169.299 279.567 170.008 279.567 171.382C279.567 172.08 279.567 172.933 279.567 173.943C279.567 174.953 279.567 176.14 279.411 177.483C279.255 178.827 279.203 180.316 279.077 181.961C278.952 183.606 278.661 185.397 278.431 187.344C277.775 191.796 276.895 196.213 275.795 200.578C274.419 206.06 272.678 211.445 270.585 216.696C268.116 222.955 265.143 229.003 261.696 234.782C253.264 248.899 242.22 261.285 229.153 271.276C213.269 283.398 194.765 291.635 175.123 295.329C158.477 298.417 141.388 298.233 124.813 294.787C112.987 292.307 101.576 288.153 90.9257 282.449C85.4234 279.477 80.1344 276.127 75.0971 272.422C69.9849 268.593 65.1419 264.419 60.6022 259.927C56.0294 255.325 51.7881 250.405 47.9101 245.204C43.9795 239.872 40.4743 234.239 37.4271 228.357C36.6977 226.868 35.8537 225.411 35.1972 223.87C34.5407 222.329 33.8112 220.819 33.1131 219.288C31.8835 216.165 30.6017 213.041 29.5701 209.803C27.4015 203.325 25.767 196.681 24.6829 189.936C22.439 176.259 22.439 162.308 24.6829 148.631C25.767 141.876 27.4051 135.221 29.5805 128.734C30.6226 125.506 31.8835 122.382 33.1235 119.259L35.2076 114.667C35.8641 113.126 36.6977 111.678 37.4376 110.179C40.4834 104.3 43.9886 98.6706 47.9205 93.3426C51.7953 88.1229 56.033 83.1823 60.6022 78.5573C65.1471 74.0714 69.9897 69.8971 75.0971 66.0626C85.0501 58.7149 96.0103 52.8376 107.64 48.6118C113.251 46.6102 118.988 44.9789 124.813 43.7285C141.388 40.2828 158.477 40.0988 175.123 43.1871C194.765 46.9057 213.265 55.1639 229.143 67.3017C242.204 77.2784 253.248 89.6456 261.686 103.744C265.144 109.518 268.121 115.568 270.585 121.83C272.678 127.081 274.419 132.466 275.795 137.948C276.873 142.331 277.728 146.765 278.358 151.234C278.588 153.181 278.848 154.972 279.005 156.617C279.161 158.263 279.234 159.741 279.338 161.095C279.442 162.448 279.473 163.614 279.494 164.635C279.515 165.655 279.494 166.499 279.494 167.196C279.567 168.602 279.567 169.341 279.567 169.341Z" fill="#263238"/>
<path d="M112.454 291.455C112.454 291.455 132.066 298.005 153.605 297.328C177.572 296.568 193.203 290.383 193.203 290.383L184.46 257.636L156.804 266.029L122.729 261.125L112.454 291.455Z" fill="#263238"/>
<path d="M169.475 150.464L165.307 140.052L140.704 138.75L130.753 140.031L129.648 142.925L122.823 263.478C122.823 263.478 146.654 268.288 158.565 266.601C170.475 264.915 184.491 259.5 184.491 259.5V190.957L169.475 150.464Z" fill="#F5F5F5"/>
<path d="M132.441 155.358C132.49 155.438 132.55 155.511 132.618 155.576L133.149 156.17C133.629 156.69 134.327 157.43 135.233 158.346C137.771 160.859 140.461 163.213 143.288 165.395L143.403 165.478L143.507 165.374C146.163 162.458 148.628 159.373 150.885 156.138L151.614 155.097H151.323L157.231 163.052C157.465 163.367 157.742 163.648 158.054 163.885C158.378 164.133 158.785 164.245 159.19 164.198C159.572 164.122 159.92 163.925 160.18 163.635C160.421 163.385 160.647 163.12 160.857 162.844L163.192 159.918L166.547 155.691L167.443 154.535C167.641 154.264 167.735 154.119 167.735 154.119C167.602 154.225 167.483 154.347 167.381 154.483L166.432 155.607L163.004 159.772L160.628 162.667C160.211 163.167 159.784 163.791 159.148 163.896C158.513 164 157.929 163.437 157.492 162.854C155.689 160.407 153.699 157.721 151.614 154.879L151.458 154.681L151.312 154.889C151.083 155.222 150.833 155.576 150.593 155.93C148.354 159.153 145.918 162.233 143.299 165.155H143.518C140.688 163 137.981 160.689 135.411 158.231C134.462 157.336 133.743 156.617 133.243 156.149L132.67 155.587C132.524 155.41 132.451 155.347 132.441 155.358Z" fill="#263238"/>
<g opacity="0.3">
<path d="M160.555 163C160.555 163 157.429 166.842 156.554 165.874C155.678 164.906 151.062 157.763 150.51 157.471C149.958 157.18 144.372 167.196 142.174 166.488C139.975 165.78 132.17 157.992 132.17 157.992L132.024 154.868L143.403 165.218L151.489 154.941L158.284 163.781C158.284 163.781 159.722 164.947 160.555 163Z" fill="black"/>
</g>
<path d="M155.324 267.341C155.356 266.967 155.356 266.59 155.324 266.216C155.324 265.414 155.262 264.332 155.22 262.978C155.105 260.094 154.939 256.054 154.741 251.077C154.313 241.029 153.751 227.129 153.219 211.812C152.688 196.496 152.292 182.585 152.021 172.527C151.875 167.55 151.76 163.5 151.677 160.626C151.677 159.262 151.594 158.19 151.562 157.388C151.571 157.007 151.539 156.627 151.469 156.253C151.437 156.631 151.437 157.01 151.469 157.388C151.469 158.19 151.469 159.273 151.469 160.626C151.469 163.51 151.531 167.561 151.583 172.538C151.729 182.596 152.052 196.486 152.625 211.833C153.198 227.181 153.803 241.05 154.355 251.098C154.647 256.064 154.886 260.115 155.053 262.988C155.157 264.342 155.23 265.425 155.293 266.216C155.276 266.591 155.287 266.967 155.324 267.341Z" fill="#263238"/>
<g opacity="0.3">
<path d="M176.988 218.684C175.008 248.328 174.727 264.175 179.645 293.475C181.855 293.059 184.856 292.257 188.096 291.393C183.793 263.113 181.302 246.933 176.988 218.684Z" fill="black"/>
</g>
<path d="M194.943 246.579C194.943 246.579 195.141 243.028 195.203 242.07L195.933 227.608L197.694 197.36L205.738 162.896C204.269 158.179 200.393 153.119 195.922 151.568C195.568 151.443 195.214 151.349 194.88 151.255L185.043 148.788L177.426 147.299L165.547 140.25C165.547 140.25 176.457 206.242 177.155 223.214C177.853 240.186 184.449 293.329 184.449 293.329C194.098 290.971 203.361 287.252 211.959 282.282L194.943 246.579Z" fill="#3B82F6"/>
<path d="M177.916 214.801C177.916 214.801 177.916 214.801 177.978 214.624C178.041 214.447 178.062 214.301 178.114 214.082C178.228 213.583 178.395 212.875 178.593 212C178.979 210.178 179.51 207.533 180.01 204.243C180.51 200.953 181 197.006 181.386 192.623C181.771 188.239 182.073 183.408 182.313 178.327C182.396 176.432 182.48 174.568 182.563 172.756C182.563 171.851 182.636 170.955 182.678 170.07L182.74 168.748V168.092V167.759C182.74 167.706 182.74 167.644 182.74 167.582C182.74 167.519 182.74 167.519 182.74 167.457V167.394C182.74 167.342 182.574 167.311 182.542 167.342C182.511 167.373 182.449 167.415 182.417 167.446H182.667L178.687 164.656V164.937L182.928 162.958L183.043 162.906V162.781C182.407 160.366 181.636 158.231 180.958 156.336C180.281 154.441 179.656 152.807 179.135 151.463C178.614 150.12 178.197 149.079 177.905 148.34L177.561 147.538C177.527 147.443 177.482 147.352 177.426 147.267C177.442 147.368 177.47 147.465 177.509 147.559C177.593 147.767 177.686 148.038 177.811 148.381C178.093 149.121 178.478 150.172 178.979 151.505C179.479 152.838 180.073 154.504 180.729 156.399C181.386 158.294 182.126 160.439 182.74 162.834L182.824 162.657L178.562 164.624L178.312 164.739L178.541 164.906L182.438 167.644H182.688C182.688 167.644 182.563 167.55 182.574 167.55C182.562 167.556 182.55 167.559 182.537 167.559C182.525 167.559 182.512 167.556 182.501 167.55H182.449V168.04V168.685C182.449 169.112 182.449 169.56 182.376 169.997C182.376 170.882 182.303 171.778 182.261 172.683C182.178 174.506 182.084 176.369 182 178.264C181.761 183.335 181.469 188.156 181.104 192.54C180.74 196.923 180.271 200.869 179.812 204.149C179.354 207.429 178.843 210.094 178.51 211.927C178.332 212.812 178.197 213.52 178.093 214.009C178.093 214.239 178.02 214.416 177.999 214.561L177.916 214.801Z" fill="#263238"/>
<path d="M131.941 153.431L130.753 138.708C127.491 141.634 121.374 147.257 121.374 147.257L95.2606 156.847L104.556 250.671L91.0716 282.303C99.1162 286.322 111.1 291.507 119.686 293.59C123.761 273.869 124.344 274.327 129.909 243.997C135.473 213.666 131.941 153.431 131.941 153.431Z" fill="#3B82F6"/>
<g opacity="0.3">
<path d="M163.692 260.666C163.692 260.666 165.474 262.988 161.545 263.696C157.617 264.404 113.142 261.125 113.142 261.125L96.782 268.871L98.8661 263.02L110.433 253.097L163.692 260.666Z" fill="black"/>
</g>
<path d="M95.2606 156.847C95.2606 156.847 87.3411 160.741 86.1532 171.798C85.1111 181.523 83.3917 241.248 83.6002 246.069C83.8086 250.889 87.9768 264.498 95.4482 264.967C107.223 265.716 110.475 256.637 110.475 256.637L107.348 226.14L95.2606 156.847Z" fill="#3B82F6"/>
<path d="M125.24 211.583C125.24 211.583 125.24 211.521 125.24 211.396C125.24 211.271 125.188 211.094 125.146 210.886C125.053 210.396 124.917 209.73 124.75 208.887C124.438 207.158 123.959 204.649 123.51 201.525C122.583 195.278 121.791 186.615 121.333 177.004C121.221 174.735 121.117 172.527 121.02 170.382C121.02 169.341 120.916 168.3 120.874 167.259C120.874 166.748 120.822 166.217 120.791 165.728V164.978V164.614C120.791 164.562 120.791 164.499 120.791 164.447C120.788 164.427 120.788 164.406 120.791 164.385C120.753 164.396 120.714 164.396 120.676 164.385C120.676 164.385 120.572 164.385 120.582 164.385H120.832L124.719 161.646L124.938 161.49L124.698 161.376L120.332 159.47L120.416 159.627C120.792 157.907 121.081 156.169 121.28 154.42C121.478 152.89 121.666 151.567 121.874 150.505C122.083 149.443 122.312 148.61 122.479 148.069C122.562 147.809 122.635 147.6 122.687 147.444C122.739 147.288 122.75 147.226 122.739 147.226L122.646 147.423C122.593 147.569 122.5 147.767 122.406 148.038C122.125 148.834 121.899 149.648 121.729 150.474C121.489 151.515 121.28 152.859 121.062 154.389C120.843 155.92 120.603 157.659 120.145 159.533V159.637H120.249L124.49 161.626V161.355L120.561 164.135L120.801 164.187V164.135C120.766 164.101 120.719 164.082 120.671 164.082C120.622 164.082 120.576 164.101 120.541 164.135C120.536 164.156 120.536 164.177 120.541 164.197C120.538 164.239 120.538 164.281 120.541 164.322C120.536 164.388 120.536 164.454 120.541 164.52V164.905C120.541 165.155 120.541 165.405 120.541 165.666C120.541 166.165 120.541 166.707 120.624 167.196C120.666 168.224 120.707 169.265 120.749 170.32C120.853 172.402 120.957 174.672 121.062 176.932C121.396 185.15 122.161 193.345 123.354 201.483C123.833 204.607 124.396 207.106 124.709 208.834C124.907 209.667 125.063 210.334 125.167 210.813L125.303 211.323L125.24 211.583Z" fill="#263238"/>
<path d="M110.245 186.761L166.234 189.614C166.871 189.644 167.473 189.908 167.926 190.356C168.378 190.804 168.648 191.404 168.683 192.04L172.435 258.407C172.456 258.768 172.4 259.13 172.272 259.469C172.143 259.807 171.944 260.115 171.689 260.372C171.433 260.628 171.126 260.828 170.787 260.958C170.449 261.087 170.087 261.144 169.725 261.125L115.403 258.282C114.779 258.251 114.187 257.994 113.739 257.559C113.29 257.124 113.015 256.541 112.965 255.918L107.588 189.541C107.558 189.179 107.606 188.815 107.727 188.472C107.848 188.13 108.041 187.817 108.292 187.555C108.543 187.292 108.847 187.085 109.184 186.949C109.52 186.812 109.882 186.748 110.245 186.761Z" fill="#263238"/>
<path d="M98.4493 172.215C98.4662 172.415 98.4975 172.613 98.5431 172.808C98.6264 173.225 98.7306 173.798 98.8661 174.506C99.1683 176.005 99.5851 178.129 100.096 180.753C101.138 186.011 102.451 193.247 103.732 201.359C105.014 209.47 105.983 216.769 106.629 222.089C106.952 224.724 107.202 226.868 107.39 228.389C107.473 229.107 107.546 229.669 107.598 230.096C107.609 230.298 107.644 230.497 107.703 230.69C107.717 230.489 107.717 230.287 107.703 230.086C107.703 229.669 107.619 229.097 107.557 228.368C107.432 226.879 107.213 224.724 106.921 222.058C106.338 216.727 105.4 209.386 104.118 201.296C102.836 193.206 101.461 185.949 100.377 180.701C99.8352 178.077 99.335 175.953 99.0328 174.453C98.8765 173.745 98.7411 173.183 98.6473 172.777C98.5968 172.585 98.5305 172.397 98.4493 172.215Z" fill="#263238"/>
<path d="M109.099 230.221C109.099 230.221 105.879 230.398 103.024 235.177L97.5636 238.645C97.5636 238.645 92.791 246.141 97.5636 253.138C102.336 260.135 108.109 254.18 108.109 254.18C108.109 254.18 113.872 257.033 115.487 256.533C117.102 256.033 127.991 250.16 129.627 248.817C130.096 248.411 133.618 244.382 133.618 244.382C133.618 244.382 138.495 243.341 139.047 242.216C139.6 241.091 139.652 238.541 136.359 238.79C136.359 238.79 139.558 237.822 139.933 236.219C140.308 234.615 139.933 232.501 134.264 233.303C128.596 234.105 117.738 237.135 116.477 236.822C116.347 236.747 116.241 236.636 116.172 236.503C116.103 236.369 116.073 236.219 116.086 236.07C116.099 235.92 116.155 235.777 116.246 235.658C116.337 235.539 116.461 235.448 116.602 235.396C117.008 235.209 129.794 230.242 131.857 229.68C134.077 229.065 134.4 224.12 129.773 225.296C125.147 226.473 110.235 230.075 110.235 230.075L109.099 230.221Z" fill="#FFBF9D"/>
<path d="M117.529 249.192C118.335 249.003 119.129 248.763 119.905 248.474C121.353 247.995 123.365 247.36 125.605 246.704C127.845 246.048 129.877 245.517 131.357 245.131C132.167 244.965 132.964 244.742 133.743 244.465C133.523 244.466 133.302 244.49 133.087 244.538C132.66 244.611 132.045 244.725 131.305 244.892C129.804 245.204 127.752 245.704 125.501 246.36C123.25 247.016 121.249 247.693 119.822 248.234C119.103 248.505 118.53 248.724 118.134 248.901C117.921 248.974 117.719 249.072 117.529 249.192Z" fill="#FF9A6C"/>
<path d="M115.695 243.268C115.978 243.275 116.261 243.254 116.539 243.205C117.071 243.153 117.842 243.049 118.8 242.903C120.707 242.622 123.333 242.164 126.209 241.55C129.085 240.935 131.67 240.279 133.504 239.748C134.431 239.488 135.181 239.269 135.692 239.103C135.966 239.035 136.231 238.937 136.484 238.811C136.205 238.833 135.929 238.885 135.661 238.967L133.441 239.509C131.576 239.967 128.981 240.55 126.147 241.196C123.312 241.841 120.655 242.31 118.769 242.653L116.518 243.07C116.237 243.102 115.96 243.169 115.695 243.268Z" fill="#FF9A6C"/>
<path d="M100.179 241.987C100.179 241.987 100.179 242.195 100.179 242.57C100.198 243.103 100.268 243.633 100.387 244.153C101.127 247.649 103.163 250.737 106.087 252.795C106.521 253.103 106.977 253.378 107.453 253.617C107.625 253.716 107.811 253.79 108.005 253.836C108.005 253.774 107.296 253.388 106.233 252.587C103.467 250.466 101.496 247.477 100.638 244.101C100.304 242.809 100.242 241.977 100.179 241.987Z" fill="#FF9A6C"/>
<path d="M98.3659 254.971C98.3659 254.971 97.6678 254.2 96.8237 252.774C95.7091 250.928 95.0882 248.826 95.0207 246.671C94.9531 244.515 95.4412 242.379 96.4381 240.467C97.1988 238.999 97.897 238.228 97.8449 238.176C97.6492 238.327 97.4771 238.506 97.3343 238.707C96.9103 239.217 96.5336 239.764 96.2089 240.342C95.1238 242.274 94.5873 244.466 94.657 246.681C94.7268 248.895 95.4003 251.049 96.6049 252.909C96.9608 253.471 97.3691 253.997 97.8241 254.482C97.9767 254.673 98.1597 254.838 98.3659 254.971Z" fill="#263238"/>
<path d="M85.7572 231.148C85.7572 231.21 86.6638 230.534 88.2477 229.773C89.1837 229.329 90.1565 228.967 91.155 228.691C92.3688 228.359 93.6106 228.139 94.8647 228.035C96.1155 227.947 97.372 227.982 98.616 228.139C99.6369 228.271 100.644 228.49 101.628 228.795C103.295 229.326 104.264 229.836 104.295 229.836C104.089 229.676 103.865 229.539 103.628 229.43C103.368 229.278 103.096 229.145 102.815 229.034C102.453 228.866 102.081 228.72 101.7 228.597C100.716 228.249 99.7009 227.998 98.6681 227.847C96.1218 227.477 93.5253 227.669 91.0612 228.409C90.0629 228.715 89.0963 229.116 88.1747 229.607C87.8146 229.785 87.4665 229.987 87.1327 230.211C86.8728 230.361 86.6253 230.531 86.3929 230.721C86.1643 230.837 85.9508 230.98 85.7572 231.148Z" fill="#263238"/>
<g opacity="0.3">
<path d="M122.354 148.517C122.354 148.517 117.633 159.512 118.29 160.428C118.946 161.345 121.416 162.001 121.416 162.001C121.416 162.001 117.352 163.75 117.352 165.312C117.352 168.435 121.708 186.802 121.708 186.802L120.666 164.354L124.563 161.626L120.322 159.647L122.354 148.517Z" fill="black"/>
</g>
<path d="M236.958 204.618C236.958 204.618 243.669 195.871 245.294 192.8C246.552 190.283 248.396 188.104 250.671 186.448C253.276 184.366 260.456 179.285 263.051 179.597C265.646 179.909 275.899 178.702 275.899 178.702L268.167 190.832C268.167 190.832 270.501 199.297 268.688 201.244C266.875 203.191 267.125 202.702 264.52 203.545C261.915 204.389 252.182 204.951 252.016 205.232C251.849 205.513 246.42 214.113 246.42 214.113L236.958 204.618Z" fill="#FFBF9D"/>
<path d="M269.949 184.959L296.188 170.434L296.969 168.873C296.999 168.814 297.013 168.749 297.011 168.683C297.009 168.617 296.991 168.553 296.958 168.496C296.925 168.439 296.878 168.391 296.822 168.357C296.766 168.323 296.702 168.303 296.636 168.3L294.948 168.206L268.72 182.783L269.949 184.959Z" fill="#263238"/>
<path d="M282.256 176.161C282.256 176.161 280.172 175.359 278.536 178.171C277.583 179.779 276.716 181.437 275.941 183.137C275.306 183.31 274.663 183.449 274.013 183.554L271.429 187.146L272.2 189.416C272.2 189.416 277.462 188.458 278.452 186.927C280.098 183.934 281.469 180.797 282.547 177.556C282.725 176.401 282.256 176.161 282.256 176.161Z" fill="#FFBF9D"/>
<path d="M264.791 197.058L265.833 195.142L264.009 193.227C264.009 193.227 260.362 194.653 258.956 192.987C257.549 191.321 257.913 191.165 257.913 191.165L262.717 189.478L259.747 188.906C259.747 188.906 255.798 190.499 254.902 188.177L255.048 186.771C256.831 186.177 258.656 185.718 260.508 185.397C262.945 185.393 265.379 185.518 267.802 185.772L262.738 184.46C261.669 184.639 260.574 184.604 259.518 184.355C259.314 184.29 259.126 184.181 258.968 184.036C258.81 183.89 258.686 183.712 258.605 183.513C258.523 183.315 258.486 183.101 258.496 182.887C258.507 182.672 258.564 182.463 258.664 182.273C258.816 181.989 259.058 181.762 259.352 181.627C260.6 181.022 261.936 180.618 263.311 180.43C265.083 180.316 271.033 181.076 272.554 182.346C274.076 183.616 274.305 184.231 273.878 185.803C273.334 187.301 272.635 188.739 271.794 190.093C271.814 191.284 271.535 192.462 270.981 193.518C270.981 193.518 272.023 197.038 268.751 201.213" fill="#FFBF9D"/>
<path d="M268.72 201.192C268.856 201.063 268.978 200.92 269.084 200.765C269.423 200.34 269.726 199.887 269.991 199.412C270.424 198.652 270.756 197.84 270.981 196.996C271.298 195.842 271.345 194.63 271.116 193.456V193.602C271.724 192.527 272.027 191.306 271.992 190.072V190.186C272.481 189.385 272.971 188.541 273.43 187.625C273.977 186.67 274.295 185.6 274.357 184.501C274.292 183.872 273.991 183.292 273.513 182.877C273.107 182.423 272.628 182.039 272.096 181.742C270.971 181.246 269.787 180.896 268.574 180.701C267.313 180.455 266.04 180.282 264.76 180.18C264.084 180.108 263.403 180.108 262.728 180.18C262.05 180.302 261.384 180.483 260.737 180.722C260.404 180.833 260.081 180.958 259.768 181.096C259.393 181.213 259.041 181.393 258.726 181.628C258.414 181.91 258.212 182.294 258.155 182.711C258.098 183.128 258.189 183.552 258.414 183.908C258.64 184.271 258.993 184.538 259.404 184.657C259.768 184.756 260.142 184.819 260.519 184.845C261.259 184.905 262.004 184.877 262.738 184.762H262.613L264.697 185.303L267.688 186.074L267.792 185.48C265.531 185.282 263.322 185.084 261.133 185.084C260.049 185.141 258.975 185.326 257.934 185.636C256.892 185.907 255.934 186.198 254.965 186.521H254.798V186.709C254.746 187.177 254.704 187.646 254.652 188.114V188.177V188.239C254.844 188.738 255.215 189.147 255.694 189.385C256.149 189.588 256.644 189.684 257.142 189.666C258.061 189.636 258.967 189.446 259.82 189.103H259.675L262.655 189.655V189.187L259.07 190.467L258.237 190.769L258.028 190.842H257.934H257.882C257.843 190.86 257.808 190.884 257.778 190.915C257.601 191.28 257.778 191.384 257.778 191.54C258.044 192.041 258.374 192.506 258.758 192.925C259.121 193.346 259.617 193.632 260.164 193.737C260.645 193.829 261.136 193.851 261.623 193.799C262.458 193.715 263.279 193.519 264.062 193.216H263.916L265.76 195.101V194.986L265.01 196.465C264.922 196.621 264.849 196.785 264.791 196.954C264.791 196.954 264.906 196.819 265.093 196.507L265.927 195.08V195.018H265.875L264.135 193.123L264.072 193.06H263.978C263.215 193.331 262.42 193.502 261.613 193.57C261.158 193.649 260.691 193.618 260.251 193.48C259.811 193.342 259.41 193.102 259.081 192.779C258.731 192.383 258.43 191.946 258.184 191.477C258.181 191.425 258.181 191.373 258.184 191.321C258.184 191.259 258.184 191.321 258.059 191.217C257.976 191.092 258.164 191.373 258.143 191.352H258.247L258.455 191.28L259.289 190.988L262.884 189.749L263.739 189.457L262.842 189.28L259.873 188.697H259.81H259.727C258.935 189.007 258.096 189.176 257.247 189.197C256.846 189.252 256.439 189.182 256.08 188.995C255.722 188.809 255.43 188.515 255.246 188.156V188.281C255.295 187.823 255.347 187.354 255.402 186.875L255.204 187.115C256.163 186.813 257.142 186.521 258.143 186.261C259.14 185.968 260.168 185.793 261.206 185.74C263.29 185.74 265.552 185.949 267.803 186.146L267.907 185.553L264.906 184.772L262.822 184.241H262.759H262.697C262.008 184.353 261.308 184.381 260.612 184.324C260.277 184.305 259.945 184.249 259.622 184.158C259.488 184.123 259.361 184.062 259.25 183.978C259.139 183.894 259.046 183.789 258.976 183.668C258.825 183.431 258.764 183.148 258.802 182.87C258.84 182.592 258.976 182.336 259.185 182.148C259.436 181.966 259.714 181.822 260.008 181.721L260.946 181.357C261.56 181.134 262.191 180.96 262.832 180.836C263.462 180.768 264.098 180.768 264.729 180.836C265.987 180.927 267.24 181.091 268.48 181.326C269.648 181.529 270.786 181.879 271.867 182.367C272.349 182.64 272.782 182.992 273.148 183.408C273.523 183.75 273.76 184.216 273.815 184.72C273.749 185.736 273.457 186.725 272.961 187.615C272.523 188.52 272.054 189.364 271.585 190.155V190.207V190.27C271.63 191.423 271.371 192.568 270.835 193.591V193.654V193.737C271.067 194.852 271.046 196.005 270.772 197.11C270.575 197.946 270.274 198.754 269.876 199.516C269.168 200.578 268.667 201.161 268.72 201.192Z" fill="#FF9A6C"/>
<path d="M263.405 197.996C262.889 197.469 262.277 197.045 261.602 196.746C260.039 195.904 258.361 195.294 256.621 194.934C254.881 194.577 253.099 194.468 251.328 194.612C250.589 194.632 249.859 194.78 249.171 195.049C249.171 195.247 252.516 194.684 256.465 195.528C260.414 196.371 263.311 198.173 263.405 197.996Z" fill="#FF9A6C"/>
<path d="M262.342 189.489C262.342 189.593 262.936 189.385 263.843 189.301C265.021 189.227 266.19 189.545 267.167 190.207C268.157 190.898 269.072 191.69 269.897 192.571C270.554 193.248 270.991 193.612 271.054 193.612C271.116 193.612 270.804 193.06 270.22 192.31C269.458 191.303 268.535 190.427 267.49 189.718C266.404 188.979 265.077 188.684 263.78 188.895C262.811 189.124 262.311 189.437 262.342 189.489Z" fill="#FF9A6C"/>
<path d="M267.573 185.73C268.454 186.179 269.273 186.739 270.012 187.396C271.168 188.562 271.731 189.822 271.898 189.749C271.79 188.671 271.272 187.675 270.449 186.969C269.921 186.41 269.257 185.997 268.522 185.772C267.959 185.605 267.584 185.657 267.573 185.73Z" fill="#FF9A6C"/>
<path d="M200.924 154.91L205.738 162.896L222.599 210.917L238.386 194.622L254.756 210.917C254.756 210.917 234.822 237.697 231.393 241.987C225.912 248.838 210.636 248.39 205.134 236.208C200.413 225.796 196.798 218.684 196.798 218.684L197.704 198.433L200.924 154.91Z" fill="#3B82F6"/>
<path d="M199.017 173.641C199.029 173.738 199.029 173.836 199.017 173.933V174.787C199.017 175.568 198.934 176.671 198.882 178.056C198.746 180.951 198.538 185.053 198.298 190.113C197.746 200.317 196.996 214.353 196.162 229.857C195.828 235.729 195.505 241.383 195.214 246.589V246.464L207.333 272.13L210.792 279.575L211.699 281.574C211.816 281.8 211.91 282.037 211.98 282.282C211.98 282.282 211.845 282.053 211.615 281.616L210.636 279.648L207.041 272.276C203.977 265.914 199.747 257.012 194.745 246.683V246.61C195.037 241.404 195.349 235.75 195.672 229.878C196.568 214.384 197.371 200.349 197.965 190.145C198.288 185.084 198.538 180.982 198.725 178.098C198.819 176.713 198.903 175.62 198.955 174.828C198.955 174.485 199.017 174.204 199.028 173.975C199.003 173.865 198.999 173.752 199.017 173.641Z" fill="#263238"/>
<path d="M220.452 226.608C220.335 225.84 220.317 225.059 220.4 224.286C220.452 222.86 220.608 220.881 220.9 218.716C221.192 216.55 221.577 214.603 221.942 213.208C222.067 212.441 222.295 211.695 222.619 210.99C222.776 210.99 222.057 214.478 221.473 218.789C220.89 223.099 220.608 226.608 220.452 226.608Z" fill="#263238"/>
<path d="M180.104 81.1499C180.104 81.1499 186.544 105.192 187.096 122.205L187.284 127.869C187.284 127.869 173.081 139.646 161.17 140.364L151.187 115.833L180.104 81.1499Z" fill="#263238"/>
<path d="M117.039 95.8936C119.749 84.1695 120.801 70.5295 130.586 62.8766C137.828 57.2019 146.081 55.5881 155.272 56.0045C159.794 56.2024 164.911 58.2848 168.819 60.513C174.227 63.5742 176.519 69.7799 179.124 75.4129C184.335 86.6997 183.689 101.974 180.166 106.223L132.951 131.128C123.521 126.235 117.623 124.277 116.112 111.731C115.502 106.438 115.816 101.079 117.039 95.8936Z" fill="#263238"/>
<path d="M131.055 72.1955L160.764 63.4388C170.33 62.0436 177.186 73.6219 178.176 83.222C179.27 93.8945 180.187 106.983 179.218 115.021C177.301 131.181 165.057 133.711 165.057 133.711L165.14 140.187L151.594 154.545L130.919 140.739L126.189 78.1096C126.112 76.6942 126.569 75.3015 127.47 74.2066C128.371 73.1116 129.65 72.394 131.055 72.1955Z" fill="#FFBF9D"/>
<path d="M175.363 99.8294C175.384 100.363 175.198 100.885 174.845 101.286C174.492 101.687 173.999 101.937 173.466 101.985C173.205 102.017 172.94 101.996 172.687 101.923C172.434 101.851 172.198 101.729 171.993 101.564C171.788 101.399 171.618 101.194 171.493 100.963C171.369 100.731 171.292 100.477 171.267 100.215C171.247 99.6809 171.432 99.1596 171.785 98.7585C172.138 98.3573 172.632 98.107 173.164 98.0594C173.426 98.0261 173.691 98.046 173.945 98.1177C174.198 98.1894 174.435 98.3116 174.64 98.4769C174.846 98.6422 175.015 98.8471 175.14 99.0795C175.264 99.3119 175.34 99.567 175.363 99.8294Z" fill="#263238"/>
<path d="M176.207 92.9157C175.967 93.1969 174.352 92.1036 172.132 92.1973C169.913 92.291 168.339 93.4572 168.089 93.2385C167.839 93.0199 168.204 92.6242 168.892 92.0828C169.826 91.3808 170.954 90.9844 172.122 90.9478C173.274 90.9013 174.411 91.2182 175.373 91.8537C176.082 92.291 176.332 92.7908 176.207 92.9157Z" fill="#263238"/>
<path d="M156.335 99.8294C156.356 100.365 156.169 100.888 155.814 101.289C155.459 101.69 154.962 101.94 154.428 101.985C154.167 102.016 153.902 101.996 153.649 101.923C153.395 101.851 153.159 101.729 152.954 101.564C152.75 101.399 152.58 101.194 152.455 100.963C152.331 100.731 152.254 100.477 152.229 100.215C152.209 99.6793 152.395 99.1565 152.75 98.7551C153.106 98.3537 153.602 98.1045 154.136 98.0593C154.397 98.0276 154.662 98.0485 154.916 98.1208C155.169 98.1931 155.405 98.3154 155.61 98.4804C155.815 98.6454 155.984 98.8498 156.109 99.0815C156.234 99.3132 156.31 99.5675 156.335 99.8294Z" fill="#263238"/>
<path d="M154.386 93.176C154.136 93.4571 152.531 92.3638 150.312 92.4576C148.092 92.5513 146.508 93.7174 146.258 93.4988C146.008 93.2801 146.383 92.8845 147.071 92.343C148.005 91.641 149.133 91.2446 150.301 91.2081C151.453 91.1629 152.59 91.4798 153.553 92.114C154.251 92.5721 154.501 93.051 154.386 93.176Z" fill="#263238"/>
<path d="M163.056 107.545C164.21 107.135 165.411 106.869 166.63 106.753C167.203 106.67 167.735 106.545 167.808 106.15C167.841 105.565 167.687 104.986 167.37 104.494C166.773 103.106 166.158 101.69 165.526 100.246C162.952 94.1963 161.076 89.2193 161.358 89.1152C161.639 89.0111 163.879 93.8319 166.453 99.8814L168.225 104.15C168.606 104.819 168.742 105.6 168.61 106.358C168.536 106.563 168.416 106.749 168.259 106.9C168.102 107.052 167.912 107.166 167.704 107.232C167.395 107.326 167.077 107.382 166.755 107.399C165.534 107.605 164.29 107.654 163.056 107.545Z" fill="#263238"/>
<path d="M165.14 133.721C157.574 134.13 150.043 132.436 143.382 128.827C143.382 128.827 149.145 139.854 165.171 137.719L165.14 133.721Z" fill="#FF9A6C"/>
<path d="M155.835 112.47C156.109 112.015 156.491 111.635 156.947 111.363C157.403 111.09 157.92 110.934 158.45 110.908C159.195 110.822 159.949 110.938 160.633 111.244C161.317 111.55 161.905 112.035 162.337 112.647C162.646 113.22 162.732 113.888 162.577 114.521C162.452 114.844 162.577 114.677 162.316 114.906C161.52 115.794 160.518 116.473 159.399 116.885C158.793 117.064 158.147 117.055 157.546 116.86C156.945 116.665 156.417 116.292 156.033 115.791C155.698 115.309 155.502 114.744 155.467 114.158C155.432 113.572 155.559 112.988 155.835 112.47Z" fill="#FF9A6C"/>
<path d="M156.158 109.429C156.522 109.429 156.637 111.803 158.773 113.417C160.909 115.031 163.462 114.646 163.494 114.99C163.494 115.135 162.941 115.479 161.858 115.552C160.451 115.645 159.057 115.231 157.929 114.386C156.821 113.585 156.073 112.38 155.845 111.033C155.762 109.992 155.991 109.429 156.158 109.429Z" fill="#263238"/>
<path d="M155.22 85.0649C155.064 85.6792 152.834 85.6167 150.27 86.179C147.707 86.7412 145.675 87.6471 145.279 87.1473C145.102 86.9078 145.414 86.3039 146.206 85.6375C147.263 84.8155 148.494 84.2456 149.806 83.9713C151.117 83.697 152.473 83.7256 153.771 84.0549C154.72 84.3464 155.293 84.7629 155.22 85.0649Z" fill="#263238"/>
<path d="M176.019 86.9495C175.519 87.3869 173.935 86.6268 171.851 86.304C169.767 85.9812 168.048 86.0957 167.683 85.5127C167.547 85.2419 167.891 84.7838 168.725 84.4714C169.837 84.0319 171.051 83.9163 172.226 84.1383C173.387 84.3276 174.47 84.84 175.352 85.6168C176.092 86.179 176.248 86.7309 176.019 86.9495Z" fill="#263238"/>
<path d="M160.868 61.7103C160.868 61.8242 160.868 61.9382 160.94 62.0521H160.889C160.878 61.9589 160.868 61.8346 160.868 61.7103Z" fill="#263238"/>
<path d="M137.391 139.448C137.75 139.548 138.125 139.573 138.495 139.521C138.864 139.469 139.218 139.341 139.535 139.145C139.852 138.95 140.126 138.691 140.337 138.384C140.549 138.078 140.696 137.731 140.767 137.365C141.273 134.131 141.302 130.841 140.85 127.599C140.329 123.132 137.297 118.467 136.922 113.99C136.203 105.452 136.922 100.662 137.964 93.4987C142.057 92.8199 145.762 90.6727 148.384 87.4597C151.604 83.7113 153.594 79.057 155.46 74.4861C155.335 79.0042 153.806 83.3713 151.083 86.9807C151.987 87.1184 152.911 87.0433 153.782 86.7613C154.652 86.4793 155.444 85.9982 156.095 85.3564C157.385 84.0555 158.386 82.4981 159.034 80.7855C160.777 76.7179 161.742 72.3597 161.879 67.9368C162.481 74.2609 161.771 80.641 159.795 86.6788C160.954 86.4695 162.145 86.5157 163.285 86.8141C163.857 86.9601 164.454 86.9722 165.03 86.8494C165.607 86.7265 166.148 86.4722 166.61 86.1061C167.103 85.5104 167.42 84.7894 167.526 84.0236C168.635 78.6412 168.815 73.1091 168.058 67.6661C169.582 70.5574 170.818 73.5916 171.747 76.7247C172.674 79.8795 172.695 83.2311 171.809 86.3976C172.078 86.6572 172.436 86.8023 172.81 86.8023C173.183 86.8023 173.542 86.6572 173.81 86.3976C174.32 85.841 174.628 85.1298 174.685 84.3777C174.961 81.6529 174.781 78.9013 174.154 76.2353C175.759 79.0883 176.301 82.3889 177.186 85.5334C178.072 88.6779 179.489 91.9057 182.23 93.6966C182.688 89.5891 182.551 85.437 181.823 81.3685C181.084 77.9559 179.867 74.6645 178.207 71.5915C176.64 68.1755 174.425 65.0956 171.684 62.5225C166.953 58.3576 164.973 60.1589 161.952 61.7416L161.587 61.8873C161.587 61.8145 161.587 61.7416 161.587 61.6687L161.451 61.0231C153.514 59.2304 145.24 59.6007 137.495 62.0956C131.795 63.9594 131.242 76.2249 129.888 70.4253C129.044 66.8956 124.469 70.1234 124.407 70.2171C117.685 82.3473 110.558 101.568 110.224 131.951L137.391 139.448Z" fill="#263238"/>
<path d="M136.87 109.888C138.352 112.51 140.485 114.707 143.064 116.266C145.643 117.825 148.581 118.695 151.594 118.79C151.752 118.77 151.898 118.693 152.004 118.573C152.109 118.453 152.168 118.299 152.168 118.139C152.168 117.98 152.109 117.825 152.004 117.705C151.898 117.586 151.752 117.509 151.594 117.488C148.817 117.385 146.114 116.572 143.742 115.126C141.37 113.681 139.409 111.651 138.047 109.232C137.641 108.492 136.515 109.148 136.922 109.888H136.87Z" fill="#E0E0E0"/>
<path d="M153.355 121.268L150.479 120.82C150.145 120.768 149.825 120.651 149.537 120.475C149.249 120.299 148.999 120.068 148.8 119.796C148.602 119.523 148.459 119.213 148.38 118.885C148.302 118.557 148.289 118.217 148.342 117.884C148.448 117.21 148.816 116.606 149.367 116.204C149.918 115.801 150.607 115.634 151.281 115.739L154.147 116.187C154.82 116.295 155.423 116.664 155.825 117.213C156.227 117.763 156.395 118.45 156.293 119.123C156.185 119.796 155.816 120.398 155.266 120.8C154.715 121.202 154.029 121.37 153.355 121.268Z" fill="#3B82F6"/>
<path d="M130.982 117.332C137.508 117.332 142.799 112.046 142.799 105.525C142.799 99.0038 137.508 93.7174 130.982 93.7174C124.456 93.7174 119.165 99.0038 119.165 105.525C119.165 112.046 124.456 117.332 130.982 117.332Z" fill="#3B82F6"/>
<path d="M127.7 95.4146C127.7 95.4146 125.615 67.2392 145.237 56.5355L150.552 55.9524C150.552 55.9524 130.284 67.3017 134.525 98.0489L127.7 95.4146Z" fill="#3B82F6"/>
</svg>
