<svg width="270" height="350" viewBox="0 0 270 350" fill="none" xmlns="http://www.w3.org/2000/svg">
<path d="M237.515 47.149L231.955 46.3432L233.186 39.1824C235.47 25.9854 226.894 13.7981 214.086 11.885C201.278 9.97187 188.986 19.2664 186.702 32.4634L185.471 39.6242L179.888 38.8178C177.731 38.564 175.559 39.1499 173.823 40.4539C172.088 41.7579 170.922 43.6796 170.569 45.8195L162.514 92.3885C162.307 93.4307 162.311 94.5039 162.528 95.5442C162.744 96.5846 163.167 97.571 163.773 98.4448C164.379 99.3185 165.154 100.062 166.053 100.63C166.952 101.199 167.956 101.582 169.006 101.755L226.632 110.086C228.813 110.354 231.012 109.767 232.767 108.449C234.523 107.13 235.698 105.184 236.046 103.018L244.091 56.4443C244.29 55.4009 244.277 54.3281 244.051 53.2901C243.826 52.2521 243.393 51.27 242.78 50.4025C242.166 49.5349 241.383 48.7997 240.479 48.2408C239.574 47.6818 238.566 47.3105 237.515 47.149ZM197.222 33.9554C197.781 30.5052 199.655 27.4047 202.452 25.3034C205.249 23.2021 208.751 22.2632 212.226 22.6832C213.911 22.9505 215.523 23.5538 216.969 24.457C218.415 25.3603 219.663 26.5451 220.64 27.9406C221.617 29.3361 222.302 30.9138 222.655 32.5796C223.008 34.2453 223.022 35.965 222.695 37.636L221.455 44.792L195.982 41.1114L197.222 33.9554ZM205.762 83.5822L203.707 95.4724C203.66 95.7079 203.525 95.9163 203.328 96.0543C203.131 96.1924 202.889 96.2495 202.651 96.2137L197.114 95.4084C196.902 95.3617 196.716 95.2346 196.595 95.0538C196.474 94.8731 196.428 94.6526 196.466 94.4387L198.47 82.5795C196.677 81.5018 195.256 79.9028 194.397 77.9965C193.539 76.0902 193.285 73.9676 193.668 71.9129C194.115 69.1651 195.61 66.6965 197.839 65.0242C200.068 63.3518 202.858 62.6053 205.626 62.9409C206.967 63.1544 208.252 63.6353 209.403 64.3549C210.554 65.0746 211.548 66.0183 212.327 67.1298C213.105 68.2413 213.651 69.4978 213.932 70.8245C214.214 72.1511 214.225 73.5208 213.965 74.8518C213.599 76.9513 212.627 78.8985 211.169 80.4548C209.712 82.0112 207.831 83.1092 205.757 83.6142L205.762 83.5822Z" fill="#3B82F6"/>
<path d="M231.804 46.1238C231.737 46.2507 221.342 44.9176 208.504 43.0819C195.667 41.2461 185.222 39.7008 185.224 39.5861C185.227 39.4715 195.682 40.8013 208.533 42.6329C221.384 44.4644 231.821 45.982 231.804 46.1238Z" fill="#263238"/>
<path d="M241.212 53.2378C241.21 53.3376 241.2 53.4371 241.182 53.5353C241.158 53.755 241.115 54.0338 241.07 54.3815C240.955 55.168 240.796 56.2562 240.598 57.6143L238.707 69.5909C237.879 74.6552 236.91 80.6659 235.833 87.3394C235.235 90.6563 234.738 94.1776 234.087 97.8145C233.771 99.6992 233.106 101.509 232.127 103.15C231.584 103.987 230.882 104.707 230.059 105.272C229.21 105.818 228.264 106.196 227.271 106.385C225.326 106.665 223.349 106.634 221.414 106.292L215.85 105.496L205.321 103.976L187.506 101.376L175.5 99.5732L172.296 99.0386L171.445 98.89C171.349 98.8834 171.255 98.8611 171.166 98.8238C171.166 98.8238 171.239 98.8622 171.451 98.8351L172.308 98.9288L175.574 99.3455L187.603 100.974L205.448 103.451L215.973 104.934L221.543 105.722C223.419 106.06 225.338 106.092 227.225 105.815C228.148 105.641 229.028 105.291 229.818 104.784C230.585 104.266 231.238 103.596 231.735 102.815C232.681 101.235 233.322 99.4913 233.626 97.6751C234.281 94.075 234.828 90.5458 235.399 87.2144C236.517 80.5511 237.487 74.5174 238.387 69.4916C239.287 64.4657 239.958 60.398 240.448 57.5465C240.697 56.1575 240.897 55.0794 241.017 54.2839L241.184 53.4436C241.186 53.3742 241.195 53.3052 241.212 53.2378Z" fill="#263238"/>
<path d="M222.285 27.2153C222.285 27.2153 221.929 26.7251 221.231 25.8919C220.222 24.7346 219.024 23.7555 217.688 22.9956C215.712 21.8619 213.509 21.1799 211.237 20.9987C208.463 20.8016 205.689 21.3897 203.234 22.6954C200.772 23.9904 198.757 25.9936 197.45 28.4455C196.401 30.4672 195.646 32.6277 195.207 34.862C194.804 36.7612 194.596 38.3347 194.437 39.4229C194.383 39.9898 194.287 40.552 194.149 41.1046C194.122 40.5335 194.15 39.961 194.231 39.3951C194.34 38.2919 194.487 36.7216 194.841 34.7845C195.228 32.4966 195.954 30.2792 196.996 28.2053C198.324 25.6453 200.407 23.5546 202.965 22.2164C205.507 20.8618 208.386 20.2657 211.259 20.4991C213.59 20.7064 215.843 21.4456 217.843 22.6597C219.193 23.4643 220.384 24.5077 221.359 25.739C221.616 26.0754 221.847 26.4305 222.051 26.8014C222.15 26.9264 222.229 27.066 222.285 27.2153Z" fill="#263238"/>
<path d="M203.881 62.8998C204.072 62.8888 204.264 62.8934 204.455 62.9134C205.018 62.9491 205.577 63.0313 206.126 63.1593C207.011 63.3387 207.871 63.6224 208.689 64.0045C209.803 64.5197 210.801 65.2568 211.62 66.1706C213.511 68.2158 214.388 71.7099 213.763 75.43C213.367 77.3945 212.408 79.2019 211.002 80.6321C209.464 82.1781 207.571 83.3244 205.487 83.9705L205.671 83.7546C205.123 87.7014 204.534 91.9867 203.909 96.4502L203.871 96.7199L203.6 96.6814L201.156 96.2704L195.814 95.3825L195.549 95.3349L195.597 95.0699C196.344 90.6599 196.839 86.4412 197.637 82.4636L197.754 82.7233C196.058 81.6373 194.719 80.077 193.904 78.2368C193.155 76.5939 192.774 74.8077 192.787 73.0027C192.788 71.3959 193.202 69.8162 193.989 68.4152C194.801 66.9869 195.919 65.7555 197.264 64.8092C198.608 63.8629 200.145 63.2251 201.766 62.9416C202.441 62.8087 203.134 62.7833 203.817 62.8662C203.143 62.8986 202.471 62.9654 201.804 63.0664C199.979 63.4642 198.286 64.3232 196.888 65.561C195.773 66.4625 194.872 67.5992 194.25 68.8894C193.628 70.1797 193.299 71.5915 193.288 73.0237C193.29 74.7684 193.673 76.4918 194.409 78.0743C195.188 79.8261 196.467 81.31 198.085 82.3412L198.239 82.4228L198.213 82.5828C197.422 86.4825 196.922 90.7332 196.182 95.171L195.96 94.8675L201.302 95.7553L203.742 96.1525L203.433 96.3838C204.067 91.9252 204.669 87.6356 205.227 83.6937L205.299 83.5577L205.465 83.5066C207.48 82.896 209.317 81.8093 210.82 80.3387C212.164 78.9698 213.081 77.2416 213.461 75.3632C214.088 71.7945 213.272 68.4029 211.49 66.4153C210.71 65.5191 209.757 64.7896 208.687 64.2706C207.893 63.8736 207.057 63.5676 206.195 63.3583C204.664 62.978 203.866 62.9499 203.881 62.8998Z" fill="#263238"/>
<path d="M56.7458 230.246L54.2452 235.051L48.0966 231.657C36.7699 225.389 22.9182 229.328 17.1056 240.381C11.293 251.434 15.8791 265.576 27.2058 271.844L33.3544 275.238L30.8459 280.065C29.9294 281.948 29.775 284.112 30.4149 286.106C31.0547 288.1 32.4396 289.772 34.2817 290.773L74.252 312.889C75.138 313.409 76.1195 313.745 77.1383 313.879C78.157 314.012 79.1922 313.94 80.1824 313.666C81.1725 313.392 82.0974 312.922 82.9021 312.284C83.7067 311.646 84.3748 310.853 84.8665 309.952L110.766 260.133C111.703 258.233 111.865 256.044 111.218 254.028C110.572 252.011 109.167 250.323 107.299 249.319L67.3219 227.209C66.4322 226.697 65.4483 226.368 64.4288 226.244C63.4093 226.12 62.3752 226.202 61.3881 226.485C60.4011 226.768 59.4813 227.248 58.6837 227.894C57.8861 228.54 57.2271 229.34 56.7458 230.246ZM31.9077 262.74C28.9342 261.137 26.6976 258.446 25.6665 255.233C24.6354 252.019 24.8898 248.532 26.3764 245.502C27.1551 244.053 28.218 242.776 29.5017 241.747C30.7855 240.718 32.2637 239.957 33.8482 239.511C35.4327 239.064 37.0911 238.941 38.7243 239.149C40.3575 239.356 41.9322 239.89 43.3543 240.718L49.4955 244.119L38.0489 266.141L31.9077 262.74ZM79.9381 270.719L90.144 276.365C90.3441 276.482 90.4913 276.672 90.555 276.895C90.6186 277.118 90.5938 277.357 90.4857 277.562L87.9928 282.347C87.8827 282.526 87.7075 282.655 87.5041 282.707C87.3007 282.76 87.0848 282.732 86.9016 282.629L76.7077 277.04C75.1543 278.331 73.243 279.117 71.2297 279.293C69.2164 279.469 67.1973 279.027 65.4426 278.026C63.0751 276.747 61.2953 274.602 60.4756 272.042C59.6558 269.482 59.8599 266.704 61.045 264.291C61.6657 263.138 62.5126 262.121 63.5352 261.301C64.5578 260.482 65.7352 259.876 66.9972 259.52C68.2592 259.165 69.5801 259.066 70.8809 259.231C72.1818 259.396 73.4361 259.821 74.5691 260.48C76.3701 261.48 77.8399 262.983 78.7984 264.804C79.757 266.625 80.1626 268.686 79.9657 270.734L79.9381 270.719Z" fill="#3B82F6"/>
<path d="M53.997 235.119C54.0915 235.221 49.5745 244.262 43.8231 255.366C38.0718 266.471 33.345 275.49 33.2412 275.451C33.1374 275.413 37.6705 266.316 43.4223 255.198C49.1742 244.079 53.8729 235.059 53.997 235.119Z" fill="#263238"/>
<path d="M63.4799 228.812C63.5705 228.845 63.6582 228.886 63.7421 228.934C63.9352 229.025 64.1761 229.153 64.4793 229.304C65.161 229.659 66.1043 230.149 67.2818 230.76L77.6184 236.285C81.9805 238.646 87.1618 241.436 92.9142 244.535C95.7535 246.133 98.8114 247.703 101.926 249.45C103.547 250.336 104.988 251.516 106.176 252.929C106.768 253.688 107.203 254.556 107.457 255.484C107.687 256.431 107.732 257.413 107.589 258.376C107.228 260.236 106.571 262.026 105.646 263.679L103.152 268.492L98.4218 277.595L90.3924 292.988L84.9354 303.347L83.4302 306.095L83.0243 306.822C82.9878 306.908 82.9375 306.986 82.8753 307.055C82.8753 307.055 82.9334 307.001 82.976 306.8L83.3336 306.049L84.751 303.207L90.0565 292.773L97.9831 277.313L102.678 268.201L105.165 263.381C106.07 261.78 106.708 260.043 107.054 258.237C107.188 257.342 107.148 256.429 106.936 255.549C106.706 254.686 106.301 253.879 105.746 253.179C104.603 251.816 103.214 250.679 101.652 249.826C98.5727 248.086 95.5236 246.468 92.6624 244.891C86.9324 241.757 81.7303 238.959 77.4264 236.544C73.1224 234.129 69.6206 232.227 67.1722 230.875C65.9828 230.208 65.0618 229.683 64.3734 229.322L63.659 228.903C63.5962 228.879 63.5361 228.849 63.4799 228.812Z" fill="#263238"/>
<path d="M33.7078 237.784C33.7078 237.784 33.1472 237.952 32.165 238.323C30.7876 238.875 29.5132 239.654 28.3953 240.629C26.7328 242.068 25.4107 243.857 24.5241 245.868C23.4634 248.332 23.1199 251.044 23.5329 253.694C23.9343 256.345 25.1241 258.816 26.9481 260.785C28.4615 262.381 30.1947 263.755 32.0958 264.863C33.7021 265.834 35.0732 266.522 36.0166 267.012C36.5171 267.241 36.9999 267.507 37.4609 267.808C36.9307 267.651 36.4167 267.445 35.9257 267.191C34.9528 266.742 33.5656 266.109 31.9089 265.172C29.9423 264.094 28.1478 262.729 26.5847 261.122C24.6683 259.1 23.4205 256.539 23.0102 253.786C22.5802 251.042 22.9497 248.231 24.0745 245.69C25.004 243.633 26.3941 241.817 28.1378 240.381C29.3009 239.408 30.632 238.654 32.0658 238.158C32.4546 238.031 32.8523 237.933 33.2557 237.865C33.4012 237.815 33.5538 237.787 33.7078 237.784Z" fill="#263238"/>
<path d="M60.4533 265.867C60.504 265.689 60.5691 265.516 60.6479 265.348C60.8592 264.847 61.1118 264.364 61.4031 263.905C61.8477 263.156 62.3799 262.463 62.9883 261.84C63.8126 260.989 64.8024 260.315 65.8968 259.859C68.3647 258.787 71.8341 259.097 75.0327 260.848C76.7011 261.832 78.0471 263.279 78.907 265.013C79.8308 266.903 80.2764 268.991 80.205 271.094L80.0664 270.857C83.4965 272.609 87.2231 274.506 91.1008 276.492L91.3349 276.612L91.214 276.846L90.0627 278.941L87.5563 283.522L87.4287 283.749L87.2018 283.621C83.4118 281.541 79.7164 279.751 76.3371 277.762L76.6117 277.737C75.0814 278.937 73.2316 279.661 71.2924 279.818C69.5543 279.979 67.8022 279.759 66.158 279.174C64.6909 278.663 63.3797 277.785 62.3504 276.623C61.3037 275.43 60.5341 274.021 60.0967 272.497C59.6593 270.973 59.5648 269.371 59.8202 267.806C59.9132 267.148 60.1098 266.51 60.4025 265.914C60.2182 266.538 60.0659 267.171 59.9463 267.81C59.7302 269.598 59.9772 271.412 60.6638 273.078C61.1334 274.379 61.8855 275.56 62.8661 276.536C63.8468 277.512 65.0318 278.26 66.3361 278.725C67.9303 279.276 69.6255 279.475 71.3043 279.307C73.1514 279.154 74.9124 278.461 76.3677 277.315L76.4912 277.2L76.6288 277.275C79.9391 279.233 83.662 281.038 87.48 283.12L87.1322 283.226L89.6386 278.645L90.7758 276.55L90.889 276.904C87.0186 274.912 83.2925 273.001 79.8697 271.242L79.7684 271.134L79.7746 270.966C79.8564 268.938 79.4471 266.921 78.5815 265.085C77.7577 263.427 76.4707 262.044 74.876 261.101C71.816 259.398 68.4597 259.064 66.0791 260.055C65.0131 260.481 64.0443 261.117 63.2308 261.926C62.6164 262.523 62.0715 263.187 61.6066 263.905C60.7735 265.178 60.4943 265.896 60.4533 265.867Z" fill="#263238"/>
<path d="M174.479 296.136L91.7648 295.755C86.9881 295.729 82.4172 293.811 79.0559 290.422C75.6946 287.033 73.8177 282.451 73.8375 277.682L74.7153 70.6467C74.725 68.2838 75.2011 65.946 76.1162 63.7669C77.0314 61.5878 78.3677 59.6101 80.0488 57.947C81.7299 56.2838 83.7227 54.9678 85.9135 54.0741C88.1042 53.1804 90.4499 52.7266 92.8164 52.7385L175.522 53.1188C180.299 53.1429 184.871 55.0589 188.233 58.4461C191.596 61.8333 193.475 66.4147 193.458 71.1841L192.58 278.211C192.57 280.575 192.094 282.913 191.179 285.093C190.264 287.273 188.928 289.252 187.247 290.917C185.566 292.581 183.574 293.899 181.383 294.794C179.192 295.69 176.846 296.145 174.479 296.136Z" fill="#455A64"/>
<path d="M175.398 60.2375H159.367C158.844 60.2471 158.328 60.3596 157.848 60.5685C157.369 60.7773 156.935 61.0785 156.572 61.4547C156.209 61.8309 155.924 62.2748 155.733 62.7611C155.542 63.2473 155.449 63.7664 155.458 64.2887V67.1907C155.468 67.7126 155.375 68.2313 155.184 68.7171C154.993 69.2029 154.707 69.6462 154.344 70.0218C153.981 70.3974 153.548 70.6977 153.068 70.9057C152.589 71.1136 152.073 71.2251 151.55 71.2337L120.299 71.0931C119.242 71.065 118.239 70.6191 117.511 69.8533C116.783 69.0875 116.389 68.0644 116.416 67.0088V64.1068C116.443 63.0526 116.05 62.0308 115.323 61.2652C114.597 60.4997 113.596 60.0528 112.541 60.0225H106.902L92.8661 59.9564C89.5278 59.9365 86.3175 61.2383 83.9383 63.5766C81.5592 65.915 80.2049 69.0994 80.1721 72.4325L79.3441 274.515C79.3364 276.169 79.6551 277.808 80.2818 279.338C80.9085 280.869 81.8311 282.261 82.9968 283.436C84.1625 284.611 85.5484 285.545 87.0756 286.184C88.6028 286.824 90.2412 287.157 91.8973 287.165L174.437 287.545C176.095 287.553 177.737 287.235 179.271 286.608C180.805 285.982 182.2 285.06 183.378 283.896C184.555 282.731 185.491 281.346 186.132 279.821C186.773 278.295 187.107 276.658 187.115 275.003L187.943 72.9203C187.963 69.5778 186.652 66.3641 184.3 63.9859C181.948 61.6076 178.746 60.2593 175.398 60.2375Z" fill="white"/>
<path d="M164.294 260.584L102.919 260.319C102.281 260.319 101.768 259.625 101.776 258.782L101.842 242.75C101.842 241.923 102.364 241.212 103.001 241.212L164.376 241.494C164.73 241.555 165.046 241.749 165.259 242.037C165.472 242.325 165.565 242.685 165.519 243.04L165.461 259.054C165.461 259.906 164.931 260.592 164.294 260.584Z" fill="#3B82F6"/>
<path d="M115.161 119.642L93.8634 119.546L93.8457 123.448L115.143 123.545L115.161 119.642Z" fill="#3B82F6"/>
<path opacity="0.1" d="M115.161 119.642L93.8634 119.546L93.8457 123.448L115.143 123.545L115.161 119.642Z" fill="black"/>
<path d="M177.592 143.602C177.759 143.585 177.924 143.546 178.081 143.486C178.31 143.397 178.509 143.245 178.656 143.047C178.802 142.85 178.89 142.615 178.909 142.37C178.909 141.056 178.909 139.138 178.909 136.674C178.909 135.442 178.909 134.061 178.909 132.54C178.909 132.168 178.909 131.779 178.909 131.391C178.963 131.013 178.881 130.63 178.677 130.307C178.563 130.153 178.415 130.027 178.244 129.94C178.073 129.852 177.884 129.805 177.692 129.803H176.4H164.435L95.1764 129.547C94.9991 129.544 94.8238 129.584 94.6652 129.663C94.5066 129.742 94.3695 129.858 94.2656 130.002C94.0656 130.325 93.9892 130.709 94.0503 131.085C94.0503 131.911 94.0503 132.738 94.0503 133.565C94.0503 135.219 94.0503 136.872 94.0503 138.526C94.0503 139.352 94.0503 140.179 94.0503 141.006C94.0159 141.391 94.0159 141.778 94.0503 142.164C94.0938 142.329 94.1746 142.482 94.2866 142.611C94.3986 142.74 94.5387 142.841 94.6962 142.908C94.8593 142.972 95.034 143.003 95.2096 142.999H99.4243L117.815 143.098L148.95 143.288L169.941 143.453L175.646 143.519H177.129C177.468 143.519 177.634 143.519 177.634 143.519H177.129H175.646H169.941H148.95L117.815 143.42L99.4243 143.346H95.2096C94.9776 143.355 94.7462 143.316 94.5305 143.23C94.3125 143.137 94.1186 142.996 93.9636 142.817C93.8086 142.638 93.6967 142.425 93.6362 142.197C93.5883 141.98 93.5716 141.757 93.5866 141.535V140.923C93.5866 140.097 93.5866 139.27 93.5866 138.443C93.5866 136.789 93.5866 135.136 93.5866 133.482C93.5866 132.656 93.5866 131.829 93.5866 131.002C93.5708 130.782 93.5708 130.561 93.5866 130.341C93.6176 130.097 93.7118 129.866 93.8598 129.671C94.0027 129.471 94.1917 129.309 94.4109 129.198C94.63 129.087 94.8728 129.031 95.1185 129.034L164.377 129.415L176.342 129.497H177.634C177.861 129.497 178.085 129.552 178.287 129.657C178.489 129.762 178.662 129.915 178.793 130.101C179.026 130.46 179.121 130.892 179.058 131.316C179.058 131.705 179.058 132.093 179.058 132.465C179.058 133.97 179.058 135.351 179.058 136.599C179.058 139.08 179 140.981 178.983 142.304C178.963 142.558 178.871 142.802 178.716 143.005C178.562 143.209 178.353 143.364 178.114 143.453C177.957 143.55 177.777 143.602 177.592 143.602Z" fill="#E0E0E0"/>
<path d="M139.212 133.697H100.261V137.343H139.212V133.697Z" fill="#3B82F6"/>
<path opacity="0.2" d="M139.212 133.697H100.261V137.343H139.212V133.697Z" fill="white"/>
<path d="M115.015 155.242L93.7182 155.146L93.7004 159.048L114.998 159.145L115.015 155.242Z" fill="#3B82F6"/>
<path opacity="0.1" d="M115.015 155.242L93.7182 155.146L93.7004 159.048L114.998 159.145L115.015 155.242Z" fill="black"/>
<path d="M177.054 179.204C177.221 179.183 177.387 179.153 177.551 179.113C177.782 179.039 177.995 178.917 178.175 178.754C178.355 178.592 178.498 178.392 178.594 178.17C178.724 177.836 178.776 177.477 178.743 177.12C178.743 176.723 178.743 176.293 178.743 175.814C178.743 174.855 178.743 173.763 178.743 172.507V167.256C178.783 166.876 178.698 166.494 178.503 166.165C178.299 165.828 177.978 165.578 177.6 165.462C177.188 165.389 176.768 165.367 176.35 165.396H164.434L95.4165 165.14C95.0453 165.141 94.687 165.276 94.4082 165.521C94.1295 165.766 93.9493 166.104 93.9012 166.471C93.9012 167.256 93.9012 168.125 93.9012 168.951C93.9012 170.605 93.9012 172.259 93.9012 173.912C93.9012 174.739 93.9012 175.566 93.9012 176.392C93.8703 176.779 93.887 177.168 93.9508 177.55C94.0542 177.885 94.267 178.176 94.5553 178.377C94.8612 178.571 95.2205 178.663 95.5821 178.641H96.7331H99.1262L117.451 178.732L148.478 178.922L169.394 179.088L175.083 179.154H176.565H177.062H176.565H175.083H169.394H148.478L117.434 179.121L99.1096 179.055H95.5076C95.0597 179.081 94.6153 178.962 94.2407 178.716C93.8639 178.455 93.5889 178.072 93.4623 177.633C93.3881 177.213 93.3658 176.785 93.396 176.359C93.396 175.533 93.396 174.706 93.396 173.879C93.396 172.225 93.396 170.572 93.396 168.918C93.396 168.092 93.396 167.265 93.396 166.438C93.4565 165.965 93.6874 165.531 94.0456 165.216C94.4037 164.901 94.8646 164.727 95.342 164.727L164.36 165.107L176.276 165.198C176.719 165.171 177.165 165.201 177.6 165.289C178.031 165.429 178.394 165.724 178.619 166.116C178.833 166.48 178.926 166.902 178.884 167.323C178.884 167.711 178.884 168.092 178.884 168.472C178.884 169.968 178.884 171.341 178.884 172.606C178.884 173.871 178.884 174.937 178.884 175.913C178.884 176.384 178.884 176.822 178.884 177.228C178.914 177.597 178.854 177.969 178.71 178.311C178.603 178.539 178.447 178.741 178.254 178.904C178.061 179.066 177.835 179.186 177.592 179.253C177.411 179.268 177.229 179.251 177.054 179.204Z" fill="#E0E0E0"/>
<path d="M114.855 192.389L93.5576 192.292L93.5399 196.195L114.837 196.291L114.855 192.389Z" fill="#3B82F6"/>
<path opacity="0.1" d="M114.855 192.389L93.5576 192.292L93.5399 196.195L114.837 196.291L114.855 192.389Z" fill="black"/>
<path d="M176.888 216.334C177.056 216.315 177.222 216.284 177.385 216.243C177.615 216.17 177.827 216.049 178.007 215.888C178.187 215.727 178.331 215.53 178.429 215.309C178.558 214.975 178.609 214.616 178.578 214.259C178.578 213.854 178.578 213.432 178.578 212.945C178.578 211.994 178.578 210.894 178.578 209.637V204.387C178.617 204.007 178.533 203.625 178.337 203.296C178.128 202.965 177.808 202.719 177.435 202.602C177.023 202.525 176.603 202.5 176.184 202.527H164.269L95.2509 202.271C94.8797 202.272 94.5214 202.407 94.2426 202.652C93.9639 202.897 93.7837 203.234 93.7356 203.602C93.7356 204.429 93.7356 205.255 93.7356 206.082C93.7356 207.736 93.7356 209.389 93.7356 211.043C93.7356 211.87 93.7356 212.697 93.7356 213.523C93.7047 213.907 93.7214 214.293 93.7852 214.673C93.8844 215.01 94.0981 215.302 94.3897 215.499C94.6937 215.698 95.0544 215.79 95.4165 215.764H99.0185L117.343 215.863L148.37 216.053L169.287 216.219L174.976 216.285H176.458C176.789 216.285 176.955 216.285 176.955 216.285C176.955 216.285 176.789 216.285 176.458 216.285H174.976H169.287H148.37L117.343 216.194L99.0185 216.119H95.4165C94.9682 216.15 94.5226 216.03 94.1496 215.78C93.7728 215.52 93.4978 215.137 93.3712 214.697C93.297 214.277 93.2747 213.85 93.305 213.424C93.305 212.597 93.305 211.771 93.305 210.944C93.305 209.29 93.305 207.637 93.305 205.983C93.305 205.156 93.305 204.33 93.305 203.461C93.3635 202.989 93.5927 202.555 93.9496 202.24C94.3064 201.925 94.7662 201.75 95.2426 201.75L164.261 202.13L176.176 202.221C176.62 202.194 177.065 202.225 177.501 202.312C177.931 202.453 178.294 202.747 178.52 203.139C178.734 203.503 178.827 203.926 178.785 204.346C178.785 204.735 178.785 205.123 178.785 205.495C178.785 206.992 178.785 208.364 178.785 209.629C178.785 210.894 178.785 211.961 178.785 212.936C178.785 213.408 178.785 213.846 178.785 214.251C178.816 214.621 178.757 214.993 178.611 215.334C178.503 215.562 178.348 215.764 178.155 215.927C177.962 216.09 177.736 216.209 177.493 216.277C177.299 216.343 177.092 216.363 176.888 216.334Z" fill="#E0E0E0"/>
<path d="M138.381 170.329L99.4295 170.153L99.4129 173.799L138.364 173.976L138.381 170.329Z" fill="#3B82F6"/>
<path opacity="0.2" d="M138.381 170.329L99.4295 170.153L99.4129 173.799L138.364 173.976L138.381 170.329Z" fill="white"/>
<path d="M102.952 209.588C102.927 209.92 102.806 210.239 102.602 210.503C102.398 210.767 102.121 210.965 101.805 211.074C101.489 211.182 101.149 211.196 100.825 211.113C100.502 211.029 100.21 210.853 99.9857 210.606C99.7616 210.359 99.6152 210.051 99.5645 209.722C99.5138 209.392 99.5611 209.055 99.7006 208.752C99.8401 208.449 100.066 208.194 100.349 208.017C100.633 207.841 100.962 207.752 101.296 207.761C101.757 207.786 102.19 207.993 102.5 208.335C102.81 208.677 102.972 209.127 102.952 209.588Z" fill="#3B82F6"/>
<path d="M108.226 209.613C108.243 209.846 108.211 210.08 108.133 210.3C108.055 210.52 107.932 210.722 107.772 210.893C107.613 211.064 107.42 211.2 107.205 211.293C106.99 211.386 106.759 211.434 106.525 211.434C106.291 211.434 106.059 211.386 105.845 211.293C105.63 211.2 105.437 211.064 105.277 210.893C105.118 210.722 104.995 210.52 104.917 210.3C104.839 210.08 104.807 209.846 104.823 209.613C104.807 209.38 104.839 209.146 104.917 208.925C104.995 208.705 105.118 208.503 105.277 208.332C105.437 208.162 105.63 208.025 105.845 207.932C106.059 207.839 106.291 207.791 106.525 207.791C106.759 207.791 106.99 207.839 107.205 207.932C107.42 208.025 107.613 208.162 107.772 208.332C107.932 208.503 108.055 208.705 108.133 208.925C108.211 209.146 108.243 209.38 108.226 209.613Z" fill="#3B82F6"/>
<path d="M113.509 209.638C113.485 209.97 113.363 210.288 113.159 210.552C112.956 210.816 112.679 211.015 112.363 211.124C112.047 211.232 111.706 211.245 111.383 211.162C111.059 211.079 110.767 210.903 110.543 210.656C110.319 210.408 110.173 210.101 110.122 209.771C110.071 209.442 110.119 209.105 110.258 208.802C110.398 208.499 110.623 208.243 110.907 208.067C111.19 207.891 111.519 207.801 111.853 207.81C112.314 207.838 112.745 208.045 113.055 208.386C113.364 208.728 113.528 209.177 113.509 209.638Z" fill="#3B82F6"/>
<path d="M118.784 209.662C118.76 209.995 118.638 210.313 118.434 210.577C118.23 210.841 117.953 211.04 117.637 211.148C117.322 211.257 116.981 211.27 116.657 211.187C116.334 211.104 116.042 210.928 115.818 210.68C115.594 210.433 115.447 210.126 115.397 209.796C115.346 209.467 115.393 209.129 115.533 208.826C115.672 208.523 115.898 208.268 116.181 208.092C116.465 207.915 116.794 207.826 117.128 207.835C117.588 207.863 118.02 208.07 118.329 208.411C118.639 208.753 118.802 209.202 118.784 209.662Z" fill="#3B82F6"/>
<path d="M124.059 209.679C124.036 210.012 123.916 210.331 123.713 210.596C123.51 210.862 123.233 211.061 122.917 211.171C122.602 211.281 122.26 211.295 121.936 211.213C121.612 211.131 121.32 210.955 121.095 210.708C120.87 210.461 120.723 210.154 120.671 209.824C120.62 209.494 120.667 209.156 120.806 208.853C120.946 208.549 121.171 208.293 121.455 208.117C121.739 207.94 122.068 207.851 122.403 207.86C122.862 207.888 123.292 208.093 123.601 208.433C123.911 208.773 124.075 209.22 124.059 209.679Z" fill="#3B82F6"/>
<path d="M129.342 209.704C129.319 210.035 129.2 210.352 128.999 210.617C128.798 210.882 128.524 211.082 128.21 211.193C127.897 211.304 127.558 211.321 127.235 211.242C126.912 211.163 126.619 210.992 126.392 210.749C126.165 210.506 126.014 210.202 125.958 209.875C125.902 209.547 125.943 209.211 126.077 208.906C126.21 208.602 126.429 208.343 126.707 208.162C126.986 207.98 127.312 207.884 127.644 207.885C128.111 207.902 128.551 208.103 128.869 208.444C129.187 208.785 129.357 209.238 129.342 209.704Z" fill="#3B82F6"/>
<path d="M134.616 209.728C134.633 209.961 134.601 210.195 134.523 210.416C134.444 210.636 134.322 210.838 134.162 211.009C134.003 211.18 133.809 211.316 133.595 211.409C133.38 211.502 133.149 211.55 132.915 211.55C132.681 211.55 132.449 211.502 132.235 211.409C132.02 211.316 131.827 211.18 131.667 211.009C131.508 210.838 131.385 210.636 131.307 210.416C131.229 210.195 131.197 209.961 131.213 209.728C131.197 209.495 131.229 209.261 131.307 209.041C131.385 208.821 131.508 208.619 131.667 208.448C131.827 208.277 132.02 208.141 132.235 208.048C132.449 207.955 132.681 207.907 132.915 207.907C133.149 207.907 133.38 207.955 133.595 208.048C133.809 208.141 134.003 208.277 134.162 208.448C134.322 208.619 134.444 208.821 134.523 209.041C134.601 209.261 134.633 209.495 134.616 209.728Z" fill="#3B82F6"/>
<path d="M139.891 209.753C139.868 210.085 139.749 210.402 139.548 210.667C139.347 210.931 139.073 211.131 138.76 211.243C138.446 211.354 138.107 211.371 137.784 211.292C137.461 211.213 137.168 211.041 136.941 210.799C136.714 210.556 136.564 210.252 136.508 209.924C136.452 209.597 136.493 209.26 136.626 208.956C136.759 208.652 136.978 208.393 137.257 208.211C137.535 208.03 137.861 207.933 138.194 207.934C138.66 207.952 139.1 208.153 139.419 208.494C139.737 208.834 139.907 209.287 139.891 209.753Z" fill="#3B82F6"/>
<path d="M145.166 209.778C145.143 210.111 145.023 210.43 144.82 210.695C144.617 210.961 144.34 211.161 144.024 211.27C143.709 211.38 143.367 211.395 143.043 211.312C142.719 211.23 142.427 211.054 142.202 210.807C141.977 210.56 141.83 210.253 141.778 209.923C141.727 209.593 141.774 209.255 141.913 208.952C142.053 208.648 142.278 208.392 142.562 208.216C142.846 208.039 143.175 207.95 143.51 207.959C143.969 207.987 144.399 208.193 144.708 208.532C145.018 208.872 145.182 209.319 145.166 209.778Z" fill="#3B82F6"/>
<g opacity="0.2">
<path d="M102.952 209.588C102.927 209.92 102.806 210.239 102.602 210.503C102.398 210.767 102.121 210.965 101.805 211.074C101.489 211.182 101.149 211.196 100.825 211.113C100.502 211.029 100.21 210.853 99.9857 210.606C99.7616 210.359 99.6152 210.051 99.5645 209.722C99.5138 209.392 99.5611 209.055 99.7006 208.752C99.8401 208.449 100.066 208.194 100.349 208.017C100.633 207.841 100.962 207.752 101.296 207.761C101.757 207.786 102.19 207.993 102.5 208.335C102.81 208.677 102.972 209.127 102.952 209.588Z" fill="white"/>
<path d="M108.226 209.613C108.243 209.846 108.211 210.08 108.133 210.3C108.055 210.52 107.932 210.722 107.772 210.893C107.613 211.064 107.42 211.2 107.205 211.293C106.99 211.386 106.759 211.434 106.525 211.434C106.291 211.434 106.059 211.386 105.845 211.293C105.63 211.2 105.437 211.064 105.277 210.893C105.118 210.722 104.995 210.52 104.917 210.3C104.839 210.08 104.807 209.846 104.823 209.613C104.807 209.38 104.839 209.146 104.917 208.925C104.995 208.705 105.118 208.503 105.277 208.332C105.437 208.162 105.63 208.025 105.845 207.932C106.059 207.839 106.291 207.791 106.525 207.791C106.759 207.791 106.99 207.839 107.205 207.932C107.42 208.025 107.613 208.162 107.772 208.332C107.932 208.503 108.055 208.705 108.133 208.925C108.211 209.146 108.243 209.38 108.226 209.613Z" fill="white"/>
<path d="M113.509 209.638C113.485 209.97 113.363 210.288 113.159 210.552C112.956 210.816 112.679 211.015 112.363 211.124C112.047 211.232 111.706 211.245 111.383 211.162C111.059 211.079 110.767 210.903 110.543 210.656C110.319 210.408 110.173 210.101 110.122 209.771C110.071 209.442 110.119 209.105 110.258 208.802C110.398 208.499 110.623 208.243 110.907 208.067C111.19 207.891 111.519 207.801 111.853 207.81C112.314 207.838 112.745 208.045 113.055 208.386C113.364 208.728 113.528 209.177 113.509 209.638Z" fill="white"/>
<path d="M118.784 209.662C118.76 209.995 118.638 210.313 118.434 210.577C118.23 210.841 117.953 211.04 117.637 211.148C117.322 211.257 116.981 211.27 116.657 211.187C116.334 211.104 116.042 210.928 115.818 210.681C115.594 210.433 115.448 210.126 115.397 209.796C115.346 209.467 115.393 209.129 115.533 208.826C115.672 208.523 115.898 208.268 116.181 208.092C116.465 207.916 116.794 207.826 117.128 207.835C117.589 207.863 118.02 208.07 118.329 208.411C118.639 208.753 118.802 209.202 118.784 209.662Z" fill="white"/>
<path d="M124.059 209.679C124.036 210.012 123.915 210.331 123.713 210.596C123.51 210.862 123.233 211.061 122.917 211.171C122.601 211.281 122.26 211.295 121.936 211.213C121.612 211.131 121.32 210.955 121.095 210.708C120.87 210.461 120.723 210.154 120.671 209.824C120.62 209.494 120.667 209.156 120.806 208.853C120.946 208.549 121.171 208.293 121.455 208.117C121.739 207.94 122.068 207.851 122.403 207.86C122.862 207.888 123.292 208.093 123.601 208.433C123.91 208.773 124.075 209.22 124.059 209.679Z" fill="white"/>
<path d="M129.342 209.704C129.319 210.035 129.2 210.352 128.999 210.617C128.798 210.882 128.524 211.082 128.21 211.193C127.897 211.304 127.558 211.321 127.235 211.242C126.912 211.163 126.619 210.992 126.392 210.749C126.165 210.506 126.014 210.202 125.958 209.875C125.902 209.547 125.943 209.211 126.077 208.906C126.21 208.602 126.429 208.343 126.707 208.162C126.986 207.98 127.312 207.884 127.644 207.885C128.111 207.902 128.551 208.103 128.869 208.444C129.187 208.785 129.357 209.238 129.342 209.704Z" fill="white"/>
<path d="M134.616 209.728C134.633 209.962 134.601 210.195 134.523 210.416C134.444 210.636 134.322 210.838 134.162 211.009C134.003 211.18 133.809 211.316 133.595 211.409C133.38 211.502 133.149 211.55 132.915 211.55C132.681 211.55 132.449 211.502 132.235 211.409C132.02 211.316 131.827 211.18 131.667 211.009C131.508 210.838 131.385 210.636 131.307 210.416C131.229 210.195 131.197 209.962 131.213 209.728C131.197 209.495 131.229 209.261 131.307 209.041C131.385 208.821 131.508 208.619 131.667 208.448C131.827 208.277 132.02 208.141 132.235 208.048C132.449 207.955 132.681 207.907 132.915 207.907C133.149 207.907 133.38 207.955 133.595 208.048C133.809 208.141 134.003 208.277 134.162 208.448C134.322 208.619 134.444 208.821 134.523 209.041C134.601 209.261 134.633 209.495 134.616 209.728Z" fill="white"/>
<path d="M139.891 209.753C139.868 210.085 139.749 210.402 139.548 210.667C139.347 210.931 139.073 211.131 138.76 211.243C138.446 211.354 138.107 211.371 137.784 211.292C137.461 211.213 137.168 211.042 136.941 210.799C136.714 210.556 136.564 210.252 136.508 209.924C136.452 209.597 136.493 209.26 136.626 208.956C136.759 208.652 136.978 208.393 137.257 208.211C137.535 208.03 137.861 207.933 138.194 207.934C138.66 207.952 139.1 208.153 139.419 208.494C139.737 208.835 139.907 209.287 139.891 209.753Z" fill="white"/>
<path d="M145.166 209.778C145.143 210.111 145.022 210.43 144.82 210.695C144.617 210.961 144.34 211.161 144.024 211.27C143.708 211.38 143.367 211.395 143.043 211.312C142.719 211.23 142.427 211.054 142.202 210.807C141.977 210.56 141.83 210.253 141.778 209.923C141.727 209.593 141.774 209.255 141.913 208.952C142.053 208.648 142.278 208.393 142.562 208.216C142.846 208.04 143.175 207.95 143.51 207.959C143.969 207.987 144.399 208.193 144.708 208.532C145.017 208.872 145.182 209.319 145.166 209.778Z" fill="white"/>
</g>
<path d="M137.672 90.4234C138.247 90.1704 138.735 89.7542 139.075 89.2265C139.415 88.6987 139.593 88.0827 139.585 87.4552C139.606 87.0473 139.544 86.6393 139.403 86.256C139.261 85.8728 139.043 85.5223 138.761 85.226C138.48 84.9297 138.14 84.6937 137.765 84.5325C137.389 84.3712 136.984 84.288 136.575 84.288C136.166 84.288 135.761 84.3712 135.385 84.5325C135.009 84.6937 134.67 84.9297 134.388 85.226C134.107 85.5223 133.888 85.8728 133.747 86.256C133.605 86.6393 133.543 87.0473 133.565 87.4552C133.552 88.089 133.728 88.7124 134.07 89.2465C134.412 89.7807 134.904 90.2017 135.486 90.4565C130.849 91.151 131.056 96.1778 131.056 96.1778L142.019 96.2274C142.019 96.2274 142.276 91.1096 137.672 90.4234Z" fill="#3B82F6"/>
<path opacity="0.1" d="M137.672 90.4234C138.247 90.1704 138.735 89.7542 139.075 89.2265C139.415 88.6987 139.593 88.0827 139.585 87.4552C139.606 87.0473 139.544 86.6393 139.403 86.256C139.261 85.8728 139.043 85.5223 138.761 85.226C138.48 84.9297 138.14 84.6937 137.765 84.5325C137.389 84.3712 136.984 84.288 136.575 84.288C136.166 84.288 135.761 84.3712 135.385 84.5325C135.009 84.6937 134.67 84.9297 134.388 85.226C134.107 85.5223 133.888 85.8728 133.747 86.256C133.605 86.6393 133.543 87.0473 133.565 87.4552C133.552 88.089 133.728 88.7124 134.07 89.2465C134.412 89.7807 134.904 90.2017 135.486 90.4565C130.849 91.151 131.056 96.1778 131.056 96.1778L142.019 96.2274C142.019 96.2274 142.276 91.1096 137.672 90.4234Z" fill="black"/>
<path d="M155.487 99.4696L116.412 99.2925L116.391 103.956L155.466 104.133L155.487 99.4696Z" fill="#3B82F6"/>
<path opacity="0.2" d="M155.487 99.4696L116.412 99.2925L116.391 103.956L155.466 104.133L155.487 99.4696Z" fill="white"/>
<path d="M178.787 197.183C180.46 192.411 182.251 187.672 183.969 182.922C184.014 182.798 184.06 182.675 184.104 182.551C184.304 182.612 184.503 182.675 184.703 182.737C191.038 184.695 197.367 186.679 203.694 188.663C204.227 188.83 204.761 188.993 205.296 189.158C205.058 187.076 204.847 184.995 204.671 182.918C203.563 169.862 203.757 142.106 203.772 141.985C210.764 145.152 222.718 155.404 227.228 185.946C228.067 191.632 227.253 203.466 227.253 203.466L213.538 211.887C213.538 211.887 205.401 209.447 201.53 207.868C194.064 204.825 186.673 201.697 179.315 198.402C179.042 198.28 178.771 198.153 178.501 198.026C178.598 197.744 178.689 197.463 178.787 197.183Z" fill="#E5E5E5"/>
<path d="M167.365 331.431C167.365 331.431 166.2 332.689 165.688 334.434C165.177 336.179 167.111 338.789 169.56 339.154C172.009 339.519 174.411 339.485 175.88 336.697C177.348 333.909 179.554 327.131 177.654 326.069C175.754 325.008 167.365 331.431 167.365 331.431Z" fill="#292929"/>
<path d="M174.341 336.956C174.341 336.956 172.207 339.92 171.585 343.463C170.962 347.005 174.701 348.927 175.6 349.233C176.499 349.538 182.146 350.423 184.76 348.492C187.373 346.561 187.792 339.36 186.645 337.035C185.497 334.71 174.341 336.956 174.341 336.956Z" fill="#292929"/>
<path d="M174.455 336.933C174.387 336.947 174.34 336.956 174.34 336.956C174.34 336.956 172.206 339.92 171.584 343.462C170.961 347.005 174.701 348.927 175.6 349.232C175.81 349.304 176.29 349.407 176.922 349.499C175.295 348.446 172.786 346.709 172.777 344.669C172.766 342.372 173.812 338.473 173.812 338.473C174.176 338.015 174.36 337.429 174.455 336.933Z" fill="#0E0E0E"/>
<path d="M159.952 261.05C159.952 261.05 165.475 289.277 167.337 295.483C169.199 301.689 171.393 318.386 171.481 320.284C171.569 322.183 167.006 331.745 167.001 332.544C166.996 333.343 168.994 335.105 172.49 334.677C175.594 334.296 175.4 333.396 175.4 333.396C175.4 333.396 177.735 325.544 178.604 323.888C179.473 322.233 178.617 299.55 177.734 296.747C176.851 293.945 177.059 292.88 177.059 292.88L179.332 260.757C179.332 260.757 163.471 258.355 159.952 261.05Z" fill="#FFCBA4"/>
<path d="M178.882 321.877C178.617 321.685 178.048 319.8 177.991 320.126C176.601 328.076 174.286 331.652 172.51 334.674C175.591 334.292 175.4 333.397 175.4 333.397C175.4 333.397 177.735 325.544 178.604 323.889C178.734 323.643 178.824 322.922 178.882 321.877Z" fill="#F5A674"/>
<path d="M160.555 264.105C160.67 264.685 160.799 265.332 160.94 266.038C160.942 266.049 160.944 266.06 160.946 266.071C163.064 267.831 168.058 271.914 171.624 274.282C174.308 276.065 177.134 278.083 178.059 278.754L178.059 278.752L179.145 263.395C177.572 263.117 173.9 262.437 171.366 261.728L160.72 260.64C160.428 260.749 160.169 260.884 159.951 261.051C159.951 261.051 160.166 262.148 160.522 263.944C160.533 263.996 160.544 264.051 160.555 264.105Z" fill="#F5A674"/>
<path d="M177.052 293.547C177.025 293.096 177.059 292.881 177.059 292.881L178.237 276.233L175.118 275.353C175.119 275.352 176.134 291.696 177.052 293.547Z" fill="#F5A674"/>
<path d="M177.735 296.747C176.852 293.944 177.052 293.546 177.052 293.546L177.139 290.882L176.377 290.025C176.377 290.025 175.176 295.332 174.983 296.796C174.791 298.26 176.164 297.337 177.114 300.007C178.064 302.677 177.995 323.122 177.995 323.122C178.383 323.011 178.679 322.416 178.9 321.561C179.192 315.34 178.473 299.092 177.735 296.747Z" fill="#F5A674"/>
<path d="M183.678 311.893C183.361 308.483 182.626 305.028 182.115 301.721C181.349 296.774 180.508 291.838 179.591 286.915C179.334 285.535 179.05 284.162 178.778 282.785C180.858 258.879 181.286 234.504 179.799 210.554C179.763 209.975 179.726 209.397 179.687 208.818C179.373 208.804 179.058 208.791 178.743 208.773C177.297 208.695 175.854 208.587 174.415 208.417C170.674 207.973 166.968 207.341 163.279 206.615C162.988 206.558 162.698 206.498 162.407 206.439C162.3 206.82 162.191 207.2 162.088 207.581C156.121 229.704 156.537 254.174 161.342 276.46C164.091 289.21 165.505 302.247 165.551 315.29C165.554 316.102 173.912 315.85 174.727 315.767C177.959 315.436 180.853 314.533 183.773 313.205C183.746 312.769 183.719 312.332 183.678 311.893Z" fill="#263238"/>
<path d="M178.153 315.18C180.077 314.717 181.919 314.047 183.77 313.206C183.744 312.769 183.717 312.332 183.676 311.893C183.359 308.483 182.624 305.029 182.113 301.722C181.348 296.774 180.506 291.838 179.59 286.915C179.332 285.536 179.049 284.162 178.776 282.785C180.857 258.88 181.285 234.504 179.798 210.554C179.763 209.975 179.725 209.397 179.687 208.818C179.372 208.804 179.057 208.791 178.743 208.773C177.297 208.695 175.853 208.587 174.415 208.417C172.214 208.156 170.027 207.825 167.847 207.452C176.664 242.474 174.392 279.232 178.153 315.18Z" fill="#202A2E"/>
<path d="M183.165 261.917C182.963 262.223 181.564 280.085 181.951 281.011C182.337 281.938 178.18 322.067 177.654 326.069C177.128 330.071 173.878 337.856 173.67 338.984C173.463 340.113 176.761 343.112 181.562 342.115C186.363 341.119 185.967 340.5 186.475 339.271C186.983 338.041 186.161 325.713 186.567 324.79C186.974 323.869 196.401 288.805 197.133 283.88C197.865 278.956 200.779 261.309 200.779 261.309L183.165 261.917Z" fill="#FFCBA4"/>
<path d="M200.17 265.005C198.364 263.682 195.045 262.385 192.534 261.594L187.756 261.759C186.154 263.033 183.888 265.401 182.611 267.581C182.534 268.556 182.455 269.593 182.379 270.647C185.124 270.561 195.189 270.126 199.624 268.332C199.823 267.119 200.008 265.989 200.17 265.005Z" fill="#F5A674"/>
<path d="M199.853 266.936C198.459 267.433 197.028 267.998 197.028 267.998C197.028 267.998 195.885 288.087 192.344 303.489C194.63 294.747 196.797 286.14 197.133 283.88C197.596 280.761 198.933 272.546 199.853 266.936Z" fill="#F5A674"/>
<path d="M167.365 331.431C167.365 331.431 166.2 332.689 165.688 334.434C165.177 336.178 167.111 338.789 169.56 339.154C169.579 339.157 169.597 339.158 169.616 339.161C170.042 338.442 169.739 336.974 168.543 335.889C166.914 334.411 167 332.544 167 332.544C167.213 332.162 167.409 331.712 167.497 331.33C167.418 331.39 167.365 331.431 167.365 331.431Z" fill="#0E0E0E"/>
<path d="M185.926 321.678C187.065 321.96 188.228 322.201 189.4 322.433C197.334 294.086 204.164 265.168 204.439 235.604C204.512 227.794 204.101 220.013 203.114 212.275C203.081 212.017 203.042 211.76 203.008 211.502C202.883 211.484 202.758 211.465 202.632 211.447C200.027 211.093 197.413 210.824 194.797 210.64C189.431 210.261 183.93 210.153 178.53 210.623C178.391 210.635 178.254 210.648 178.115 210.661C178.113 210.875 178.111 211.09 178.109 211.304C177.792 240.046 177.593 268.778 176.702 297.511C176.482 304.627 176.232 311.743 175.938 318.857C179.275 319.679 182.596 320.854 185.926 321.678Z" fill="#263238"/>
<path d="M178.115 210.661C178.113 210.875 178.111 211.09 178.108 211.304C177.791 240.045 177.592 268.777 176.702 297.51C176.489 304.369 176.248 311.228 175.967 318.083C178.443 301.143 180.219 284.104 181.209 267.009C181.8 256.798 182.119 246.571 182.169 236.342C182.194 231.006 182.15 225.669 182.025 220.333C181.949 217.098 181.935 213.724 181.623 210.421C180.589 210.471 179.556 210.534 178.528 210.623C178.391 210.635 178.253 210.648 178.115 210.661Z" fill="#3A4A52"/>
<path d="M199.751 202.055C199.144 201.745 198.177 201.533 196.962 201.396L196.581 203.376C196.581 203.376 212.109 234.923 214.897 246.015C211.455 232.311 203.77 204.108 199.751 202.055Z" fill="#A37980"/>
<path d="M196.581 203.372C199.142 202.77 200.093 202.15 200.121 201.25C200.172 199.587 200.136 198.853 200.136 198.853C200.136 198.853 198.861 198.853 196.807 198.873C197.242 200.925 196.586 203.355 196.581 203.372Z" fill="#F0C2C8"/>
<path d="M152.209 237.895C172.341 244.676 194.7 244.668 214.827 237.873C211.945 228.132 208.462 214.564 207.806 212.31C205.314 203.747 203.005 194.369 205.08 185.489C206.596 179.002 210.337 173.294 211.68 166.691C212.816 161.104 205.073 142.665 202.3 141.656L175.568 139.222C175.568 139.222 167.061 148.724 163.932 153.199C160.801 157.675 158.354 166.153 160.554 174.16C162.114 179.835 163.674 185.606 163.873 191.521C164.06 197.058 162.366 201.884 161.004 207.136C158.327 217.457 155.49 227.748 152.209 237.895Z" fill="#F36F56"/>
<path d="M205.553 189.993C205.5 189.645 205.441 189.301 205.375 188.96C205.208 188.969 205.041 188.977 204.874 188.983C202.424 189.081 199.966 188.917 197.424 188.332C195.725 187.941 194.065 187.397 192.46 186.721C192.092 186.567 191.73 186.403 191.369 186.233C191.005 186.062 190.638 185.897 190.281 185.711C189.256 185.177 188.315 184.557 187.393 183.912C187.11 183.714 186.826 183.515 186.545 183.314C186.328 183.541 186.108 183.764 185.883 183.985C185.457 184.403 185.01 184.807 184.539 185.197C184.475 185.25 184.414 185.306 184.348 185.359C184.299 185.398 184.247 185.433 184.198 185.472C182.382 186.91 180.404 188.112 178.315 189.102C178.043 189.232 177.772 189.364 177.496 189.486C177.816 189.55 178.136 189.609 178.457 189.657C180.895 190.029 183.368 189.952 185.825 189.395C186.469 189.249 187.138 189.061 187.812 188.847C192.727 192.655 198.94 194.8 205.168 194.933C205.381 194.938 205.594 194.945 205.807 194.945C205.824 194.637 205.836 194.33 205.839 194.021C205.856 192.669 205.753 191.313 205.553 189.993Z" fill="#5C84AF"/>
<path d="M175.569 139.223C175.569 139.223 174.505 140.41 172.994 142.141C172.658 144.596 172.249 147.04 171.674 149.494C170.618 154.004 169.201 158.431 167.902 162.875C165.381 171.493 163.356 180.334 164.475 189.352C165.125 194.589 166.542 199.835 165.72 205.14C165.018 209.672 163.038 213.92 161.389 218.159C158.768 224.898 156.923 232.206 157.34 239.459C159.295 239.997 161.267 240.474 163.252 240.889C163.119 237.234 163.113 233.621 163.722 229.94C164.506 225.198 166.091 220.858 167.829 216.398C169.439 212.266 170.883 208.071 171.202 203.615C171.68 196.932 169.702 190.368 168.8 183.834C167.857 177.008 168.621 170.058 169.962 163.34C171.616 155.049 174.177 147.56 175.569 139.223Z" fill="#F36F56"/>
<path d="M185.542 86.6413C185.542 86.6413 174.544 90.5307 171.683 99.8369C168.822 109.143 171.925 114.223 176.516 116.051C181.107 117.879 192.094 96.0365 190.348 91.2973C188.601 86.5574 189.518 85.6372 185.542 86.6413Z" fill="#876355"/>
<path d="M183.433 129.749C183.433 129.749 183.472 134.211 182.991 136.339C182.991 136.339 177.176 138.101 175.568 139.222C173.96 140.344 184.659 153.981 186.673 154.182C190.751 154.591 202.301 141.657 202.301 141.657C202.301 141.657 194.582 138.677 193.521 137.738C192.46 136.8 193.757 131.1 193.757 131.1C193.757 131.1 185.643 128.364 183.433 129.749Z" fill="#FFCBA4"/>
<path d="M175.568 139.223C175.319 139.397 175.367 139.872 175.63 140.55L182.991 136.34C182.989 136.34 177.176 138.101 175.568 139.223Z" fill="#FFDBBF"/>
<path d="M183.433 129.82C183.434 130.058 183.434 130.926 183.4 131.997C184.115 132.96 184.919 133.847 185.505 134.357C186.705 135.401 188.989 136.212 190.462 135.895C190.458 136.601 190.513 137.269 190.686 137.687C191.212 138.956 194.634 141.043 195.464 141.414C195.856 141.589 198.155 142.604 200.474 143.628C201.595 142.447 202.301 141.658 202.301 141.658C202.301 141.658 200.27 140.874 198.149 139.983C197.612 139.758 197.071 139.526 196.554 139.298C196.445 139.25 196.338 139.203 196.231 139.155C194.948 138.581 193.871 138.049 193.521 137.739C193.461 137.687 193.412 137.614 193.366 137.534C193.355 137.514 193.345 137.493 193.334 137.471C193.294 137.388 193.259 137.298 193.23 137.194C193.229 137.189 193.227 137.185 193.226 137.181C193.196 137.069 193.173 136.944 193.155 136.812C193.151 136.784 193.148 136.754 193.144 136.724C193.129 136.599 193.118 136.467 193.112 136.327C193.111 136.317 193.111 136.308 193.11 136.298C193.103 136.146 193.103 135.986 193.106 135.823C193.106 135.788 193.107 135.753 193.108 135.718C193.111 135.573 193.118 135.426 193.127 135.275C193.128 135.252 193.128 135.229 193.131 135.205C193.141 135.04 193.155 134.872 193.171 134.703C193.176 134.651 193.181 134.6 193.187 134.548C193.2 134.425 193.213 134.302 193.228 134.179C193.234 134.123 193.241 134.068 193.248 134.013C193.266 133.866 193.286 133.721 193.306 133.578C193.319 133.489 193.332 133.404 193.345 133.317C193.354 133.26 193.363 133.203 193.372 133.146C193.517 132.222 193.677 131.463 193.733 131.204C193.736 131.194 193.738 131.184 193.74 131.175C193.742 131.166 193.743 131.162 193.744 131.154C193.751 131.122 193.756 131.101 193.756 131.101C193.756 131.101 188.804 129.431 185.583 129.361C185.197 129.352 184.835 129.367 184.51 129.41C184.293 129.439 184.093 129.48 183.912 129.536C183.731 129.592 183.57 129.663 183.432 129.749C183.433 129.749 183.433 129.777 183.433 129.82Z" fill="#F5A674"/>
<path d="M175.349 110.716C175.349 110.716 176.614 121.646 177.402 123.516C178.191 125.386 184.282 132.485 186.149 132.563C188.017 132.642 191.349 133.196 192.019 132.6C192.69 132.005 200.067 125.792 201.146 123.934C202.225 122.075 203.61 114.093 203.357 111.959C203.104 109.826 202.006 93.6991 188.132 93.6138C181.99 93.5769 175.672 101.927 175.349 110.716Z" fill="#FFCBA4"/>
<path d="M201.747 122.404C201.747 122.404 213.529 117.202 214.58 109.166C215.632 101.131 214.255 92.1312 207.236 86.6419C200.218 81.1526 190.737 80.3935 186.672 84.9129C182.605 89.4324 185.397 98.8914 191.618 103.926C197.84 108.96 201.343 110.967 203.332 111.735C203.332 111.735 202.765 118.746 201.747 122.404Z" fill="#876355"/>
<path d="M185.753 95.347C185.753 95.347 178.311 103.991 177.344 106.482C176.378 108.974 175.7 113.565 175.7 113.565C175.7 113.565 173.015 110.651 174.746 105.967C176.477 101.282 180.374 94.2141 182.979 93.5814C185.585 92.9486 186.333 93.3531 186.333 93.3531L185.753 95.347Z" fill="#876355"/>
<path d="M214.581 109.167C215.632 101.131 214.255 92.1312 207.237 86.6419C206.576 86.125 205.888 85.6644 205.191 85.2323C211.104 92.7829 213.343 101.673 212.103 107.955C210.863 114.244 205.049 115.949 203.355 117.537C202.984 117.886 202.71 118.322 202.49 118.781C202.278 120.1 202.03 121.383 201.747 122.405C201.747 122.405 213.529 117.202 214.581 109.167Z" fill="#705246"/>
<path d="M191.86 113.009L192.131 113.735C192.131 113.735 195.796 112.748 197.71 114.533C197.71 114.533 196.343 112.238 191.86 113.009Z" fill="#694C39"/>
<path d="M186.7 108.99L187.171 108.327C187.171 108.327 183.478 106.932 181.166 108.586C181.166 108.586 184.441 107.61 186.7 108.99Z" fill="#694C39"/>
<path d="M203.009 116.488C203.009 116.488 204.621 112.482 207.067 113.356C209.512 114.229 206.998 119.058 201.919 120.375L203.009 116.488Z" fill="#FFCBA4"/>
<path d="M202.102 111.189C202.102 111.189 201.491 118.377 202.206 119.354C202.206 119.354 204.013 113.77 203.773 112.22C203.532 110.67 202.555 110.471 202.102 111.189Z" fill="#876355"/>
<path d="M187.055 89.861C187.283 84.1253 193.109 82.1626 193.608 82.0046C190.771 82.1654 188.29 83.1145 186.671 84.9135C182.605 89.4329 185.397 98.892 191.618 103.926C194.914 106.593 197.429 108.393 199.378 109.627C191.401 102.709 186.817 95.8482 187.055 89.861Z" fill="#A67A68"/>
<path d="M185.258 89.1008L186.66 86.6123C186.66 86.6123 186.687 86.5159 186.72 86.3788C186.382 86.4406 185.997 86.5265 185.541 86.6419C185.541 86.6419 174.543 90.5313 171.682 99.8375C170.403 103.999 170.322 107.309 171.027 109.868C171.227 108.388 171.676 105.966 172.668 102.025C174.826 93.4629 185.258 89.1008 185.258 89.1008Z" fill="#A67A68"/>
<path d="M176.199 117.245C176.59 119.956 177.045 122.668 177.402 123.517C178.191 125.387 184.282 132.485 186.149 132.564C186.345 132.572 186.564 132.587 186.787 132.604C186.785 132.604 186.785 132.604 186.783 132.603C185.037 132.027 181.894 127.575 179.83 124.914C177.772 122.261 176.21 117.282 176.199 117.245Z" fill="#FFE2CC"/>
<path d="M196.433 115.92C195.557 115.972 194.763 116.182 193.972 116.569C193.656 116.724 193.256 116.918 192.906 117.162C192.622 117.36 192.376 117.593 192.232 117.863C192.503 117.983 192.819 118.037 193.104 118.128C193.164 118.148 193.228 118.164 193.285 118.189C193.85 118.436 194.333 118.818 194.706 119.308C194.947 119.624 195.493 119.339 195.259 118.99C194.875 118.418 194.385 117.926 193.789 117.573C193.932 117.456 194.075 117.347 194.224 117.259C194.925 116.847 195.708 116.557 196.488 116.337C196.711 116.275 196.68 115.905 196.433 115.92Z" fill="#694C39"/>
<path d="M185.277 114.481C185.268 115.946 184.747 117.131 184.113 117.127C183.48 117.122 182.974 115.931 182.984 114.466C182.993 113.001 183.514 111.817 184.147 111.821C184.781 111.824 185.286 113.016 185.277 114.481Z" fill="#694C39"/>
<path d="M193.526 123.544C190.981 125.676 187.321 126.21 184.51 124.28C184.409 124.211 184.285 124.367 184.377 124.45C187.302 127.057 191.423 127.03 193.833 123.784C193.975 123.593 193.686 123.41 193.526 123.544Z" fill="#F5A674"/>
<path d="M193.651 123.541C193.576 123.501 193.511 123.578 193.541 123.649C193.74 124.107 194.027 124.546 194.251 124.995C194.345 125.185 194.648 125.055 194.592 124.854C194.452 124.356 194.12 123.795 193.651 123.541Z" fill="#F5A674"/>
<path d="M189.268 120.233C188.433 119.988 187.545 119.943 186.671 120.088C186.493 120.117 186.316 120.153 186.14 120.198C186.192 120.336 186.256 120.472 186.334 120.604C186.611 121.072 187.029 121.491 187.506 121.823C187.663 121.931 187.823 122.029 187.988 122.117C188.19 121.957 188.389 121.793 188.591 121.629C188.86 121.411 189.123 121.079 189.378 120.849C189.557 120.687 189.727 120.628 189.894 120.457C189.69 120.369 189.48 120.295 189.268 120.233Z" fill="#F5A674"/>
<path d="M166.134 181.493C165.982 187.702 166.735 193.881 166.804 200.085C166.874 206.44 163.787 211.889 162.274 217.824C160.187 226.01 159.29 234.631 159.242 243.014C159.233 244.496 158.232 255.907 159.837 256.397C155.224 254.996 150.819 252.922 146.794 250.271C145.695 249.548 136.706 242.831 136.908 241.855C139.175 230.915 148.128 223.058 154.238 214.211C157.49 209.502 159.029 204.999 160.363 199.524C161.947 193.021 161.788 186.554 161.968 179.953C162.198 171.516 161.723 162.642 163.666 154.411C167.263 139.17 176.735 138.088 177.577 138.229C175.507 143.024 173.985 147.978 172.411 152.962C169.755 161.377 167.1 170.103 166.292 178.926C166.213 179.78 166.155 180.635 166.134 181.493Z" fill="#E5E5E5"/>
<path d="M198.997 140.334C201.845 149.009 200.939 159.032 199.311 168.016C194.053 197.037 191.806 226.656 192.144 256.189C198.536 254.275 216.183 251.276 216.183 251.276C216.197 251.12 216.206 250.963 216.216 250.807C216.883 240.598 214.688 231.643 212.466 221.863C210.888 214.913 208.991 206.706 209.635 199.544C210.248 192.739 212.055 185.784 213.643 179.12C215.15 172.802 216.448 166.29 215.618 159.849C214.552 151.589 207.971 141.264 198.997 140.334Z" fill="#E5E5E5"/>
<path d="M210.938 190.966C210.521 181.562 210.051 172.154 209.462 162.757C209.361 161.149 209.248 159.541 209.14 157.933C208.84 159.336 208.543 160.74 208.244 162.143C207.443 165.92 206.653 169.701 205.905 173.489C205.058 177.786 203.606 182.523 203.013 187.074C202.947 187.581 202.893 188.083 202.85 188.584C203.389 188.908 203.935 189.226 204.488 189.541C206.056 190.435 207.665 191.27 209.277 191.963C209.857 192.213 210.436 192.44 211.014 192.647C210.99 192.086 210.963 191.526 210.938 190.966Z" fill="#D5D5D5"/>
<path d="M210.159 157.804C210.186 157.499 210.213 157.194 210.239 156.889C210.099 156.868 209.958 156.85 209.818 156.829C203.313 155.863 196.617 155.602 190.083 155.529C184.246 155.463 178.404 155.709 172.572 156.243C172.356 156.263 172.14 156.286 171.923 156.307C171.909 156.525 171.896 156.742 171.883 156.959C171.39 164.793 171.272 172.679 171.124 180.498C171.034 185.295 170.986 190.091 170.981 194.886C170.979 197.337 170.992 199.787 171.015 202.236C171.022 202.997 171.01 203.776 171.003 204.558C171.001 204.791 170.999 205.024 170.998 205.258C171.255 205.339 171.512 205.417 171.769 205.496C176.718 207.015 181.789 208.135 186.867 208.947C190.645 209.55 194.452 209.966 198.274 210.192C199.246 210.25 200.229 210.309 201.217 210.359C201.492 210.373 201.768 210.385 202.044 210.397C202.106 210.116 202.166 209.836 202.227 209.555C202.731 207.227 203.203 204.894 203.681 202.578C204.828 197.021 205.849 191.437 206.745 185.832C208.229 176.536 209.35 167.181 210.159 157.804Z" fill="#464646"/>
<path d="M198.273 210.193C199.245 210.251 200.228 210.311 201.216 210.36C201.491 210.374 201.767 210.386 202.043 210.398C202.105 210.118 202.165 209.837 202.226 209.556C202.73 207.229 203.202 204.896 203.68 202.579C204.827 197.022 205.849 191.439 206.744 185.833C208.069 177.538 209.09 169.198 209.873 160.837C201.54 158.992 173.496 157.756 173.496 157.756C172.871 163.704 171.956 198.181 171.768 205.497L171.769 205.498C176.718 207.017 181.789 208.137 186.867 208.948C190.644 209.552 194.451 209.967 198.273 210.193Z" fill="#292929"/>
<path d="M208.305 184.186C208.608 182.204 208.696 180.218 208.609 178.227C208.599 177.998 208.581 177.769 208.566 177.54C208.556 177.373 206.955 177.725 206.757 177.64C206.13 177.369 206.187 176.363 205.891 175.852C205.421 175.043 204.326 174.911 203.39 174.871C202.53 174.833 201.659 174.797 200.814 174.962C198.768 175.362 197.621 176.907 196.66 178.621C194.516 182.441 191.139 182.161 187.329 182.994C185.693 183.351 184.104 183.898 182.52 184.435C182.029 184.602 181.538 184.77 181.052 184.949C181.082 185.097 181.114 185.246 181.149 185.394C181.344 186.229 181.586 187.025 181.651 187.385C181.952 189.055 182.25 190.726 182.521 192.401C182.594 192.847 182.659 193.295 182.723 193.743C182.748 193.921 182.772 194.099 182.797 194.278C183.416 194.105 184.038 193.924 184.662 193.737C186.961 193.048 189.236 192.277 191.471 191.404C193.674 190.543 196.085 189.8 198.527 189.908C199.7 189.96 200.761 190.356 201.892 190.502C203.223 190.674 204.733 190.446 205.983 189.983C206.351 189.847 206.71 189.692 207.056 189.506C207.193 189.14 207.316 188.765 207.428 188.384C207.838 186.982 208.102 185.513 208.305 184.186Z" fill="#FFCBA4"/>
<path d="M196.66 178.62C194.515 182.44 191.138 182.16 187.329 182.993C185.693 183.351 184.104 183.897 182.52 184.435C182.029 184.602 181.538 184.77 181.051 184.948C181.082 185.097 181.114 185.246 181.149 185.393C181.269 185.908 181.406 186.406 181.509 186.798C185.205 187.422 190.039 185.601 193.162 184.174C194.868 183.394 196.417 182.341 197.524 180.8C198.544 179.381 198.718 177.089 199.474 175.444C198.224 176.124 197.388 177.322 196.66 178.62Z" fill="#FFE2CC"/>
<path d="M201.698 177.836C201.906 177.657 202.188 177.552 202.466 177.528C203.37 177.445 205.569 177.406 206.352 177.838C207.452 178.446 206.112 183.41 205.883 184.671C205.744 185.431 205.596 186.214 205.163 186.852C204.365 188.025 202.081 188.004 201.67 186.43C201.518 185.848 201.69 185.237 201.81 184.647C202.155 182.955 202.069 181.178 201.563 179.527C201.425 179.079 201.26 178.587 201.452 178.161C201.508 178.034 201.594 177.925 201.698 177.836Z" fill="#F5A674"/>
<path d="M192.388 197.178C191.199 192.264 189.889 187.372 188.653 182.474C188.621 182.346 188.588 182.218 188.555 182.09C188.35 182.132 188.146 182.174 187.941 182.216C181.442 183.536 174.947 184.881 168.453 186.227C167.907 186.34 167.359 186.449 166.81 186.56C167.255 184.511 167.671 182.461 168.053 180.413C170.455 167.532 173.028 139.894 173.024 139.772C165.729 142.277 152.767 151.387 145.306 181.186C143.91 186.761 144.379 204.24 144.379 204.24L156.345 208.357C156.345 208.357 164.683 206.737 168.694 205.551C176.426 203.264 184.092 200.885 191.741 198.337C192.026 198.243 192.307 198.144 192.589 198.044C192.52 197.756 192.458 197.467 192.388 197.178Z" fill="#E5E5E5"/>
<path d="M182.944 197.463C183.248 194.054 181.929 190.528 179.378 188.177C177.493 186.441 175.148 185.767 172.689 185.351C171.277 185.643 169.864 185.935 168.453 186.227C167.907 186.341 167.358 186.45 166.81 186.561L163.674 187.322C168.218 191.482 179.845 189.911 176.427 198.651C175.801 200.25 177.101 201.904 178.531 202.406C178.616 202.436 178.702 202.462 178.787 202.492C182.239 201.422 185.682 200.324 189.12 199.197C187.043 198.691 184.984 198.111 182.944 197.463Z" fill="#BFBEBF"/>
<path d="M163.14 155.564C163.243 155.171 163.353 154.772 163.469 154.368C157.924 161.342 157.099 189.091 157.099 189.091C158.378 188.71 159.777 188.307 161.208 187.92C161.24 186.325 161.265 184.726 161.309 183.119C161.558 174.018 160.819 164.388 163.14 155.564Z" fill="#D5D5D5"/>
<path d="M163.253 179.399C163.625 177.218 164.489 175.126 165.392 174.071C165.891 173.488 166.537 172.945 167.305 172.907C167.902 172.877 168.468 173.159 169.059 173.245C171.799 173.646 172.44 170.022 173.754 168.393C174.377 167.622 175.319 166.869 176.265 167.168C176.897 167.368 177.311 168.006 177.429 168.657C177.548 169.309 177.424 169.977 177.287 170.625C176.951 172.226 176.538 173.822 176.454 175.456C176.324 178.007 177.827 180.427 179.814 181.943C181.004 182.85 182.591 183.396 183.89 184.149C185.39 185.019 186.85 185.958 188.268 186.955C188.692 187.253 189.116 187.553 189.532 187.861C189.461 187.995 189.388 188.129 189.313 188.261C188.89 189.007 188.433 189.702 188.269 190.029C187.508 191.547 186.75 193.066 186.016 194.597C185.821 195.005 185.632 195.415 185.444 195.828C185.37 195.992 185.296 196.156 185.222 196.32C184.676 195.979 184.13 195.63 183.585 195.275C181.136 193.681 178.841 191.869 176.545 190.066C175.017 188.866 173.355 188.222 171.568 187.531C169.928 186.897 168.503 186.86 166.752 186.622C166.231 186.551 165.702 186.46 165.233 186.223C163.111 185.151 162.774 182.202 163.253 179.399Z" fill="#FFCBA4"/>
<path d="M189.314 188.26C189.39 188.128 189.463 187.994 189.534 187.86C189.117 187.552 188.694 187.253 188.269 186.954C186.851 185.957 185.392 185.018 183.892 184.148C182.592 183.396 181.005 182.85 179.816 181.943C177.828 180.427 176.326 178.008 176.456 175.455C176.539 173.821 176.951 172.225 177.289 170.624C177.425 169.977 177.549 169.308 177.43 168.657C177.365 168.297 177.206 167.944 176.973 167.663C174.718 171.629 174.529 177.374 176.788 180.964C178.976 184.443 184.46 187.693 189.274 188.331C189.287 188.307 189.301 188.285 189.314 188.26Z" fill="#FFE2CC"/>
<path d="M226.266 194.551L227.551 202.471L213.749 211.788C213.749 211.788 205.613 209.348 201.741 207.77C194.275 204.726 186.884 201.599 179.527 198.304C179.253 198.181 178.982 198.055 178.713 197.928C178.81 197.647 178.9 197.366 178.999 197.086C180.671 192.314 182.463 187.575 184.18 182.825C184.225 182.701 184.271 182.577 184.315 182.453C184.515 182.515 184.714 182.577 184.914 182.639C191.25 184.597 197.578 186.581 203.906 188.565C204.438 188.732 204.973 188.896 205.507 189.06L226.266 194.551Z" fill="#E5E5E5"/>
<path d="M184.315 182.454L223.054 193.702L218.166 197.621L183.385 185.012L184.315 182.454Z" fill="#F4F4F4"/>
</svg>
