<svg width="341" height="241" viewBox="0 0 341 241" fill="none" xmlns="http://www.w3.org/2000/svg">
<g filter="url(#filter0_i_8_603)">
<path d="M329.89 74.1691C314.271 45.6967 279.359 28.0227 247.833 35.8191C230.658 40.087 215.628 51.0107 198.303 54.6022C183.6 57.5895 168.312 55.114 155.303 47.6397C136.287 36.6247 124.148 15.937 104.578 5.95035C77.6073 -7.83206 42.4927 3.63116 23.1649 26.9474C-22.6061 82.1637 5.28331 161.667 56.146 201.888C81.9488 222.292 96.7755 229.359 134.078 237.674C165.764 244.77 219.66 234.44 250.679 224.824C281.698 215.208 310.219 195.41 326.533 167.319C342.848 139.228 345.518 102.639 329.89 74.1691Z" fill="#F1F1FA"/>
</g>
<mask id="mask0_8_603" style="mask-type:alpha" maskUnits="userSpaceOnUse" x="0" y="0" width="341" height="241">
<path d="M329.89 74.1691C314.271 45.6967 279.359 28.0227 247.833 35.8191C230.658 40.087 215.628 51.0107 198.303 54.6022C183.6 57.5895 168.312 55.114 155.303 47.6397C136.287 36.6247 124.148 15.937 104.578 5.95035C77.6073 -7.83206 42.4927 3.63116 23.1649 26.9474C-22.6061 82.1637 5.28331 161.667 56.146 201.888C81.9488 222.292 96.7755 229.359 134.078 237.674C165.764 244.77 219.66 234.44 250.679 224.824C281.698 215.208 310.219 195.41 326.533 167.319C342.848 139.228 345.518 102.639 329.89 74.1691Z" fill="#F1F1FA"/>
</mask>
<g mask="url(#mask0_8_603)">
<path d="M243.036 206.156L246.743 207.67L29.4978 267.961C-34.6128 261.151 -157.154 239.56 -134.433 207.67C-106.031 167.809 -74.1422 143.892 0.598206 143.892C90.5475 143.892 102.54 148.789 243.036 206.156Z" fill="#BBBBD6"/>
<path d="M267.877 178.719C306.923 178.719 338.377 187.373 371.458 229.022L265.708 277.702C195.931 270.31 96.7247 278.243 121.454 243.626C152.365 200.355 186.531 178.719 267.877 178.719Z" fill="#BBBBD6" stroke="#F1F1FA" stroke-width="3.98616"/>
<path d="M117.612 121.007C117.612 121.39 117.499 121.764 117.286 122.082C117.073 122.401 116.77 122.649 116.416 122.795C116.062 122.941 115.673 122.978 115.298 122.903C114.922 122.828 114.578 122.643 114.308 122.371C114.038 122.1 113.854 121.755 113.781 121.379C113.707 121.003 113.747 120.614 113.894 120.261C114.042 119.908 114.292 119.606 114.611 119.395C114.93 119.183 115.305 119.072 115.688 119.073C115.941 119.073 116.192 119.123 116.426 119.221C116.66 119.318 116.873 119.461 117.052 119.64C117.231 119.82 117.372 120.033 117.468 120.268C117.565 120.502 117.614 120.754 117.612 121.007Z" fill="#263238"/>
<path d="M126.86 113.418C127.928 113.418 128.793 112.553 128.793 111.485C128.793 110.417 127.928 109.551 126.86 109.551C125.792 109.551 124.926 110.417 124.926 111.485C124.926 112.553 125.792 113.418 126.86 113.418Z" fill="#263238"/>
<path d="M100.758 144.846C100.759 145.228 100.647 145.603 100.436 145.922C100.225 146.242 99.9233 146.491 99.5701 146.639C99.2169 146.786 98.8278 146.826 98.4521 146.752C98.0764 146.679 97.7309 146.495 97.4596 146.225C97.1882 145.955 97.0031 145.611 96.9277 145.235C96.8524 144.86 96.8901 144.471 97.0362 144.117C97.1823 143.763 97.4302 143.46 97.7484 143.247C98.0666 143.035 98.4408 142.921 98.8237 142.921C99.0772 142.92 99.3285 142.969 99.5631 143.065C99.7976 143.161 100.011 143.302 100.191 143.481C100.37 143.66 100.513 143.873 100.61 144.107C100.707 144.341 100.758 144.592 100.758 144.846Z" fill="#263238"/>
<path d="M4.59204 189.151C2.77082 189.122 0.973177 189.57 -0.621826 190.45L-0.624756 190.452C-4.18768 192.492 -6.04141 196.787 -6.06909 202.795V202.796C-6.06909 211.393 -3.40349 218.061 2.24731 223.018L2.34009 223.099L2.45337 223.054C6.91767 221.278 11.1155 218.894 14.928 215.97C16.6631 214.655 18.0788 212.965 19.0686 211.026C20.0584 209.086 20.5969 206.948 20.6438 204.771V204.767C20.6438 199.399 17.611 194.424 12.4885 191.442C10.1031 189.999 7.38014 189.209 4.59302 189.151H4.59204ZM122.422 146.164C121.291 123.506 108.067 101.376 88.7073 89.7748C71.9204 79.7083 50.4198 76.9571 28.1809 82.0072C14.3665 85.1464 -4.46629 92.597 -15.5701 110.287C-21.5516 119.821 -23.7319 130.501 -23.1833 140.172C-22.635 149.84 -19.3585 158.516 -14.4041 164.034C-10.8433 168.004 -5.66221 169.258 -0.0515137 169.248C4.85754 169.24 10.1276 168.265 14.9846 167.27L17.0383 166.845L20.592 166.112L20.593 166.113C23.5167 165.531 28.6558 163.709 34.7063 161.313C40.7626 158.914 47.7494 155.933 54.3772 153.022C61.0052 150.111 67.2756 147.27 71.9006 145.153C74.2132 144.094 76.1148 143.217 77.4436 142.602C78.1076 142.295 78.6287 142.053 78.9866 141.887C79.1284 141.821 79.245 141.767 79.3342 141.726L80.2278 145.088C80.2128 145.095 80.1972 145.102 80.1809 145.11C80.0697 145.161 79.916 145.232 79.7239 145.323C79.3395 145.503 78.7967 145.76 78.1155 146.083C76.7525 146.73 74.8339 147.642 72.5159 148.737C67.8796 150.925 61.6449 153.844 55.0618 156.828C48.4783 159.811 41.5467 162.861 35.5168 165.312C29.4813 167.765 24.3652 169.612 21.4036 170.202C20.2655 170.422 19.0911 170.67 17.8909 170.926C11.9293 172.178 5.24824 173.577 -1.03589 173.448C-7.31563 173.319 -13.1714 171.665 -17.5066 166.836C-23.8096 159.804 -27.3264 149.645 -27.3904 138.218C-27.4603 127.599 -24.5902 117.166 -19.0974 108.078L-19.0984 108.077C-7.22468 89.2001 12.6479 81.2734 27.262 77.9242L27.261 77.9232C50.5624 72.6353 73.1463 75.5666 90.8479 86.1488V86.1498C111.32 98.4881 125.307 121.954 126.55 145.919L126.551 145.925C126.651 147.138 127.876 164.62 118.522 184.408C112.909 196.258 104.553 206.601 94.1467 214.579V214.58C80.9696 224.786 64.0534 231.961 43.8215 236.007C40.1706 236.733 36.457 237.097 32.7346 237.094C28.7643 237.093 24.8055 236.664 20.927 235.815C12.8609 234.041 6.55648 231.438 1.7561 227.885L1.67114 227.823L1.57153 227.858C-4.44046 229.956 -10.7443 231.099 -17.1101 231.246H-17.1111C-37.8289 231.804 -56.591 225.336 -79.615 206.711C-80.6686 204.457 -81.6863 202.084 -82.6697 199.592C-60.6074 217.291 -36.7721 227.575 -17.2195 227.082C-12.1801 226.95 -7.17959 226.155 -2.34741 224.718L-2.03296 224.625L-2.2605 224.388C-7.58086 218.84 -10.2696 211.588 -10.2332 202.76L-10.2214 201.87C-9.98331 193.129 -6.23908 188.975 -3.01147 187.01L-2.69019 186.821C2.13736 184.05 8.76857 184.419 14.6057 187.82C21.0385 191.572 24.8528 197.905 24.8264 204.764C24.7823 207.579 24.1002 210.347 22.8313 212.86C21.5622 215.373 19.7394 217.565 17.5002 219.272H17.4993C14.1377 221.851 10.4952 224.042 6.64087 225.802L6.27856 225.967L6.62817 226.16C17.7329 232.252 30.6147 234.282 43.0549 231.9L43.0569 231.899C62.6103 228.017 78.954 221.078 91.6223 211.267L91.6233 211.268C101.541 203.646 109.505 193.776 114.86 182.472C120.215 171.168 122.807 158.753 122.422 146.25V146.164Z" fill="#302EA7" stroke="black" stroke-width="0.4"/>
<path d="M5.28491 230.411C4.66804 230.238 4.08742 229.956 3.57104 229.577C2.26744 228.753 1.02674 227.834 -0.140818 226.827C-1.32742 225.848 -2.43382 224.775 -3.44941 223.619C-3.90644 223.166 -4.27067 222.627 -4.52173 222.034C-4.46674 222.034 -4.03599 222.584 -3.21113 223.409C-2.38627 224.233 -1.21314 225.333 0.143298 226.479C1.49973 227.625 2.792 228.614 3.74517 229.283C4.28448 229.622 4.79904 229.999 5.28491 230.411Z" fill="#263238"/>
<path d="M10.0873 227.735C9.37266 227.695 8.67243 227.518 8.02513 227.212C6.43651 226.558 4.9539 225.672 3.62589 224.582C2.29205 223.504 1.08931 222.274 0.0423361 220.916C-0.426111 220.369 -0.803633 219.75 -1.07581 219.083C-1.02082 219.083 -0.562556 219.706 0.289797 220.687C1.40332 221.962 2.63037 223.134 3.95583 224.188C5.25705 225.253 6.68177 226.158 8.19926 226.882C9.3174 227.469 10.1056 227.661 10.0873 227.735Z" fill="#263238"/>
<path d="M106.742 197.948C106.371 198.661 105.922 199.331 105.404 199.946C103.05 203.023 100.336 205.808 97.3207 208.24C96.7218 208.775 96.0638 209.239 95.3594 209.624C95.8974 209.052 96.4763 208.519 97.0916 208.03C98.1914 207.049 99.6853 205.665 101.262 204.061C102.838 202.457 104.176 200.908 105.129 199.781C105.622 199.132 106.161 198.519 106.742 197.948Z" fill="white"/>
<path d="M144.457 147.797L136.309 105.912C136.127 105.117 135.643 104.424 134.959 103.979C134.275 103.534 133.445 103.372 132.644 103.528C131.843 103.684 131.134 104.145 130.667 104.814C130.2 105.483 130.011 106.307 130.141 107.113L130.517 109.019L113.662 113.162C111.875 113.6 110.222 114.47 108.85 115.696C107.477 116.921 106.426 118.465 105.789 120.191L95.625 122.694C93.9336 123.11 92.4767 124.181 91.5745 125.671C90.6722 127.161 90.3985 128.948 90.8134 130.64L91.7299 134.306L81.7858 136.762C81.1268 136.924 80.5063 137.215 79.9597 137.617C79.4131 138.02 78.951 138.526 78.6 139.107C78.2489 139.687 78.0157 140.332 77.9136 141.003C77.8116 141.674 77.8427 142.358 78.0052 143.017C78.1676 143.676 78.4583 144.297 78.8606 144.843C79.2629 145.39 79.7689 145.852 80.3497 146.203C80.9306 146.554 81.5749 146.787 82.2459 146.889C82.9169 146.991 83.6014 146.96 84.2603 146.798L94.2136 144.351L94.9193 147.219C95.3356 148.911 96.4065 150.368 97.8965 151.27C99.3864 152.172 101.174 152.446 102.865 152.031L113.213 149.483V149.401C114.569 150.56 116.181 151.38 117.917 151.793C119.652 152.206 121.461 152.199 123.194 151.774L138.151 148.108L138.325 149.025C138.507 149.82 138.991 150.513 139.675 150.958C140.359 151.403 141.189 151.565 141.99 151.409C142.791 151.253 143.5 150.792 143.967 150.123C144.434 149.454 144.623 148.63 144.493 147.824L144.457 147.797Z" fill="#302EA7"/>
<path d="M144.457 147.797C144.52 148.026 144.548 148.264 144.539 148.502C144.527 149.212 144.275 149.897 143.824 150.445C143.453 150.889 142.97 151.225 142.425 151.418C141.881 151.611 141.294 151.655 140.726 151.545C140.171 151.427 139.657 151.164 139.237 150.782C138.817 150.401 138.505 149.914 138.334 149.373C138.215 148.97 138.16 148.557 138.069 148.136L138.188 148.209L127.19 150.959L123.899 151.784C122.734 152.118 121.528 152.285 120.316 152.278C117.662 152.228 115.109 151.256 113.094 149.529L113.369 149.355V149.428L113.414 149.602H113.24C109.748 150.455 106.092 151.435 102.16 152.306C101.111 152.44 100.045 152.328 99.0478 151.978C98.0501 151.628 97.148 151.05 96.4132 150.29C95.6509 149.505 95.0938 148.545 94.791 147.494C94.5069 146.449 94.2686 145.405 94.0028 144.351L94.2502 144.506L85.855 146.624C85.131 146.779 84.4436 146.999 83.6646 147.118C82.6718 147.239 81.6651 147.081 80.7576 146.66C79.8502 146.24 79.0782 145.575 78.5285 144.739C77.9789 143.904 77.6734 142.931 77.6465 141.932C77.6196 140.932 77.8723 139.945 78.3763 139.081C78.8009 138.381 79.3724 137.782 80.0512 137.324C80.7301 136.867 81.5001 136.563 82.3081 136.432L91.6748 134.132L91.5099 134.397C91.3266 133.637 91.1341 132.848 90.9325 132.051C90.6951 131.233 90.5265 130.396 90.4284 129.549C90.303 127.802 90.858 126.075 91.9773 124.728C92.5244 124.066 93.1933 123.516 93.9478 123.106C94.6994 122.72 95.5016 122.443 96.3307 122.281L105.734 119.972L105.587 120.109C106.484 117.711 108.151 115.677 110.326 114.326C111.387 113.68 112.544 113.206 113.754 112.924L117.236 112.062L130.471 108.827L130.324 109.056C130.223 108.561 130.132 108.057 130.031 107.562C129.9 107.057 129.866 106.531 129.93 106.013C130.012 105.501 130.213 105.014 130.517 104.593C130.821 104.173 131.219 103.829 131.679 103.589C132.14 103.349 132.65 103.221 133.169 103.214C133.688 103.207 134.201 103.321 134.668 103.548C135.125 103.757 135.528 104.068 135.846 104.457C136.164 104.846 136.388 105.303 136.501 105.793L138.508 116.159C139.755 122.666 140.846 128.348 141.744 133.05C142.642 137.752 143.329 141.418 143.815 143.957C144.044 145.203 144.218 146.165 144.337 146.834C144.392 147.155 144.438 147.393 144.466 147.577C144.474 147.662 144.474 147.748 144.466 147.833C144.435 147.754 144.414 147.671 144.402 147.586C144.402 147.403 144.31 147.164 144.246 146.853L143.65 143.975C143.146 141.445 142.413 137.761 141.478 133.096C140.543 128.431 139.434 122.721 138.151 116.223C137.509 112.972 136.828 109.523 136.107 105.876C136.006 105.444 135.809 105.04 135.529 104.696C135.25 104.351 134.896 104.075 134.494 103.887C134.08 103.69 133.626 103.593 133.167 103.603C132.709 103.614 132.259 103.731 131.855 103.947C131.45 104.163 131.102 104.47 130.837 104.845C130.573 105.22 130.4 105.651 130.333 106.105C130.268 106.58 130.3 107.063 130.425 107.525C130.526 108.02 130.626 108.515 130.718 109.019V109.203L130.535 109.248L117.31 112.52C115.027 113.153 112.571 113.437 110.527 114.729C108.426 116.029 106.814 117.988 105.945 120.301L105.899 120.411H105.789L96.3857 122.73C95.5947 122.88 94.8293 123.142 94.1128 123.509C93.4129 123.895 92.7912 124.408 92.2797 125.021C91.2317 126.277 90.7125 127.89 90.8316 129.522C90.9259 130.344 91.0915 131.157 91.3266 131.95C91.519 132.757 91.7207 133.545 91.904 134.306L91.959 134.516L91.739 134.571L82.4273 136.872C81.6738 136.981 80.9541 137.257 80.3201 137.679C79.6861 138.1 79.1537 138.657 78.7612 139.31C78.3086 140.101 78.0845 141.002 78.1139 141.913C78.1433 142.824 78.425 143.709 78.9277 144.469C79.4304 145.229 80.1343 145.835 80.9609 146.218C81.7875 146.602 82.7045 146.749 83.6096 146.642C84.3061 146.55 85.0393 146.321 85.7542 146.156L94.1402 144.103L94.3419 144.057L94.3877 144.25C94.6535 145.304 94.8918 146.367 95.1667 147.384C95.4505 148.373 95.973 149.276 96.6881 150.015C97.379 150.732 98.2273 151.278 99.1658 151.61C100.104 151.943 101.107 152.052 102.096 151.93C105.954 151.069 109.675 150.097 113.149 149.263L113.03 149.474V149.401L112.901 148.878L113.304 149.226C115.261 150.903 117.74 151.846 120.316 151.894C121.5 151.904 122.679 151.743 123.817 151.417L127.107 150.62L138.105 147.953H138.206V148.053C138.298 148.475 138.353 148.906 138.463 149.281C138.573 149.652 138.753 149.997 138.994 150.299C139.442 150.843 140.057 151.224 140.745 151.38C141.184 151.471 141.638 151.465 142.075 151.363C142.512 151.262 142.922 151.066 143.277 150.791C143.631 150.516 143.922 150.167 144.129 149.769C144.336 149.371 144.454 148.932 144.475 148.484C144.48 148.255 144.474 148.025 144.457 147.797Z" fill="#263238"/>
<path d="M138.481 148.017C138.362 148.017 136.4 139.346 134.1 128.605C131.8 117.864 130.022 109.12 130.15 109.093C130.278 109.065 132.23 117.754 134.54 128.504C136.85 139.255 138.609 147.989 138.481 148.017Z" fill="#263238"/>
<path d="M113.177 149.373C113.057 149.373 111.344 142.875 109.272 134.801C107.201 126.726 105.689 120.136 105.808 120.136C105.927 120.136 107.641 126.635 109.712 134.727C111.783 142.82 113.296 149.373 113.177 149.373Z" fill="#263238"/>
<path d="M94.1955 144.351C93.5232 142.762 93.0343 141.101 92.7383 139.401C92.2995 137.737 91.9628 136.048 91.7301 134.342C92.3976 135.935 92.8833 137.599 93.1782 139.301C93.6174 140.962 93.9572 142.649 94.1955 144.351Z" fill="#263238"/>
<path d="M103.232 122.602C103.232 122.666 102.252 122.813 100.675 123.143C99.8871 123.308 98.9523 123.518 97.9258 123.803C96.8215 124.086 95.7564 124.505 94.7547 125.049C93.7372 125.511 92.9342 126.343 92.5092 127.377C92.3033 128.28 92.2846 129.216 92.4542 130.126C92.6559 131.712 92.9217 132.683 92.8575 132.702C92.4848 131.902 92.2405 131.048 92.1334 130.172C91.9249 129.218 91.9249 128.23 92.1334 127.276C92.2969 126.699 92.6136 126.176 93.05 125.764C93.498 125.334 94.0002 124.964 94.5439 124.664C95.575 124.095 96.6789 123.67 97.825 123.399C98.8698 123.133 99.8229 122.959 100.574 122.831C101.446 122.637 102.34 122.56 103.232 122.602Z" fill="white"/>
<path d="M127.337 111.485C127.062 111.617 126.768 111.707 126.466 111.75C125.907 111.888 125.082 112.08 124.065 112.3L116.128 113.968C114.689 114.268 113.297 114.755 111.985 115.416C110.922 115.969 109.986 116.737 109.235 117.671C108.565 118.554 108.098 119.574 107.87 120.659C107.822 120.352 107.844 120.039 107.934 119.742C108.136 118.923 108.5 118.153 109.006 117.479C109.752 116.479 110.705 115.653 111.802 115.059C113.136 114.348 114.565 113.833 116.045 113.528C119.161 112.859 121.975 112.364 124.028 111.989C125.045 111.805 125.861 111.668 126.457 111.576C126.746 111.514 127.041 111.483 127.337 111.485Z" fill="white"/>
<path d="M89.9885 136.624C89.457 136.985 88.8535 137.226 88.2196 137.33C87.074 137.642 85.4701 137.77 83.7379 138.137C82.9378 138.299 82.1638 138.571 81.4374 138.943C80.851 139.248 80.3209 139.651 79.8702 140.135C79.4811 140.616 79.146 141.138 78.8712 141.693C78.9115 141.037 79.177 140.415 79.6228 139.933C80.068 139.381 80.6157 138.921 81.2358 138.577C81.9837 138.148 82.7939 137.839 83.6371 137.66C85.4059 137.284 87.019 137.211 88.1463 136.982C89.2736 136.753 89.961 136.542 89.9885 136.624Z" fill="white"/>
<path d="M134.201 104.354C134.201 104.427 133.862 104.418 133.376 104.547C132.757 104.715 132.2 105.058 131.773 105.536C131.36 106.034 131.108 106.644 131.048 107.287C130.993 107.782 131.048 108.112 130.984 108.121C130.92 108.13 130.755 107.837 130.728 107.278C130.697 106.536 130.945 105.81 131.424 105.243C131.911 104.686 132.587 104.327 133.321 104.235C133.88 104.171 134.21 104.299 134.201 104.354Z" fill="white"/>
<path d="M256.394 153.975C257.534 155.361 266.171 165.703 279.138 176.644C292.927 188.277 311.636 200.608 331.447 203.54C341.922 205.093 349.243 204.044 354.864 201.787C360.481 199.532 364.384 196.077 368.021 192.861C371.289 189.97 374.433 187.189 378.354 185.721C382.263 184.257 386.964 184.091 393.352 186.482C398.965 188.591 401.58 192.075 402.726 196.105C403.877 200.154 403.548 204.764 403.231 209.13C402.865 214.218 402.518 219.017 404.025 223.065C405.542 227.137 408.922 230.416 415.921 232.514V232.515C419.9 233.706 424.178 233.017 428.532 231.104C432.886 229.191 437.333 226.047 441.665 222.301C449.245 215.746 456.498 207.324 462.308 200.361L464.707 197.477C466.908 194.83 468.768 192.554 470.384 190.689C471.946 188.886 473.271 187.479 474.445 186.499L477.601 189.017C476.816 189.95 475.444 191.484 473.781 193.361C472.023 195.345 469.946 197.708 467.91 200.144L467.909 200.145C461.647 207.703 453.94 216.994 445.661 224.396C437.374 231.804 428.556 237.282 420.075 237.282H420.074C418.263 237.288 416.46 237.028 414.724 236.512C406.068 233.919 401.999 229.514 400.165 224.526C398.323 219.518 398.722 213.896 399.076 208.837L399.075 208.836C399.413 204.139 399.595 200.268 398.705 197.207C398.258 195.67 397.54 194.332 396.435 193.193C395.332 192.056 393.851 191.125 391.889 190.389C386.722 188.453 383.045 188.415 379.846 189.598C376.663 190.775 373.976 193.154 370.781 195.98C366.967 199.353 362.714 203.117 356.551 205.618C350.392 208.118 342.309 209.363 330.837 207.663C318.961 205.9 299.748 199.621 276.212 179.682L276.211 179.681C267.869 172.664 260.153 164.936 253.151 156.582L256.394 153.975Z" fill="#302EA7" stroke="black" stroke-width="0.4"/>
<path d="M355.47 201.4C355.47 201.4 355.287 201.574 354.92 201.803C354.406 202.143 353.871 202.45 353.316 202.719C351.484 203.616 349.548 204.281 347.552 204.699C345.557 205.11 343.518 205.267 341.484 205.167C340.87 205.134 340.258 205.07 339.651 204.974C339.425 204.955 339.202 204.902 338.991 204.818C338.991 204.745 339.963 204.818 341.503 204.818C345.524 204.838 349.505 204.014 353.188 202.399C354.59 201.757 355.434 201.29 355.47 201.4Z" fill="white"/>
<path d="M256.909 157.563C255.969 158.597 254.657 159.215 253.262 159.282C251.866 159.349 250.501 158.86 249.467 157.921L241.42 150.588L248.514 142.789L256.551 150.121C257.585 151.061 258.204 152.373 258.271 153.768C258.338 155.164 257.848 156.529 256.909 157.563Z" fill="#302EA7"/>
<path d="M256.909 157.563C257.179 157.168 257.427 156.758 257.651 156.335C258.217 155.139 258.306 153.772 257.899 152.513C257.623 151.642 257.12 150.861 256.441 150.249L254.013 148.077C252.299 146.519 250.392 144.805 248.367 142.981H248.679L245.132 146.886L241.585 150.781V150.469L247.194 155.574L249.595 157.783C250.266 158.399 251.088 158.825 251.978 159.02C253.272 159.304 254.625 159.084 255.763 158.406C256.165 158.142 256.55 157.854 256.918 157.545C256.624 157.938 256.261 158.273 255.846 158.535C254.69 159.296 253.28 159.569 251.923 159.295C250.973 159.11 250.09 158.673 249.366 158.03C248.605 157.352 247.799 156.619 246.937 155.858L241.282 150.753L241.117 150.607L241.273 150.442L244.811 146.537L248.358 142.651L248.504 142.487L248.669 142.633L254.278 147.775L256.68 149.984C257.391 150.642 257.911 151.482 258.183 152.412C258.581 153.734 258.443 155.16 257.798 156.381C257.581 156.829 257.279 157.23 256.909 157.563Z" fill="#263238"/>
<path d="M216.252 113.534L202.376 102.059C202.118 101.845 201.903 101.582 201.746 101.285C201.589 100.988 201.492 100.663 201.46 100.329C201.429 99.9941 201.464 99.6567 201.563 99.3356C201.662 99.0145 201.823 98.7161 202.037 98.4574C202.252 98.1985 202.515 97.9843 202.812 97.8272C203.109 97.67 203.434 97.5729 203.768 97.5414C204.103 97.5099 204.44 97.5447 204.761 97.6436C205.082 97.7426 205.381 97.9039 205.639 98.1183L219.506 109.593L216.252 113.534Z" fill="#302EA7"/>
<path d="M203.201 130.297L189.344 118.822C189.084 118.609 188.869 118.346 188.711 118.05C188.553 117.753 188.455 117.428 188.423 117.094C188.39 116.759 188.424 116.421 188.523 116.1C188.621 115.779 188.781 115.48 188.995 115.22C189.209 114.96 189.472 114.745 189.768 114.587C190.065 114.43 190.391 114.332 190.726 114.301C191.06 114.269 191.398 114.304 191.719 114.404C192.041 114.503 192.339 114.666 192.597 114.881L206.473 126.347L203.201 130.297Z" fill="#302EA7"/>
<g opacity="0.6">
<path opacity="0.6" d="M216.252 113.534L202.376 102.059C202.118 101.845 201.903 101.582 201.746 101.285C201.589 100.988 201.492 100.663 201.46 100.329C201.429 99.9941 201.464 99.6567 201.563 99.3356C201.662 99.0145 201.823 98.7161 202.037 98.4574C202.252 98.1985 202.515 97.9843 202.812 97.8272C203.109 97.67 203.434 97.5729 203.768 97.5414C204.103 97.5099 204.44 97.5447 204.761 97.6436C205.082 97.7426 205.381 97.9039 205.639 98.1183L219.506 109.593L216.252 113.534Z" fill="white"/>
</g>
<g opacity="0.6">
<path opacity="0.6" d="M203.201 130.297L189.344 118.822C189.084 118.609 188.869 118.346 188.711 118.05C188.553 117.753 188.455 117.428 188.423 117.094C188.39 116.759 188.424 116.421 188.523 116.1C188.621 115.779 188.781 115.48 188.995 115.22C189.209 114.96 189.472 114.745 189.768 114.587C190.065 114.43 190.391 114.332 190.726 114.301C191.06 114.269 191.398 114.304 191.719 114.404C192.041 114.503 192.339 114.666 192.597 114.881L206.473 126.347L203.201 130.297Z" fill="white"/>
</g>
<path d="M216.252 113.534C216.316 113.429 216.386 113.328 216.463 113.232L217.086 112.425L219.405 109.501V109.694L212.889 104.396L208.81 101.042L206.62 99.2089L205.493 98.2924C205.149 97.9967 204.724 97.8115 204.274 97.7609C203.893 97.7121 203.506 97.7585 203.148 97.8961C202.789 98.0337 202.471 98.258 202.221 98.5491C201.978 98.8332 201.807 99.1709 201.721 99.5342C201.635 99.8975 201.637 100.276 201.726 100.639C201.814 100.98 201.983 101.295 202.221 101.555C202.479 101.826 202.758 102.078 203.055 102.307L204.778 103.736L210.717 108.731L214.74 112.159L215.84 113.076C215.98 113.188 216.112 113.311 216.234 113.442C216.097 113.363 215.968 113.271 215.849 113.167L214.749 112.251C213.732 111.435 212.339 110.326 210.653 108.961L204.549 104.002L202.789 102.563C202.468 102.316 202.162 102.05 201.872 101.766C201.485 101.347 201.237 100.817 201.164 100.25C201.091 99.6835 201.197 99.1082 201.466 98.6043C201.735 98.1004 202.154 97.6928 202.666 97.4381C203.177 97.1835 203.755 97.0945 204.319 97.1835C204.855 97.2524 205.36 97.4716 205.777 97.8158L206.895 98.7324L209.076 100.565L213.136 103.947L219.552 109.346L219.662 109.437L219.57 109.538L217.086 112.434L216.427 113.167C216.384 113.296 216.326 113.42 216.252 113.534Z" fill="#263238"/>
<path d="M203.201 130.297C203.264 130.189 203.337 130.087 203.421 129.994C203.586 129.775 203.788 129.509 204.044 129.188L206.363 126.264V126.457L199.847 121.15L195.768 117.805L193.578 115.972L192.451 115.055C192.1 114.765 191.674 114.581 191.222 114.524C190.841 114.479 190.455 114.528 190.097 114.667C189.739 114.806 189.42 115.03 189.17 115.321C188.926 115.605 188.755 115.943 188.67 116.306C188.586 116.67 188.59 117.049 188.684 117.411C188.77 117.751 188.937 118.065 189.17 118.327C189.432 118.596 189.713 118.844 190.013 119.07L191.727 120.509L197.675 125.504L201.698 128.931L202.798 129.848C202.939 129.955 203.069 130.078 203.183 130.214C203.183 130.214 203.055 130.132 202.807 129.94L201.698 129.069L197.601 125.779L191.507 120.82L189.747 119.372C189.421 119.13 189.115 118.864 188.83 118.575C188.545 118.25 188.344 117.859 188.244 117.438C188.132 117.008 188.127 116.558 188.227 116.125C188.328 115.693 188.532 115.291 188.821 114.955C189.124 114.615 189.505 114.354 189.932 114.194C190.358 114.034 190.817 113.981 191.268 114.038C191.804 114.107 192.309 114.327 192.726 114.67C193.101 114.991 193.477 115.294 193.853 115.587L196.034 117.42L200.094 120.793L206.51 126.2L206.611 126.292L206.528 126.393C205.483 127.593 204.649 128.565 204.035 129.28L203.385 130.022C203.293 130.224 203.201 130.306 203.201 130.297Z" fill="#263238"/>
<path d="M247.78 128.079L248.147 127.639C248.922 126.706 249.323 125.519 249.274 124.308C249.225 123.096 248.729 121.946 247.881 121.078C247.033 120.211 245.894 119.689 244.684 119.613C243.474 119.536 242.278 119.911 241.328 120.664L221.018 103.746L197.785 131.543L218.571 148.041C217.927 149.048 217.672 150.256 217.856 151.437C218.04 152.619 218.65 153.692 219.57 154.456C220.555 155.271 221.821 155.668 223.095 155.562C224.37 155.455 225.552 154.855 226.389 153.888C229.323 156.101 233.004 157.084 236.651 156.627C240.297 156.17 243.622 154.31 245.92 151.441L249.256 147.28C251.482 144.486 252.568 140.952 252.294 137.389C252.021 133.827 250.408 130.5 247.78 128.079Z" fill="#302EA7"/>
<path d="M247.78 128.079L247.955 128.235L248.44 128.702C248.709 128.95 248.958 129.22 249.183 129.509L249.632 130.059L250.09 130.728C250.9 131.896 251.519 133.186 251.923 134.549C252.533 136.607 252.666 138.777 252.312 140.894C251.958 143.011 251.126 145.019 249.879 146.767C249.137 147.821 248.275 148.82 247.432 149.91C246.582 151.062 245.641 152.144 244.618 153.145C242.294 155.32 239.303 156.644 236.132 156.903C232.62 157.208 229.12 156.21 226.297 154.099H226.582C225.724 155.076 224.53 155.695 223.236 155.831C222.564 155.902 221.885 155.837 221.238 155.642C220.592 155.447 219.99 155.125 219.469 154.694C218.508 153.895 217.872 152.773 217.679 151.537C217.487 150.302 217.752 149.039 218.425 147.986L218.471 148.27L202.349 135.411L197.647 131.672L197.464 131.534L197.611 131.351C206.079 121.269 213.989 111.793 220.872 103.581L221 103.425L221.147 103.553L241.411 120.518H241.255C241.996 119.935 242.886 119.573 243.824 119.475C244.762 119.377 245.708 119.546 246.553 119.963C247.399 120.38 248.109 121.028 248.602 121.832C249.095 122.635 249.35 123.562 249.339 124.505C249.321 125.493 249.001 126.453 248.422 127.254C248.275 127.456 248.116 127.649 247.945 127.831L247.771 128.024C247.771 128.024 247.991 127.749 248.367 127.217C248.907 126.402 249.194 125.446 249.192 124.468C249.189 123.697 249.002 122.938 248.646 122.254C248.291 121.57 247.777 120.981 247.148 120.536C246.351 119.949 245.389 119.628 244.399 119.62C243.298 119.606 242.227 119.972 241.365 120.655L241.282 120.719L241.2 120.655L220.853 103.791H221.128L197.959 131.653V131.333L202.652 135.072L218.736 147.903L218.892 148.022L218.782 148.187C218.16 149.148 217.91 150.303 218.079 151.435C218.247 152.567 218.823 153.599 219.699 154.337C220.643 155.118 221.855 155.498 223.076 155.397C224.297 155.296 225.43 154.722 226.233 153.796L226.362 153.659L226.508 153.769C229.124 155.721 232.341 156.696 235.601 156.524C238.861 156.351 241.957 155.042 244.353 152.825C245.35 151.834 246.269 150.768 247.102 149.635C247.955 148.554 248.834 147.546 249.568 146.519C251.206 144.228 252.119 141.498 252.188 138.683C252.256 135.867 251.478 133.096 249.953 130.728C249.797 130.489 249.65 130.26 249.503 130.049L249.064 129.5C248.844 129.203 248.605 128.921 248.349 128.656L247.881 128.171C247.808 128.11 247.774 128.079 247.78 128.079Z" fill="#263238"/>
<path d="M224.529 128.612L210.198 116.761L207.879 119.565L222.21 131.416L224.529 128.612Z" fill="#E0E0E0"/>
<path d="M247.78 128.079C247.555 128.461 247.297 128.822 247.01 129.16C246.497 129.848 245.736 130.819 244.783 132.011C242.886 134.403 240.201 137.656 237.204 141.222C234.207 144.787 231.54 147.949 229.514 150.341L227.186 153.091C226.911 153.442 226.604 153.767 226.27 154.062C226.495 153.68 226.753 153.319 227.04 152.981C227.553 152.293 228.313 151.322 229.267 150.13C231.164 147.738 233.849 144.484 236.846 140.965L244.536 131.8L246.873 129.05C247.144 128.699 247.448 128.373 247.78 128.079Z" fill="#263238"/>
<path d="M241.328 120.628C241.088 121.031 240.812 121.411 240.503 121.764C239.944 122.479 239.119 123.506 238.102 124.761C236.049 127.272 233.171 130.7 229.963 134.458C226.755 138.216 223.878 141.552 221.715 144.072C220.688 145.245 219.882 146.226 219.203 146.968C218.908 147.336 218.583 147.68 218.232 147.995C218.482 147.596 218.76 147.216 219.066 146.858C219.625 146.143 220.441 145.117 221.467 143.861C223.52 141.35 226.398 137.922 229.606 134.165L237.854 124.56L240.366 121.654C240.66 121.288 240.981 120.945 241.328 120.628Z" fill="#263238"/>
<path d="M206.279 80.5127H199.661L202.961 71.4877L192.879 85.3093H199.498L196.198 94.3344L206.279 80.5127Z" fill="#BBBBD6"/>
<path d="M157.911 90.5774H147.953L152.918 107.232L137.748 81.7262H147.706L142.741 65.0721L157.911 90.5774Z" fill="#BBBBD6"/>
</g>
<defs>
<filter id="filter0_i_8_603" x="0" y="0" width="340.296" height="245.652" filterUnits="userSpaceOnUse" color-interpolation-filters="sRGB">
<feFlood flood-opacity="0" result="BackgroundImageFix"/>
<feBlend mode="normal" in="SourceGraphic" in2="BackgroundImageFix" result="shape"/>
<feColorMatrix in="SourceAlpha" type="matrix" values="0 0 0 0 0 0 0 0 0 0 0 0 0 0 0 0 0 0 127 0" result="hardAlpha"/>
<feOffset dy="5.62608"/>
<feGaussianBlur stdDeviation="7.50145"/>
<feComposite in2="hardAlpha" operator="arithmetic" k2="-1" k3="1"/>
<feColorMatrix type="matrix" values="0 0 0 0 0 0 0 0 0 0 0 0 0 0 0 0 0 0 0.25 0"/>
<feBlend mode="normal" in2="shape" result="effect1_innerShadow_8_603"/>
</filter>
</defs>
</svg>
