<svg width="236" height="108" viewBox="0 0 236 108" fill="none" xmlns="http://www.w3.org/2000/svg">
<path d="M35.68 15.92V21.4H28.24V44H21.4V21.4H13.96V15.92H35.68ZM59.7528 32.48C59.7528 33.12 59.7128 33.7867 59.6328 34.48H44.1528C44.2595 35.8667 44.6995 36.9333 45.4728 37.68C46.2728 38.4 47.2461 38.76 48.3928 38.76C50.0995 38.76 51.2861 38.04 51.9528 36.6H59.2328C58.8595 38.0667 58.1795 39.3867 57.1928 40.56C56.2328 41.7333 55.0195 42.6533 53.5528 43.32C52.0861 43.9867 50.4461 44.32 48.6328 44.32C46.4461 44.32 44.4995 43.8533 42.7928 42.92C41.0861 41.9867 39.7528 40.6533 38.7928 38.92C37.8328 37.1867 37.3528 35.16 37.3528 32.84C37.3528 30.52 37.8195 28.4933 38.7528 26.76C39.7128 25.0267 41.0461 23.6933 42.7528 22.76C44.4595 21.8267 46.4195 21.36 48.6328 21.36C50.7928 21.36 52.7128 21.8133 54.3928 22.72C56.0728 23.6267 57.3795 24.92 58.3128 26.6C59.2728 28.28 59.7528 30.24 59.7528 32.48ZM52.7528 30.68C52.7528 29.5067 52.3528 28.5733 51.5528 27.88C50.7528 27.1867 49.7528 26.84 48.5528 26.84C47.4061 26.84 46.4328 27.1733 45.6328 27.84C44.8595 28.5067 44.3795 29.4533 44.1928 30.68H52.7528ZM91.4413 21.44C94.2146 21.44 96.4146 22.28 98.0413 23.96C99.6946 25.64 100.521 27.9733 100.521 30.96V44H93.7213V31.88C93.7213 30.44 93.3346 29.3333 92.5613 28.56C91.8146 27.76 90.7746 27.36 89.4413 27.36C88.1079 27.36 87.0546 27.76 86.2813 28.56C85.5346 29.3333 85.1613 30.44 85.1613 31.88V44H78.3613V31.88C78.3613 30.44 77.9746 29.3333 77.2013 28.56C76.4546 27.76 75.4146 27.36 74.0813 27.36C72.7479 27.36 71.6946 27.76 70.9213 28.56C70.1746 29.3333 69.8013 30.44 69.8013 31.88V44H62.9613V21.68H69.8013V24.48C70.4946 23.5467 71.4013 22.8133 72.5213 22.28C73.6413 21.72 74.9079 21.44 76.3213 21.44C78.0013 21.44 79.4946 21.8 80.8013 22.52C82.1346 23.24 83.1746 24.2667 83.9213 25.6C84.6946 24.3733 85.7479 23.3733 87.0813 22.6C88.4146 21.8267 89.8679 21.44 91.4413 21.44ZM103.545 32.8C103.545 30.5067 103.972 28.4933 104.825 26.76C105.705 25.0267 106.892 23.6933 108.385 22.76C109.878 21.8267 111.545 21.36 113.385 21.36C114.958 21.36 116.332 21.68 117.505 22.32C118.705 22.96 119.625 23.8 120.265 24.84V21.68H127.105V44H120.265V40.84C119.598 41.88 118.665 42.72 117.465 43.36C116.292 44 114.918 44.32 113.345 44.32C111.532 44.32 109.878 43.8533 108.385 42.92C106.892 41.96 105.705 40.6133 104.825 38.88C103.972 37.12 103.545 35.0933 103.545 32.8ZM120.265 32.84C120.265 31.1333 119.785 29.7867 118.825 28.8C117.892 27.8133 116.745 27.32 115.385 27.32C114.025 27.32 112.865 27.8133 111.905 28.8C110.972 29.76 110.505 31.0933 110.505 32.8C110.505 34.5067 110.972 35.8667 111.905 36.88C112.865 37.8667 114.025 38.36 115.385 38.36C116.745 38.36 117.892 37.8667 118.825 36.88C119.785 35.8933 120.265 34.5467 120.265 32.84ZM145.253 21.44C147.867 21.44 149.947 22.2933 151.493 24C153.067 25.68 153.853 28 153.853 30.96V44H147.053V31.88C147.053 30.3867 146.667 29.2267 145.893 28.4C145.12 27.5733 144.08 27.16 142.773 27.16C141.467 27.16 140.427 27.5733 139.653 28.4C138.88 29.2267 138.493 30.3867 138.493 31.88V44H131.653V21.68H138.493V24.64C139.187 23.6533 140.12 22.88 141.293 22.32C142.467 21.7333 143.787 21.44 145.253 21.44ZM31.76 96L22.32 83.6V96H15.48V67.92H22.32V80.24L31.68 67.92H39.72L28.84 81.68L40.12 96H31.76ZM53.1306 96.32C50.944 96.32 48.9706 95.8533 47.2106 94.92C45.4773 93.9867 44.104 92.6533 43.0906 90.92C42.104 89.1867 41.6106 87.16 41.6106 84.84C41.6106 82.5467 42.1173 80.5333 43.1306 78.8C44.144 77.04 45.5306 75.6933 47.2906 74.76C49.0506 73.8267 51.024 73.36 53.2106 73.36C55.3973 73.36 57.3706 73.8267 59.1306 74.76C60.8906 75.6933 62.2773 77.04 63.2906 78.8C64.304 80.5333 64.8106 82.5467 64.8106 84.84C64.8106 87.1333 64.2906 89.16 63.2506 90.92C62.2373 92.6533 60.8373 93.9867 59.0506 94.92C57.2906 95.8533 55.3173 96.32 53.1306 96.32ZM53.1306 90.4C54.4373 90.4 55.544 89.92 56.4506 88.96C57.384 88 57.8506 86.6267 57.8506 84.84C57.8506 83.0533 57.3973 81.68 56.4906 80.72C55.6106 79.76 54.5173 79.28 53.2106 79.28C51.8773 79.28 50.7706 79.76 49.8906 80.72C49.0106 81.6533 48.5706 83.0267 48.5706 84.84C48.5706 86.6267 48.9973 88 49.8506 88.96C50.7306 89.92 51.824 90.4 53.1306 90.4ZM81.6394 73.44C84.2527 73.44 86.3327 74.2933 87.8794 76C89.4527 77.68 90.2394 80 90.2394 82.96V96H83.4394V83.88C83.4394 82.3867 83.0527 81.2267 82.2794 80.4C81.506 79.5733 80.466 79.16 79.1594 79.16C77.8527 79.16 76.8127 79.5733 76.0394 80.4C75.266 81.2267 74.8794 82.3867 74.8794 83.88V96H68.0394V73.68H74.8794V76.64C75.5727 75.6533 76.506 74.88 77.6794 74.32C78.8527 73.7333 80.1727 73.44 81.6394 73.44ZM103.673 96.32C101.726 96.32 99.9925 95.9867 98.4725 95.32C96.9525 94.6533 95.7525 93.7467 94.8725 92.6C93.9925 91.4267 93.4992 90.12 93.3925 88.68H100.153C100.233 89.4533 100.593 90.08 101.233 90.56C101.873 91.04 102.659 91.28 103.593 91.28C104.446 91.28 105.099 91.12 105.553 90.8C106.033 90.4533 106.273 90.0133 106.273 89.48C106.273 88.84 105.939 88.3733 105.273 88.08C104.606 87.76 103.526 87.4133 102.033 87.04C100.433 86.6667 99.0992 86.28 98.0325 85.88C96.9658 85.4533 96.0458 84.8 95.2725 83.92C94.4992 83.0133 94.1125 81.8 94.1125 80.28C94.1125 79 94.4592 77.84 95.1525 76.8C95.8725 75.7333 96.9125 74.8933 98.2725 74.28C99.6592 73.6667 101.299 73.36 103.193 73.36C105.993 73.36 108.193 74.0533 109.793 75.44C111.419 76.8267 112.353 78.6667 112.593 80.96H106.273C106.166 80.1867 105.819 79.5733 105.233 79.12C104.673 78.6667 103.926 78.44 102.993 78.44C102.193 78.44 101.579 78.6 101.153 78.92C100.726 79.2133 100.513 79.6267 100.513 80.16C100.513 80.8 100.846 81.28 101.513 81.6C102.206 81.92 103.273 82.24 104.713 82.56C106.366 82.9867 107.713 83.4133 108.753 83.84C109.793 84.24 110.699 84.9067 111.473 85.84C112.273 86.7467 112.686 87.9733 112.713 89.52C112.713 90.8267 112.339 92 111.593 93.04C110.873 94.0533 109.819 94.8533 108.433 95.44C107.073 96.0267 105.486 96.32 103.673 96.32ZM137.537 84.48C137.537 85.12 137.497 85.7867 137.417 86.48H121.937C122.044 87.8667 122.484 88.9333 123.257 89.68C124.057 90.4 125.031 90.76 126.177 90.76C127.884 90.76 129.071 90.04 129.737 88.6H137.017C136.644 90.0667 135.964 91.3867 134.977 92.56C134.017 93.7333 132.804 94.6533 131.337 95.32C129.871 95.9867 128.231 96.32 126.417 96.32C124.231 96.32 122.284 95.8533 120.577 94.92C118.871 93.9867 117.537 92.6533 116.577 90.92C115.617 89.1867 115.137 87.16 115.137 84.84C115.137 82.52 115.604 80.4933 116.537 78.76C117.497 77.0267 118.831 75.6933 120.537 74.76C122.244 73.8267 124.204 73.36 126.417 73.36C128.577 73.36 130.497 73.8133 132.177 74.72C133.857 75.6267 135.164 76.92 136.097 78.6C137.057 80.28 137.537 82.24 137.537 84.48ZM130.537 82.68C130.537 81.5067 130.137 80.5733 129.337 79.88C128.537 79.1867 127.537 78.84 126.337 78.84C125.191 78.84 124.217 79.1733 123.417 79.84C122.644 80.5067 122.164 81.4533 121.977 82.68H130.537ZM147.586 66.4V96H140.746V66.4H147.586ZM155.583 71.36C154.383 71.36 153.396 71.0133 152.623 70.32C151.876 69.6 151.503 68.72 151.503 67.68C151.503 66.6133 151.876 65.7333 152.623 65.04C153.396 64.32 154.383 63.96 155.583 63.96C156.756 63.96 157.716 64.32 158.463 65.04C159.236 65.7333 159.623 66.6133 159.623 67.68C159.623 68.72 159.236 69.6 158.463 70.32C157.716 71.0133 156.756 71.36 155.583 71.36ZM158.983 73.68V96H152.143V73.68H158.983ZM177.139 73.44C179.753 73.44 181.833 74.2933 183.379 76C184.953 77.68 185.739 80 185.739 82.96V96H178.939V83.88C178.939 82.3867 178.553 81.2267 177.779 80.4C177.006 79.5733 175.966 79.16 174.659 79.16C173.353 79.16 172.313 79.5733 171.539 80.4C170.766 81.2267 170.379 82.3867 170.379 83.88V96H163.539V73.68H170.379V76.64C171.073 75.6533 172.006 74.88 173.179 74.32C174.353 73.7333 175.673 73.44 177.139 73.44ZM198.573 73.36C200.146 73.36 201.519 73.68 202.693 74.32C203.893 74.96 204.813 75.8 205.453 76.84V73.68H212.293V95.96C212.293 98.0133 211.879 99.8667 211.053 101.52C210.253 103.2 209.013 104.533 207.333 105.52C205.679 106.507 203.613 107 201.133 107C197.826 107 195.146 106.213 193.093 104.64C191.039 103.093 189.866 100.987 189.573 98.32H196.333C196.546 99.1733 197.053 99.84 197.853 100.32C198.653 100.827 199.639 101.08 200.813 101.08C202.226 101.08 203.346 100.667 204.173 99.84C205.026 99.04 205.453 97.7467 205.453 95.96V92.8C204.786 93.84 203.866 94.6933 202.693 95.36C201.519 96 200.146 96.32 198.573 96.32C196.733 96.32 195.066 95.8533 193.573 94.92C192.079 93.96 190.893 92.6133 190.013 90.88C189.159 89.12 188.733 87.0933 188.733 84.8C188.733 82.5067 189.159 80.4933 190.013 78.76C190.893 77.0267 192.079 75.6933 193.573 74.76C195.066 73.8267 196.733 73.36 198.573 73.36ZM205.453 84.84C205.453 83.1333 204.973 81.7867 204.013 80.8C203.079 79.8133 201.933 79.32 200.573 79.32C199.213 79.32 198.053 79.8133 197.093 80.8C196.159 81.76 195.693 83.0933 195.693 84.8C195.693 86.5067 196.159 87.8667 197.093 88.88C198.053 89.8667 199.213 90.36 200.573 90.36C201.933 90.36 203.079 89.8667 204.013 88.88C204.973 87.8933 205.453 86.5467 205.453 84.84Z" fill="black"/>
<rect x="151" y="63" width="9" height="9" fill="white"/>
<path d="M152.822 8.7812C154.684 12.7173 158.62 15.2546 162.973 15.3261L163.326 15.3319L163.003 15.4741C159.018 17.2292 156.376 21.0947 156.186 25.4449C154.324 21.5088 150.389 18.9715 146.035 18.9L145.682 18.8943L146.005 18.7521C149.99 16.997 152.633 13.1315 152.822 8.7812Z" fill="#3B82F6"/>
<path d="M217.5 53C218.038 55.2213 218.307 56.332 218.699 57.3176C220.257 61.2323 223.39 64.3113 227.331 65.8015C228.323 66.1766 229.438 66.4263 231.668 66.9258L232 67L231.668 67.0742C229.438 67.5737 228.323 67.8234 227.331 68.1985C223.39 69.6887 220.257 72.7677 218.699 76.6824C218.307 77.668 218.038 78.7787 217.5 81C216.962 78.7787 216.693 77.668 216.301 76.6824C214.743 72.7677 211.61 69.6887 207.669 68.1985C206.677 67.8234 205.562 67.5737 203.332 67.0742L203 67L203.332 66.9258C205.562 66.4263 206.677 66.1766 207.669 65.8015C211.61 64.3113 214.743 61.2323 216.301 57.3176C216.693 56.332 216.962 55.2213 217.5 53Z" fill="#244B78"/>
<path d="M215.286 53.1762C216.168 55.2845 216.609 56.3387 217.153 57.2498C219.31 60.8689 222.89 63.4136 227.018 64.2617C228.057 64.4753 229.197 64.5455 231.478 64.6859L231.818 64.7067L231.502 64.8325C229.379 65.6784 228.317 66.1013 227.397 66.6287C223.741 68.7234 221.135 72.259 220.215 76.3709C219.984 77.4061 219.894 78.5453 219.714 80.8238C218.832 78.7155 218.391 77.6613 217.847 76.7502C215.69 73.1311 212.11 70.5863 207.982 69.7382C206.943 69.5247 205.803 69.4545 203.522 69.3141L203.183 69.2933L203.498 69.1675C205.621 68.3216 206.683 67.8987 207.603 67.3713C211.259 65.2766 213.865 61.741 214.785 57.6291C215.016 56.5939 215.106 55.4547 215.286 53.1762Z" fill="#3B82F6"/>
<path d="M9.72036 2.09689C11.3911 6.11798 15.2001 8.84163 19.5454 9.12235L19.8974 9.14509L19.5681 9.2716C15.5033 10.833 12.6777 14.567 12.2797 18.9031C10.6089 14.8821 6.79993 12.1584 2.45463 11.8777L2.10259 11.8549L2.4319 11.7284C6.49668 10.167 9.32229 6.43302 9.72036 2.09689Z" fill="#244B78"/>
<path d="M11 2C12.0463 6.22678 15.4019 9.49282 19.6554 10.4245L20 10.5L19.6554 10.5755C15.4019 11.5072 12.0463 14.7732 11 19C9.95367 14.7732 6.59813 11.5072 2.34461 10.5755L2 10.5L2.34461 10.4245C6.59813 9.49282 9.95367 6.22678 11 2Z" fill="#3B82F6"/>
<path d="M114 65C114.814 68.2325 117.392 70.7229 120.651 71.4247L121 71.5L120.651 71.5753C117.392 72.2771 114.814 74.7675 114 78C113.186 74.7675 110.608 72.2771 107.349 71.5753L107 71.5L107.349 71.4247C110.608 70.7229 113.186 68.2325 114 65Z" fill="#3B82F6"/>
<path d="M155.5 64C155.906 65.7353 157.264 67.0974 159 67.5C157.264 67.9026 155.906 69.2647 155.5 71C155.094 69.2647 153.736 67.9026 152 67.5C153.736 67.0974 155.094 65.7353 155.5 64Z" fill="#3B82F6"/>
<path d="M12.5 88C13.4882 91.9782 16.6494 95.0503 20.6542 95.9245L21 96L20.6542 96.0755C16.6494 96.9497 13.4882 100.022 12.5 104C11.5118 100.022 8.35063 96.9497 4.34581 96.0755L4 96L4.34581 95.9245C8.35063 95.0503 11.5118 91.9782 12.5 88Z" fill="#244B78"/>
<path d="M13.8748 88.119C14.1647 92.2079 16.7509 95.7775 20.5459 97.327L20.8735 97.4607L20.5199 97.4757C16.4244 97.6486 12.7824 100.132 11.1252 103.881C10.8353 99.7921 8.24916 96.2225 4.45416 94.673L4.12646 94.5392L4.4801 94.5243C8.57556 94.3514 12.2176 91.8682 13.8748 88.119Z" fill="#3B82F6"/>
</svg>
