<svg width="273" height="41" viewBox="0 0 273 41" fill="none" xmlns="http://www.w3.org/2000/svg">
<path d="M22.587 8.94V13.05H17.007V30H11.877V13.05H6.29697V8.94H22.587ZM40.6416 21.36C40.6416 21.84 40.6116 22.34 40.5516 22.86H28.9416C29.0216 23.9 29.3516 24.7 29.9316 25.26C30.5316 25.8 31.2616 26.07 32.1216 26.07C33.4016 26.07 34.2916 25.53 34.7916 24.45H40.2516C39.9716 25.55 39.4616 26.54 38.7216 27.42C38.0016 28.3 37.0916 28.99 35.9916 29.49C34.8916 29.99 33.6616 30.24 32.3016 30.24C30.6616 30.24 29.2016 29.89 27.9216 29.19C26.6416 28.49 25.6416 27.49 24.9216 26.19C24.2016 24.89 23.8416 23.37 23.8416 21.63C23.8416 19.89 24.1916 18.37 24.8916 17.07C25.6116 15.77 26.6116 14.77 27.8916 14.07C29.1716 13.37 30.6416 13.02 32.3016 13.02C33.9216 13.02 35.3616 13.36 36.6216 14.04C37.8816 14.72 38.8616 15.69 39.5616 16.95C40.2816 18.21 40.6416 19.68 40.6416 21.36ZM35.3916 20.01C35.3916 19.13 35.0916 18.43 34.4916 17.91C33.8916 17.39 33.1416 17.13 32.2416 17.13C31.3816 17.13 30.6516 17.38 30.0516 17.88C29.4716 18.38 29.1116 19.09 28.9716 20.01H35.3916ZM64.4079 13.08C66.4879 13.08 68.1379 13.71 69.3579 14.97C70.5979 16.23 71.2179 17.98 71.2179 20.22V30H66.1179V20.91C66.1179 19.83 65.8279 19 65.2479 18.42C64.6879 17.82 63.9079 17.52 62.9079 17.52C61.9079 17.52 61.1179 17.82 60.5379 18.42C59.9779 19 59.6979 19.83 59.6979 20.91V30H54.5979V20.91C54.5979 19.83 54.3079 19 53.7279 18.42C53.1679 17.82 52.3879 17.52 51.3879 17.52C50.3879 17.52 49.5979 17.82 49.0179 18.42C48.4579 19 48.1779 19.83 48.1779 20.91V30H43.0479V13.26H48.1779V15.36C48.6979 14.66 49.3779 14.11 50.2179 13.71C51.0579 13.29 52.0079 13.08 53.0679 13.08C54.3279 13.08 55.4479 13.35 56.4279 13.89C57.4279 14.43 58.2079 15.2 58.7679 16.2C59.3479 15.28 60.1379 14.53 61.1379 13.95C62.1379 13.37 63.2279 13.08 64.4079 13.08ZM73.4857 21.6C73.4857 19.88 73.8057 18.37 74.4457 17.07C75.1057 15.77 75.9957 14.77 77.1157 14.07C78.2357 13.37 79.4857 13.02 80.8657 13.02C82.0457 13.02 83.0757 13.26 83.9557 13.74C84.8557 14.22 85.5457 14.85 86.0257 15.63V13.26H91.1557V30H86.0257V27.63C85.5257 28.41 84.8257 29.04 83.9257 29.52C83.0457 30 82.0157 30.24 80.8357 30.24C79.4757 30.24 78.2357 29.89 77.1157 29.19C75.9957 28.47 75.1057 27.46 74.4457 26.16C73.8057 24.84 73.4857 23.32 73.4857 21.6ZM86.0257 21.63C86.0257 20.35 85.6657 19.34 84.9457 18.6C84.2457 17.86 83.3857 17.49 82.3657 17.49C81.3457 17.49 80.4757 17.86 79.7557 18.6C79.0557 19.32 78.7057 20.32 78.7057 21.6C78.7057 22.88 79.0557 23.9 79.7557 24.66C80.4757 25.4 81.3457 25.77 82.3657 25.77C83.3857 25.77 84.2457 25.4 84.9457 24.66C85.6657 23.92 86.0257 22.91 86.0257 21.63ZM104.767 13.08C106.727 13.08 108.287 13.72 109.447 15C110.627 16.26 111.217 18 111.217 20.22V30H106.117V20.91C106.117 19.79 105.827 18.92 105.247 18.3C104.667 17.68 103.887 17.37 102.907 17.37C101.927 17.37 101.147 17.68 100.567 18.3C99.987 18.92 99.697 19.79 99.697 20.91V30H94.567V13.26H99.697V15.48C100.217 14.74 100.917 14.16 101.797 13.74C102.677 13.3 103.667 13.08 104.767 13.08ZM132.749 30L125.669 20.7V30H120.539V8.94H125.669V18.18L132.689 8.94H138.719L130.559 19.26L139.019 30H132.749ZM148.777 30.24C147.137 30.24 145.657 29.89 144.337 29.19C143.037 28.49 142.007 27.49 141.247 26.19C140.507 24.89 140.137 23.37 140.137 21.63C140.137 19.91 140.517 18.4 141.277 17.1C142.037 15.78 143.077 14.77 144.397 14.07C145.717 13.37 147.197 13.02 148.837 13.02C150.477 13.02 151.957 13.37 153.277 14.07C154.597 14.77 155.637 15.78 156.397 17.1C157.157 18.4 157.537 19.91 157.537 21.63C157.537 23.35 157.147 24.87 156.367 26.19C155.607 27.49 154.557 28.49 153.217 29.19C151.897 29.89 150.417 30.24 148.777 30.24ZM148.777 25.8C149.757 25.8 150.587 25.44 151.267 24.72C151.967 24 152.317 22.97 152.317 21.63C152.317 20.29 151.977 19.26 151.297 18.54C150.637 17.82 149.817 17.46 148.837 17.46C147.837 17.46 147.007 17.82 146.347 18.54C145.687 19.24 145.357 20.27 145.357 21.63C145.357 22.97 145.677 24 146.317 24.72C146.977 25.44 147.797 25.8 148.777 25.8ZM170.159 13.08C172.119 13.08 173.679 13.72 174.839 15C176.019 16.26 176.609 18 176.609 20.22V30H171.509V20.91C171.509 19.79 171.219 18.92 170.639 18.3C170.059 17.68 169.279 17.37 168.299 17.37C167.319 17.37 166.539 17.68 165.959 18.3C165.379 18.92 165.089 19.79 165.089 20.91V30H159.959V13.26H165.089V15.48C165.609 14.74 166.309 14.16 167.189 13.74C168.069 13.3 169.059 13.08 170.159 13.08ZM186.684 30.24C185.224 30.24 183.924 29.99 182.784 29.49C181.644 28.99 180.744 28.31 180.084 27.45C179.424 26.57 179.054 25.59 178.974 24.51H184.044C184.104 25.09 184.374 25.56 184.854 25.92C185.334 26.28 185.924 26.46 186.624 26.46C187.264 26.46 187.754 26.34 188.094 26.1C188.454 25.84 188.634 25.51 188.634 25.11C188.634 24.63 188.384 24.28 187.884 24.06C187.384 23.82 186.574 23.56 185.454 23.28C184.254 23 183.254 22.71 182.454 22.41C181.654 22.09 180.964 21.6 180.384 20.94C179.804 20.26 179.514 19.35 179.514 18.21C179.514 17.25 179.774 16.38 180.294 15.6C180.834 14.8 181.614 14.17 182.634 13.71C183.674 13.25 184.904 13.02 186.324 13.02C188.424 13.02 190.074 13.54 191.274 14.58C192.494 15.62 193.194 17 193.374 18.72H188.634C188.554 18.14 188.294 17.68 187.854 17.34C187.434 17 186.874 16.83 186.174 16.83C185.574 16.83 185.114 16.95 184.794 17.19C184.474 17.41 184.314 17.72 184.314 18.12C184.314 18.6 184.564 18.96 185.064 19.2C185.584 19.44 186.384 19.68 187.464 19.92C188.704 20.24 189.714 20.56 190.494 20.88C191.274 21.18 191.954 21.68 192.534 22.38C193.134 23.06 193.444 23.98 193.464 25.14C193.464 26.12 193.184 27 192.624 27.78C192.084 28.54 191.294 29.14 190.254 29.58C189.234 30.02 188.044 30.24 186.684 30.24ZM212.082 21.36C212.082 21.84 212.052 22.34 211.992 22.86H200.382C200.462 23.9 200.792 24.7 201.372 25.26C201.972 25.8 202.702 26.07 203.562 26.07C204.842 26.07 205.732 25.53 206.232 24.45H211.692C211.412 25.55 210.902 26.54 210.162 27.42C209.442 28.3 208.532 28.99 207.432 29.49C206.332 29.99 205.102 30.24 203.742 30.24C202.102 30.24 200.642 29.89 199.362 29.19C198.082 28.49 197.082 27.49 196.362 26.19C195.642 24.89 195.282 23.37 195.282 21.63C195.282 19.89 195.632 18.37 196.332 17.07C197.052 15.77 198.052 14.77 199.332 14.07C200.612 13.37 202.082 13.02 203.742 13.02C205.362 13.02 206.802 13.36 208.062 14.04C209.322 14.72 210.302 15.69 211.002 16.95C211.722 18.21 212.082 19.68 212.082 21.36ZM206.832 20.01C206.832 19.13 206.532 18.43 205.932 17.91C205.332 17.39 204.582 17.13 203.682 17.13C202.822 17.13 202.092 17.38 201.492 17.88C200.912 18.38 200.552 19.09 200.412 20.01H206.832ZM219.619 7.8V30H214.489V7.8H219.619ZM225.616 11.52C224.716 11.52 223.976 11.26 223.396 10.74C222.836 10.2 222.556 9.54 222.556 8.76C222.556 7.96 222.836 7.3 223.396 6.78C223.976 6.24 224.716 5.97 225.616 5.97C226.496 5.97 227.216 6.24 227.776 6.78C228.356 7.3 228.646 7.96 228.646 8.76C228.646 9.54 228.356 10.2 227.776 10.74C227.216 11.26 226.496 11.52 225.616 11.52ZM228.166 13.26V30H223.036V13.26H228.166ZM241.784 13.08C243.744 13.08 245.304 13.72 246.464 15C247.644 16.26 248.234 18 248.234 20.22V30H243.134V20.91C243.134 19.79 242.844 18.92 242.264 18.3C241.684 17.68 240.904 17.37 239.924 17.37C238.944 17.37 238.164 17.68 237.584 18.3C237.004 18.92 236.714 19.79 236.714 20.91V30H231.584V13.26H236.714V15.48C237.234 14.74 237.934 14.16 238.814 13.74C239.694 13.3 240.684 13.08 241.784 13.08ZM257.859 13.02C259.039 13.02 260.069 13.26 260.949 13.74C261.849 14.22 262.539 14.85 263.019 15.63V13.26H268.149V29.97C268.149 31.51 267.839 32.9 267.219 34.14C266.619 35.4 265.689 36.4 264.429 37.14C263.189 37.88 261.639 38.25 259.779 38.25C257.299 38.25 255.289 37.66 253.749 36.48C252.209 35.32 251.329 33.74 251.109 31.74H256.179C256.339 32.38 256.719 32.88 257.319 33.24C257.919 33.62 258.659 33.81 259.539 33.81C260.599 33.81 261.439 33.5 262.059 32.88C262.699 32.28 263.019 31.31 263.019 29.97V27.6C262.519 28.38 261.829 29.02 260.949 29.52C260.069 30 259.039 30.24 257.859 30.24C256.479 30.24 255.229 29.89 254.109 29.19C252.989 28.47 252.099 27.46 251.439 26.16C250.799 24.84 250.479 23.32 250.479 21.6C250.479 19.88 250.799 18.37 251.439 17.07C252.099 15.77 252.989 14.77 254.109 14.07C255.229 13.37 256.479 13.02 257.859 13.02ZM263.019 21.63C263.019 20.35 262.659 19.34 261.939 18.6C261.239 17.86 260.379 17.49 259.359 17.49C258.339 17.49 257.469 17.86 256.749 18.6C256.049 19.32 255.699 20.32 255.699 21.6C255.699 22.88 256.049 23.9 256.749 24.66C257.469 25.4 258.339 25.77 259.359 25.77C260.379 25.77 261.239 25.4 261.939 24.66C262.659 23.92 263.019 22.91 263.019 21.63Z" fill="black"/>
<path d="M269.5 34C269.906 35.7353 271.264 37.0974 273 37.5C271.264 37.9026 269.906 39.2647 269.5 41C269.094 39.2647 267.736 37.9026 266 37.5C267.736 37.0974 269.094 35.7353 269.5 34Z" fill="#3B82F6"/>
<path d="M195.5 27C195.906 28.7353 197.264 30.0974 199 30.5C197.264 30.9026 195.906 32.2647 195.5 34C195.094 32.2647 193.736 30.9026 192 30.5C193.736 30.0974 195.094 28.7353 195.5 27Z" fill="#3B82F6"/>
<path d="M177.5 9C177.906 10.7353 179.264 12.0974 181 12.5C179.264 12.9026 177.906 14.2647 177.5 16C177.094 14.2647 175.736 12.9026 174 12.5C175.736 12.0974 177.094 10.7353 177.5 9Z" fill="#3B82F6"/>
<path d="M3.5 2C3.9057 3.73527 5.26401 5.09738 7 5.5C5.26401 5.90262 3.9057 7.26473 3.5 9C3.0943 7.26473 1.73599 5.90262 0 5.5C1.73599 5.09738 3.0943 3.73527 3.5 2Z" fill="#3B82F6"/>
<path d="M112.5 9C112.906 10.7353 114.264 12.0974 116 12.5C114.264 12.9026 112.906 14.2647 112.5 16C112.094 14.2647 110.736 12.9026 109 12.5C110.736 12.0974 112.094 10.7353 112.5 9Z" fill="#3B82F6"/>
<path d="M71.5 27C71.9057 28.7353 73.264 30.0974 75 30.5C73.264 30.9026 71.9057 32.2647 71.5 34C71.0943 32.2647 69.736 30.9026 68 30.5C69.736 30.0974 71.0943 28.7353 71.5 27Z" fill="#3B82F6"/>
</svg>
